<svg width="610" height="126" viewBox="0 0 610 126" fill="none" xmlns="http://www.w3.org/2000/svg">
<path fill-rule="evenodd" clip-rule="evenodd" d="M60.8939 6C28.9418 6 3 31.9419 3 63.8941C3 95.8463 28.9418 121.788 60.8939 121.788C92.8461 121.788 118.788 95.8463 118.788 63.8941C118.788 31.9419 92.8461 6 60.8939 6ZM60.8939 15.2388C87.7472 15.2388 109.549 37.0407 109.549 63.8941C109.549 90.7474 87.7472 112.549 60.8939 112.549C34.0407 112.549 12.2388 90.7474 12.2388 63.8941C12.2388 37.0407 34.0407 15.2388 60.8939 15.2388Z" fill="#333333"/>
<path fill-rule="evenodd" clip-rule="evenodd" d="M60.8934 19.6204C85.5583 19.6204 105.583 39.6452 105.583 64.3102C105.583 88.9748 85.5583 109 60.8934 109C36.2288 109 16.2041 88.9748 16.2041 64.3102C16.2041 39.6452 36.2288 19.6204 60.8934 19.6204ZM68.4428 73.788C69.2948 76.6837 70.4938 79.0821 72.0396 80.9826C73.5853 82.8828 75.3488 83.9136 77.3307 84.0745V68.539C74.1006 66.9099 71.7224 65.3918 70.1966 63.984C67.4814 61.5306 66.1241 58.7151 66.1241 55.5377C66.1241 52.3599 67.1942 49.7656 69.3343 47.7548C71.4748 45.7436 74.1597 44.6173 77.3902 44.3761V39.5799H80.6895V44.3159C82.9686 44.6173 84.8266 45.0196 86.2634 45.5224C87.7001 46.0251 89.0921 46.6989 90.4397 47.5435V56.1709H89.1616C88.3688 53.6371 87.5463 51.7366 86.6943 50.4697C85.1682 48.1771 83.1667 46.7893 80.6895 46.3068V59.6098C84.6729 61.621 87.4573 63.3504 89.0426 64.7984C91.817 67.3123 93.2042 70.3086 93.2042 73.788C93.2042 76.9452 92.1984 79.625 90.1869 81.8272C88.1755 84.0291 85.0096 85.3919 80.6895 85.9145V92.0683H77.3902V85.9145C75.7454 85.8341 74.4077 85.6833 73.3772 85.462C71.6925 85.1001 69.6219 84.3761 67.1643 83.2903V73.6372L68.4428 73.788ZM30.0297 83.9162C31.7636 83.857 32.9948 83.6206 33.724 83.2067C34.8471 82.5763 35.4084 81.3943 35.4084 79.6604V50.3722C35.4084 48.6187 34.8568 47.4364 33.7536 46.8256C33.0836 46.4512 31.8424 46.2052 30.0297 46.0868V44.5501H64.342V56.756H62.8641C62.1156 52.9926 60.8545 50.3574 59.0814 48.8503C57.3079 47.3428 54.0372 46.5892 49.2694 46.5892C47.4962 46.5892 46.3683 46.7912 45.8855 47.1952C45.4027 47.5991 45.1612 48.3527 45.1612 49.4559V63.4646C48.4318 63.5238 50.6437 62.8342 51.7961 61.3959C52.9488 59.9575 53.8208 57.6624 54.4116 54.5097H55.9487V74.9613H54.4116C53.998 71.6907 53.1656 69.3064 51.9145 67.8092C50.6633 66.3117 48.4122 65.5629 45.1612 65.5629V79.6604C45.1612 81.532 45.708 82.7191 46.8015 83.2215C47.895 83.7239 49.565 83.9555 51.8109 83.9162V85.453H30.0297V83.9162ZM80.6895 84.0745C82.6318 83.8332 84.0686 83.1141 85 81.9176C85.9314 80.7211 86.3968 79.1676 86.3968 77.2568C86.3968 75.6683 85.8819 74.366 84.8514 73.3506C83.8209 72.3349 82.4337 71.3745 80.6895 70.4697V84.0745ZM77.3307 46.1862C75.7454 46.3872 74.4421 46.9755 73.4216 47.9507C72.4011 48.9262 71.891 50.2082 71.891 51.7971C71.891 53.466 72.6143 54.904 74.0607 56.1108C74.9526 56.8547 76.0426 57.4481 77.3307 57.8904V46.1862Z" fill="#333333"/>
<path d="M133.029 85.1943C134.969 85.1281 136.357 84.8647 137.161 84.401C138.423 83.6961 139.054 82.3745 139.054 80.4362V47.683C139.054 45.7227 138.439 44.4011 137.193 43.7166C136.452 43.2987 135.064 43.0227 133.029 42.8918V41.1727H171.4V54.8225H169.76C168.924 50.6133 167.505 47.6672 165.518 45.9813C163.546 44.2954 159.887 43.4532 154.557 43.4532C152.57 43.4532 151.308 43.6787 150.772 44.1298C150.235 44.5824 149.952 45.4246 149.952 46.6595V62.3248C153.611 62.391 156.087 61.6198 157.38 60.0112C158.673 58.4025 159.635 55.835 160.297 52.3102H162.016V75.1813H160.297C159.84 71.5224 158.91 68.8571 157.506 67.1823C156.102 65.5074 153.595 64.6715 149.952 64.6715V80.4362C149.952 82.529 150.567 83.857 151.797 84.4184C153.011 84.9798 154.888 85.2385 157.396 85.1943V86.9134H133.029V85.1943Z" fill="#333333"/>
<path d="M177.362 45.4025C177.362 43.9484 177.867 42.7088 178.892 41.6853C179.917 40.6601 181.163 40.1476 182.614 40.1476C184.049 40.1476 185.263 40.6601 186.304 41.6853C187.329 42.7088 187.834 43.9484 187.834 45.4025C187.834 46.8566 187.329 48.0962 186.304 49.1213C185.263 50.1448 184.049 50.6574 182.614 50.6574C181.163 50.6574 179.917 50.1448 178.892 49.1213C177.867 48.0962 177.362 46.8566 177.362 45.4025ZM174.381 85.2937C175.58 85.0949 176.384 84.7984 176.826 84.401C177.488 83.8065 177.819 82.7388 177.819 81.1964V61.2997C177.819 59.9339 177.583 59.0034 177.125 58.5066C176.668 58.0114 175.753 57.6424 174.381 57.3995V55.7467H187.377V81.4597C187.377 82.9359 187.597 83.8837 188.023 84.3032C188.48 84.7212 189.301 85.0524 190.515 85.2937V86.9133H174.381V85.2937Z" fill="#333333"/>
<path d="M194.537 85.2936C195.783 85.1391 196.682 84.8032 197.265 84.2859C197.849 83.7686 198.148 82.7387 198.148 81.1963V61.2996C198.148 59.9339 197.912 58.986 197.439 58.4577C196.965 57.9294 196.003 57.5761 194.537 57.3995V55.7467H207.358V60.6057C208.447 58.975 209.819 57.625 211.475 56.5573C213.147 55.488 214.992 54.955 217.01 54.955C219.928 54.955 222.183 55.7041 223.776 57.2023C225.369 58.7006 226.173 61.3327 226.173 65.1004V81.4597C226.173 82.98 226.426 83.961 226.946 84.401C227.467 84.8426 228.334 85.1391 229.548 85.2936V86.9133H213.635V85.2936C214.85 85.0523 215.686 84.7212 216.127 84.3032C216.569 83.8837 216.79 82.9359 216.79 81.4597V65.0673C216.79 63.5249 216.632 62.3689 216.316 61.5977C215.796 60.2099 214.739 59.5144 213.178 59.5144C212.011 59.5144 210.939 59.9386 209.961 60.7871C208.983 61.6356 208.226 62.4888 207.69 63.3483V81.4597C207.69 82.9359 207.91 83.8837 208.352 84.3032C208.794 84.7212 209.63 85.0523 210.828 85.2936V86.9133H194.537V85.2936Z" fill="#333333"/>
<path d="M245.934 83.0463C247.038 83.0463 248.063 82.7167 249.009 82.0543C249.53 81.6584 250.161 81.0418 250.886 80.2043V70.3222C249.088 70.7622 247.495 71.4577 246.139 72.404C243.821 74.0126 242.669 76.0613 242.669 78.5515C242.669 80.0277 243.001 81.1459 243.663 81.906C244.341 82.6662 245.098 83.0463 245.934 83.0463ZM232.812 80.6002C232.812 77.5595 234.279 75.1481 237.213 73.3629C240.146 71.5776 244.735 69.7828 250.997 67.9755V63.0518C250.997 61.0457 250.571 59.5648 249.719 58.6059C248.868 57.6471 247.369 57.1692 245.208 57.1692C243.994 57.1692 243.001 57.3947 242.212 57.8458C241.439 58.2984 241.045 58.8646 241.045 59.5475C241.045 59.8124 241.092 60.0332 241.171 60.2098C241.266 60.3849 241.392 60.5726 241.565 60.7713L241.96 61.2334C242.275 61.6087 242.527 62.0219 242.717 62.473C242.906 62.924 242.985 63.4035 242.985 63.9113C242.985 65.1888 242.575 66.1744 241.723 66.8684C240.872 67.5623 239.894 67.9093 238.758 67.9093C237.465 67.9093 236.361 67.5244 235.446 66.7532C234.532 65.982 234.074 64.8686 234.074 63.4145C234.074 60.8155 235.289 58.7542 237.733 57.2339C240.178 55.7135 243.19 54.955 246.754 54.955C250.587 54.955 253.804 55.693 256.374 57.1692C258.929 58.6674 260.207 61.4211 260.207 65.4316V81.824C260.207 82.3082 260.333 82.7214 260.585 83.0636C260.838 83.4043 261.121 83.5746 261.437 83.5746C261.705 83.5746 261.942 83.5257 262.147 83.4263C262.352 83.327 262.683 83.0573 263.125 82.6173L264.149 84.0383C262.825 85.5807 261.358 86.6594 259.749 87.2776C258.74 87.6735 257.668 87.8722 256.548 87.8722C254.545 87.8722 253.078 87.2887 252.148 86.12C251.612 85.4592 251.233 84.4783 250.997 83.1787C249.12 85.0523 247.006 86.3739 244.641 87.1451C243.206 87.6293 241.802 87.8722 240.414 87.8722C238.569 87.8722 236.834 87.2824 235.226 86.1043C233.617 84.9246 232.812 83.0904 232.812 80.6002Z" fill="#333333"/>
<path d="M266.026 85.2936C267.257 85.1391 268.171 84.8032 268.755 84.2859C269.338 83.7686 269.622 82.7387 269.622 81.1963V61.2996C269.622 59.9339 269.401 58.986 268.912 58.4577C268.439 57.9294 267.477 57.5761 266.026 57.3995V55.7467H278.848V60.6057C279.936 58.975 281.308 57.625 282.964 56.5573C284.636 55.488 286.481 54.955 288.5 54.955C291.418 54.955 293.657 55.7041 295.266 57.2023C296.859 58.7006 297.663 61.3327 297.663 65.1004V81.4597C297.663 82.98 297.915 83.961 298.436 84.401C298.956 84.8426 299.824 85.1391 301.022 85.2936V86.9133H285.125V85.2936C286.339 85.0523 287.175 84.7212 287.617 84.3032C288.058 83.8837 288.263 82.9359 288.263 81.4597V65.0673C288.263 63.5249 288.121 62.3689 287.806 61.5977C287.286 60.2099 286.229 59.5144 284.668 59.5144C283.501 59.5144 282.428 59.9386 281.45 60.7871C280.473 61.6356 279.716 62.4888 279.179 63.3483V81.4597C279.179 82.9359 279.4 83.8837 279.842 84.3032C280.283 84.7212 281.103 85.0523 282.318 85.2936V86.9133H266.026V85.2936Z" fill="#333333"/>
<path d="M304.255 71.1156H306.195C307.299 76.1607 309.081 79.829 311.541 82.1206C314.001 84.4121 316.809 85.5586 319.979 85.5586C323.07 85.5586 325.262 84.7701 326.555 83.1946C327.864 81.6206 328.511 79.9615 328.511 78.222C328.511 76.1938 327.832 74.541 326.46 73.2636C325.561 72.4261 323.732 71.3363 321.004 69.9926L316.604 67.81C312.251 65.6509 309.175 63.5139 307.393 61.399C305.611 59.2841 304.712 56.6725 304.712 53.5656C304.712 50.2616 305.895 47.1767 308.261 44.3127C310.626 41.4471 314.269 40.0151 319.158 40.0151C321.65 40.0151 324.048 40.3905 326.382 41.1396C328.7 41.8887 330.025 42.2625 330.356 42.2625C331.113 42.2625 331.633 42.048 331.917 41.619C332.201 41.1885 332.438 40.6223 332.611 39.9158H334.63V54.6569H332.737C331.838 51.2409 330.246 48.2996 327.959 45.8331C325.688 43.3649 322.912 42.1316 319.647 42.1316C317.361 42.1316 315.547 42.753 314.206 43.9989C312.882 45.2432 312.219 46.7572 312.219 48.5425C312.219 50.6795 312.85 52.2771 314.096 53.3353C315.326 54.4141 318.07 56.0006 322.328 58.0934L327.422 60.6058C329.693 61.7287 331.491 62.9746 332.832 64.3403C335.355 66.8968 336.601 70.0037 336.601 73.661C336.601 77.0754 335.261 80.2974 332.564 83.327C329.851 86.3566 325.53 87.8722 319.584 87.8722C318.212 87.8722 316.84 87.7445 315.436 87.4922C314.033 87.2382 312.661 86.8471 311.289 86.3188L309.964 85.822C309.664 85.7353 309.365 85.6627 309.081 85.6075C308.797 85.5523 308.545 85.5255 308.355 85.5255C307.646 85.5255 307.157 85.729 306.889 86.1374C306.636 86.5443 306.4 87.1231 306.195 87.8722H304.255V71.1156Z" fill="#333333"/>
<path d="M350.685 55.7467V78.7172C350.685 80.0829 350.859 81.086 351.19 81.7247C351.757 82.8476 352.893 83.4106 354.596 83.4106C355.669 83.4106 356.725 83.0684 357.766 82.3855C358.35 82.0117 359.107 81.3825 360.006 80.5024V61.2997C360.006 59.8897 359.722 58.9041 359.17 58.3426C358.602 57.7796 357.467 57.4657 355.779 57.3995V55.7467H369.263V80.105C369.263 81.5149 369.531 82.4896 370.052 83.0305C370.588 83.5699 371.613 83.9058 373.159 84.0383V85.5917C368.979 85.9876 366.346 86.2794 365.242 86.467C364.154 86.6547 362.403 87.1231 360.006 87.8722V83.4106C358.397 84.7985 357.072 85.7794 356.016 86.3519C354.155 87.3644 352.231 87.8722 350.228 87.8722C348.036 87.8722 346.017 87.1783 344.124 85.7905C342.248 84.401 341.301 81.9345 341.301 78.386V61.2997C341.301 59.8677 341.065 58.9309 340.607 58.4909C340.15 58.0493 339.251 57.6865 337.926 57.3995V55.7467H350.685Z" fill="#333333"/>
</svg>
