<svg width="159" height="50" viewBox="0 0 159 50" fill="none" xmlns="http://www.w3.org/2000/svg">
<path fill-rule="evenodd" clip-rule="evenodd" d="M24.8519 0C11.1359 0 0 11.1359 0 24.8519C0 38.5679 11.1359 49.7039 24.8519 49.7039C38.5679 49.7039 49.7038 38.5679 49.7038 24.8519C49.7038 11.1359 38.5679 0 24.8519 0ZM24.8519 3.9659C36.3791 3.9659 45.7379 13.3247 45.7379 24.8519C45.7379 36.3792 36.3791 45.738 24.8519 45.738C13.3247 45.738 3.96589 36.3792 3.96589 24.8519C3.96589 13.3247 13.3247 3.9659 24.8519 3.9659Z" fill="#333333"/>
<path fill-rule="evenodd" clip-rule="evenodd" d="M24.8516 5.84766C35.4394 5.84766 44.0353 14.4436 44.0353 25.0315C44.0353 35.6192 35.4394 44.2151 24.8516 44.2151C14.2639 44.2151 5.66797 35.6192 5.66797 25.0315C5.66797 14.4436 14.2639 5.84766 24.8516 5.84766ZM28.0923 29.1C28.458 30.343 28.9727 31.3725 29.6362 32.1884C30.2998 33.0041 31.0568 33.4466 31.9075 33.5156V26.8467C30.521 26.1474 29.5001 25.4958 28.8451 24.8915C27.6796 23.8383 27.0969 22.6297 27.0969 21.2657C27.0969 19.9016 27.5563 18.788 28.475 17.9248C29.3938 17.0615 30.5464 16.578 31.9331 16.4744V14.4156H33.3494V16.4486C34.3277 16.578 35.1253 16.7507 35.742 16.9665C36.3588 17.1823 36.9563 17.4715 37.5348 17.8341V21.5376H36.9861C36.6458 20.4499 36.2928 19.6341 35.927 19.0902C35.2719 18.1061 34.4127 17.5103 33.3494 17.3032V23.0138C35.0593 23.8771 36.2545 24.6195 36.9351 25.241C38.126 26.3202 38.7215 27.6064 38.7215 29.1C38.7215 30.4552 38.2898 31.6056 37.4263 32.5509C36.5628 33.4961 35.2039 34.0811 33.3494 34.3055V36.9471H31.9331V34.3055C31.227 34.2709 30.6528 34.2062 30.2105 34.1112C29.4873 33.9559 28.5984 33.6451 27.5434 33.179V29.0352L28.0923 29.1ZM11.6028 33.4477C12.3472 33.4223 12.8757 33.3208 13.1887 33.1431C13.6708 32.8725 13.9117 32.3651 13.9117 31.6208V19.0484C13.9117 18.2957 13.6749 17.7881 13.2014 17.5259C12.9138 17.3652 12.381 17.2596 11.6028 17.2088V16.5491H26.3319V21.7887H25.6975C25.3762 20.1732 24.8349 19.042 24.0737 18.3951C23.3124 17.7479 21.9084 17.4245 19.8618 17.4245C19.1006 17.4245 18.6164 17.5112 18.4092 17.6846C18.2019 17.858 18.0983 18.1815 18.0983 18.655V24.6685C19.5022 24.6939 20.4517 24.3979 20.9464 23.7804C21.4412 23.163 21.8155 22.1778 22.0692 20.8245H22.729V29.6036H22.0692C21.8916 28.1996 21.5343 27.1762 20.9972 26.5335C20.4601 25.8906 19.4938 25.5692 18.0983 25.5692V31.6208C18.0983 32.4242 18.333 32.9338 18.8024 33.1494C19.2718 33.3651 19.9887 33.4645 20.9528 33.4477V34.1073H11.6028V33.4477ZM33.3494 33.5156C34.1831 33.412 34.7999 33.1033 35.1997 32.5897C35.5996 32.0761 35.7993 31.4093 35.7993 30.589C35.7993 29.9071 35.5783 29.3481 35.1359 28.9122C34.6936 28.4762 34.0981 28.0639 33.3494 27.6756V33.5156ZM31.9075 17.2515C31.227 17.3378 30.6676 17.5903 30.2295 18.0089C29.7914 18.4276 29.5725 18.978 29.5725 19.66C29.5725 20.3764 29.883 20.9937 30.5038 21.5118C30.8867 21.8311 31.3546 22.0858 31.9075 22.2757V17.2515Z" fill="#333333"/>
<path d="M55.8164 33.9946C56.6491 33.9662 57.2449 33.8531 57.5901 33.6541C58.1317 33.3515 58.4026 32.7841 58.4026 31.9521V17.8923C58.4026 17.0508 58.1385 16.4835 57.6037 16.1897C57.2855 16.0102 56.6897 15.8918 55.8164 15.8356V15.0977H72.2878V20.957H71.5837C71.2249 19.1501 70.6156 17.8855 69.7626 17.1618C68.9163 16.4381 67.3457 16.0766 65.0574 16.0766C64.2044 16.0766 63.6628 16.1734 63.4326 16.367C63.2024 16.5613 63.0806 16.9228 63.0806 17.4529V24.1775C64.6513 24.2059 65.7141 23.8749 66.2693 23.1844C66.8244 22.4938 67.2373 21.3917 67.5217 19.8786H68.2596V29.6964H67.5217C67.3254 28.1257 66.9259 26.9816 66.3234 26.2627C65.7209 25.5437 64.6445 25.1849 63.0806 25.1849V31.9521C63.0806 32.8505 63.3446 33.4205 63.8727 33.6615C64.394 33.9025 65.1996 34.0136 66.276 33.9946V34.7325H55.8164V33.9946Z" fill="#333333"/>
<path d="M74.8459 16.9139C74.8459 16.2898 75.0626 15.7576 75.5026 15.3183C75.9427 14.8782 76.4775 14.6582 77.1003 14.6582C77.7164 14.6582 78.2376 14.8782 78.6845 15.3183C79.1245 15.7576 79.3411 16.2898 79.3411 16.9139C79.3411 17.5381 79.1245 18.0703 78.6845 18.5103C78.2376 18.9497 77.7164 19.1697 77.1003 19.1697C76.4775 19.1697 75.9427 18.9497 75.5026 18.5103C75.0626 18.0703 74.8459 17.5381 74.8459 16.9139ZM73.5664 34.0379C74.0809 33.9526 74.4261 33.8253 74.6157 33.6547C74.9 33.3995 75.0422 32.9411 75.0422 32.279V23.7381C75.0422 23.1518 74.9407 22.7524 74.7444 22.5391C74.548 22.3265 74.1554 22.1681 73.5664 22.0639V21.3544H79.1448V32.3921C79.1448 33.0258 79.2396 33.4326 79.4224 33.6127C79.6187 33.7921 79.9708 33.9343 80.4921 34.0379V34.7331H73.5664V34.0379Z" fill="#333333"/>
<path d="M82.2188 34.037C82.7536 33.9707 83.1395 33.8265 83.39 33.6044C83.6405 33.3824 83.7691 32.9403 83.7691 32.2782V23.7372C83.7691 23.1509 83.6676 22.7441 83.4645 22.5173C83.2614 22.2905 82.8484 22.1388 82.2188 22.063V21.3535H87.7227V23.4393C88.1899 22.7393 88.7789 22.1598 89.4898 21.7015C90.2074 21.2425 90.9994 21.0137 91.8659 21.0137C93.1184 21.0137 94.0865 21.3352 94.7703 21.9784C95.454 22.6215 95.7993 23.7514 95.7993 25.3688V32.3913C95.7993 33.0439 95.9076 33.465 96.131 33.6538C96.3545 33.8434 96.7268 33.9707 97.2481 34.037V34.7323H90.4172V34.037C90.9385 33.9334 91.2973 33.7913 91.4869 33.6119C91.6764 33.4318 91.7712 33.0249 91.7712 32.3913V25.3546C91.7712 24.6925 91.7035 24.1962 91.5681 23.8652C91.3447 23.2694 90.8911 22.9709 90.2209 22.9709C89.7199 22.9709 89.2595 23.153 88.8398 23.5172C88.4201 23.8814 88.0951 24.2477 87.865 24.6166V32.3913C87.865 33.0249 87.9597 33.4318 88.1492 33.6119C88.3388 33.7913 88.6977 33.9334 89.2122 34.037V34.7323H82.2188V34.037Z" fill="#333333"/>
<path d="M104.281 33.0723C104.755 33.0723 105.195 32.9308 105.601 32.6465C105.825 32.4766 106.095 32.2118 106.407 31.8524V27.6103C105.635 27.7992 104.951 28.0977 104.369 28.5039C103.374 29.1945 102.88 30.0739 102.88 31.1429C102.88 31.7765 103.022 32.2565 103.306 32.5828C103.597 32.9091 103.922 33.0723 104.281 33.0723ZM98.6484 32.0223C98.6484 30.717 99.2781 29.6819 100.537 28.9156C101.796 28.1492 103.767 27.3788 106.454 26.6029V24.4894C106.454 23.6282 106.271 22.9925 105.906 22.5809C105.54 22.1693 104.897 21.9642 103.97 21.9642C103.448 21.9642 103.022 22.061 102.683 22.2546C102.352 22.4489 102.182 22.6919 102.182 22.9851C102.182 23.0988 102.203 23.1936 102.237 23.2694C102.277 23.3446 102.331 23.4251 102.406 23.5104L102.575 23.7088C102.71 23.8699 102.819 24.0473 102.9 24.2409C102.981 24.4345 103.015 24.6403 103.015 24.8583C103.015 25.4067 102.839 25.8298 102.473 26.1277C102.108 26.4256 101.688 26.5745 101.201 26.5745C100.646 26.5745 100.172 26.4093 99.779 26.0783C99.3864 25.7472 99.1901 25.2693 99.1901 24.6451C99.1901 23.5294 99.7113 22.6446 100.761 21.9919C101.81 21.3393 103.103 21.0137 104.633 21.0137C106.278 21.0137 107.659 21.3305 108.763 21.9642C109.86 22.6073 110.408 23.7894 110.408 25.5109V32.5476C110.408 32.7555 110.462 32.9328 110.57 33.0798C110.679 33.226 110.801 33.2991 110.936 33.2991C111.051 33.2991 111.153 33.2781 111.241 33.2355C111.329 33.1928 111.471 33.077 111.66 32.8882L112.1 33.4981C111.532 34.1602 110.902 34.6233 110.212 34.8887C109.778 35.0586 109.318 35.1439 108.837 35.1439C107.977 35.1439 107.348 34.8934 106.948 34.3918C106.718 34.1081 106.556 33.687 106.454 33.1292C105.649 33.9334 104.741 34.5008 103.726 34.8318C103.11 35.0397 102.507 35.1439 101.912 35.1439C101.12 35.1439 100.375 34.8907 99.6843 34.385C98.9937 33.8786 98.6484 33.0913 98.6484 32.0223Z" fill="#333333"/>
<path d="M112.906 34.037C113.434 33.9707 113.827 33.8265 114.077 33.6044C114.328 33.3824 114.45 32.9403 114.45 32.2782V23.7372C114.45 23.1509 114.355 22.7441 114.145 22.5173C113.942 22.2905 113.529 22.1388 112.906 22.063V21.3535H118.41V23.4393C118.877 22.7393 119.466 22.1598 120.177 21.7015C120.895 21.2425 121.687 21.0137 122.553 21.0137C123.806 21.0137 124.767 21.3352 125.458 21.9784C126.141 22.6215 126.487 23.7514 126.487 25.3688V32.3913C126.487 33.0439 126.595 33.465 126.818 33.6538C127.042 33.8434 127.414 33.9707 127.929 34.037V34.7323H121.105V34.037C121.626 33.9334 121.985 33.7913 122.174 33.6119C122.364 33.4318 122.452 33.0249 122.452 32.3913V25.3546C122.452 24.6925 122.391 24.1962 122.256 23.8652C122.032 23.2694 121.579 22.9709 120.908 22.9709C120.407 22.9709 119.947 23.153 119.527 23.5172C119.108 23.8814 118.783 24.2477 118.552 24.6166V32.3913C118.552 33.0249 118.647 33.4318 118.837 33.6119C119.026 33.7913 119.378 33.9334 119.9 34.037V34.7323H112.906V34.037Z" fill="#333333"/>
<path d="M129.316 27.9516H130.149C130.623 30.1173 131.388 31.692 132.444 32.6757C133.5 33.6593 134.705 34.1515 136.066 34.1515C137.393 34.1515 138.334 33.813 138.889 33.1367C139.451 32.4611 139.729 31.7489 139.729 31.0021C139.729 30.1315 139.437 29.422 138.848 28.8737C138.463 28.5142 137.677 28.0464 136.506 27.4696L134.617 26.5326C132.749 25.6058 131.429 24.6885 130.664 23.7806C129.899 22.8728 129.513 21.7517 129.513 20.418C129.513 18.9997 130.021 17.6755 131.036 16.4461C132.051 15.216 133.615 14.6012 135.714 14.6012C136.784 14.6012 137.813 14.7624 138.815 15.0839C139.81 15.4055 140.378 15.566 140.521 15.566C140.846 15.566 141.069 15.4739 141.191 15.2897C141.313 15.1049 141.414 14.8619 141.489 14.5586H142.355V20.8865H141.543C141.157 19.4201 140.473 18.1575 139.492 17.0987C138.517 16.0392 137.325 15.5098 135.924 15.5098C134.942 15.5098 134.164 15.7765 133.588 16.3113C133.02 16.8455 132.735 17.4954 132.735 18.2618C132.735 19.1791 133.006 19.8649 133.541 20.3191C134.069 20.7822 135.247 21.4633 137.075 22.3616L139.261 23.4401C140.236 23.9221 141.008 24.4569 141.584 25.0432C142.667 26.1406 143.202 27.4743 143.202 29.0443C143.202 30.51 142.626 31.8931 141.468 33.1936C140.304 34.4941 138.449 35.1447 135.897 35.1447C135.308 35.1447 134.719 35.0898 134.116 34.9815C133.514 34.8725 132.925 34.7046 132.336 34.4778L131.767 34.2646C131.638 34.2273 131.51 34.1962 131.388 34.1725C131.266 34.1488 131.158 34.1373 131.077 34.1373C130.772 34.1373 130.562 34.2246 130.447 34.4C130.339 34.5746 130.237 34.8231 130.149 35.1447H129.316V27.9516Z" fill="#333333"/>
<path d="M149.25 21.3535V31.2139C149.25 31.8002 149.325 32.2308 149.467 32.505C149.711 32.987 150.198 33.2287 150.929 33.2287C151.39 33.2287 151.843 33.0818 152.29 32.7886C152.541 32.6282 152.865 32.3581 153.251 31.9803V23.7372C153.251 23.132 153.129 22.7089 152.893 22.4678C152.649 22.2262 152.161 22.0914 151.437 22.063V21.3535H157.225V31.8097C157.225 32.4149 157.34 32.8333 157.564 33.0655C157.794 33.2971 158.234 33.4413 158.897 33.4981V34.165C157.103 34.3349 155.973 34.4601 155.499 34.5407C155.032 34.6213 154.28 34.8223 153.251 35.1439V33.2287C152.561 33.8244 151.992 34.2455 151.539 34.4913C150.74 34.9259 149.914 35.1439 149.054 35.1439C148.113 35.1439 147.246 34.846 146.434 34.2503C145.628 33.6538 145.222 32.595 145.222 31.0718V23.7372C145.222 23.1225 145.121 22.7204 144.924 22.5315C144.728 22.3419 144.342 22.1862 143.773 22.063V21.3535H149.25Z" fill="#333333"/>
</svg>
