<svg width="610" height="126" viewBox="0 0 610 126" fill="none" xmlns="http://www.w3.org/2000/svg">
<path fill-rule="evenodd" clip-rule="evenodd" d="M32.5505 99.7349L34.6056 99.7961C42.4717 99.7961 50.9837 97.5788 60.1417 93.1448C69.2997 88.7105 77.3493 82.9601 84.2843 75.8931H59.9137L66.1045 68.5144H99.0474C89.066 80.3274 77.6882 89.7064 64.9138 96.6522C52.1426 103.598 39.9351 107.071 28.2945 107.071L26.4293 107.03L32.5505 99.7349ZM21.7046 63.7293C21.8503 66.5745 22.3126 69.3587 23.0663 72.0383C20.5076 75.875 18.7913 79.5762 17.9236 83.1419C16.6601 88.321 17.5056 92.3911 20.4601 95.3532C23.0916 97.9917 27.1196 99.4547 32.5505 99.7349L26.4293 107.03C13.5315 106.628 7.00495 101.822 6.84979 92.6251C6.72945 85.2116 10.7543 76.6379 18.9211 66.9035C19.8205 65.8342 20.7483 64.7759 21.7046 63.7293ZM33.3358 60.1228C31.8031 61.5677 30.3591 63.0332 29.0038 64.519C28.855 62.8204 28.8423 61.0918 28.9816 59.3457L33.3358 60.1228ZM37.6583 49.3687C37.6298 49.5074 37.6013 49.6465 37.5792 49.7867L36.7273 54.5577L32.1578 53.7426C33.9217 52.2593 35.752 50.8014 37.6583 49.3687ZM78.9865 28.7921C84.4079 27.4564 89.5853 26.7888 94.5158 26.7888C100.995 26.7888 106.109 27.958 109.865 30.2962C113.617 32.6345 116.049 36.3845 117.158 41.5461L106.524 47.1581C105.78 42.9664 103.778 39.788 100.52 37.6229C97.2614 35.4579 93.227 34.3752 88.4105 34.3752C87.7519 34.3752 87.0805 34.3929 86.3997 34.4287C84.1862 32.2713 81.7035 30.3729 78.9865 28.7921ZM60.699 39.4289C59.4387 38.5644 58.0105 37.9238 56.4208 37.5036C58.0992 36.633 59.787 35.8094 61.4812 35.032L60.699 39.4289ZM68.3496 32.1503C68.8911 32.5636 69.4137 33.0582 69.9172 33.6424C70.7563 34.6159 71.5164 35.8164 72.1877 37.2072C70.6899 37.6768 69.1572 38.2053 67.5833 38.7921C67.368 38.8725 67.1527 38.9536 66.9373 39.0353L68.1533 32.2247L68.3496 32.1503Z" fill="black"/>
<path d="M76.1013 84.3583L74.898 84.1436C75.3825 83.7778 75.8638 83.4067 76.3388 83.0311L76.1013 84.3583ZM65.949 77.2127L65.0275 82.382L73.1183 83.8257C74.3343 82.933 75.525 82.0083 76.6903 81.0526L77.3775 77.2127H65.949ZM62.7696 77.2127L61.9431 81.8319L50.8693 79.8556L55.1918 55.6322C55.404 54.4501 55.442 53.6413 55.3153 53.2056C55.1855 52.7698 54.8308 52.5 54.2482 52.3962C53.1588 52.2014 52.4368 53.095 52.0821 55.0774L47.7597 79.3005L36.6826 77.3245L41.4738 50.4822C42.0691 47.1544 43.5638 44.6156 45.9578 42.8664C48.3518 41.1171 51.1606 40.5297 54.378 41.1038C58.197 41.7853 60.8222 44.0643 62.2503 47.941C63.8432 46.2737 65.4296 45.1635 67.0098 44.6106C68.59 44.0577 70.4361 43.9693 72.5451 44.3459C75.8923 44.9431 78.2673 46.4552 79.6733 48.8827C81.0793 51.3103 81.4277 54.5064 80.7215 58.4708L79.1635 67.1953H67.7382L69.35 58.1585C69.5621 56.9584 69.6097 56.1458 69.4893 55.7205C69.3658 55.2956 69.0175 55.0311 68.4348 54.9273C67.3423 54.7325 66.633 55.5625 66.3005 57.4175L64.3055 68.606L58.9 75.0451C58.5706 75.4378 58.501 75.9863 58.7163 76.4508C58.9317 76.9157 59.4003 77.2127 59.9133 77.2127H62.7696ZM66.1833 75.8932L67.5007 68.5145H78.9292L77.6118 75.8932H66.1833ZM59.9133 75.8932L63.84 71.2131L63.004 75.8932H59.9133Z" fill="black"/>
<path fill-rule="evenodd" clip-rule="evenodd" d="M70.3542 87.3535L70.4935 87.3779C68.831 89.8175 67.0165 91.9021 65.0754 93.5491C69.6195 92.7948 73.904 91.0794 77.666 88.573C73.5842 91.5576 69.3314 94.2502 64.9139 96.6521C63.6852 97.3216 62.4565 97.959 61.2374 98.5635C58.6407 98.6627 55.9902 98.4866 53.3302 98.0113C52.1807 97.8067 51.0565 97.5508 49.9577 97.2468C53.2574 96.2009 56.652 94.8335 60.1417 93.1447C63.7169 91.4145 67.121 89.4837 70.3542 87.3535ZM93.5374 76.5381C88.3757 88.3425 77.3526 96.5698 64.7017 98.2659C64.9836 98.1161 65.2622 97.9647 65.5472 97.8114C75.7597 92.2581 85.0887 85.1679 93.5374 76.5381ZM47.703 96.546C50.3567 95.7962 53.0769 94.8281 55.8635 93.6432L57.3962 85.0412L53.9984 84.4345L52.4467 93.1305L50.8887 92.7264C50.1192 92.2039 49.3845 91.5452 48.6879 90.732C47.0412 88.8203 45.6542 86.0897 44.663 82.7691L40.9105 82.0991L41.4457 84.0858C42.0885 86.1644 42.8897 88.0654 43.8429 89.7583C39.6439 87.3649 36.0782 84.0773 33.3643 80.1864C32.7595 79.3168 32.199 78.4153 31.6797 77.4906L32.7595 77.6835C32.7089 77.3402 32.7247 76.9858 32.788 76.629L33.2123 74.2574L29.8557 73.6586C27.905 68.7683 27.1292 63.3537 27.8195 57.8069L35.8882 59.2468L36.4962 55.8483L28.4275 54.4085C29.6973 48.9649 32.3003 44.1529 35.8185 40.2389L41.7592 41.2991C42.3228 40.7028 42.9467 40.1635 43.6244 39.6698C44.2545 39.2088 44.9069 38.8044 45.5877 38.475L38.8554 37.2739C39.6629 36.5858 40.502 35.9341 41.3697 35.3277C45.2647 32.6139 49.7487 30.7623 54.5209 29.97C52.244 31.9017 50.1414 34.4353 48.254 37.437C49.6695 37.0367 51.1705 36.8809 52.7538 36.962L53.042 36.5621C55.0687 33.9103 57.2537 31.9235 59.3944 30.7322C60.3317 30.211 61.2469 29.8471 62.1494 29.6223C62.6814 29.6616 63.2166 29.7157 63.7517 29.7829L61.8675 40.3459C62.4217 40.8238 62.9347 41.3592 63.4097 41.9467C64.0209 41.5869 64.632 41.288 65.2464 41.0609L67.1495 30.3893C67.6752 30.5115 68.1945 30.6464 68.7075 30.793C69.4739 31.3168 70.2117 31.9742 70.9116 32.7874C72.5709 34.7156 73.9674 37.4772 74.9554 40.8367L76.4754 41.332C76.9472 41.5423 77.4222 41.7529 77.894 41.9631L78.9517 42.5809C78.7332 41.4907 78.4609 40.439 78.1506 39.4336C77.5077 37.355 76.7065 35.454 75.7534 33.7611C79.9524 36.1558 83.5181 39.4421 86.2319 43.3327C86.8367 44.2026 87.4004 45.1041 87.9165 46.0288L81.6655 44.9132C82.2102 45.5139 82.6821 46.1805 83.1001 46.899C83.4516 47.5061 83.7587 48.1498 83.9994 48.8367L89.7406 49.8614C91.6912 54.7514 92.4671 60.1661 91.7767 65.7128L83.708 64.2729L83.1856 67.1951H96.2195C99.1614 47.5532 85.9469 29.0206 66.266 25.5079C46.2432 21.9362 27.1197 35.2688 23.5445 55.2907C20.3208 73.3708 30.8785 90.7187 47.703 96.546ZM68.451 87.0137L66.7347 86.7075L66.5542 86.9574C65.8765 87.8463 65.1767 88.6604 64.4705 89.3948C65.8259 88.6329 67.1527 87.8393 68.451 87.0137ZM95.9979 68.5144C95.6876 70.175 95.2727 71.789 94.7565 73.3515C90.3327 78.0958 85.6587 82.3977 80.7282 86.256L80.7409 86.2455L79.6611 86.053C79.8257 85.7477 79.9365 85.4105 79.9999 85.0536L80.4211 82.6817L83.7777 83.2809C87.2991 79.3669 89.8989 74.5548 91.1687 69.1113L87.8247 68.5144H95.9979Z" fill="black"/>
<path d="M154.12 65.44V79.07C153.617 79.5727 152.767 80.172 151.568 80.868C150.369 81.564 149.171 82.144 147.972 82.608C144.84 83.9227 141.36 84.58 137.532 84.58C131.152 84.58 126.319 83.0333 123.032 79.94C119.784 76.808 118.16 72.284 118.16 66.368C118.16 60.452 119.823 55.928 123.148 52.796C126.512 49.6253 131.171 48.04 137.126 48.04C141.766 48.04 146 49.0067 149.828 50.94C150.717 51.3653 151.375 51.7327 151.8 52.042L152.38 52.506L149.828 57.668C148.011 56.8947 145.845 56.508 143.332 56.508C136.913 56.508 133.704 59.8333 133.704 66.484C133.704 69.9253 134.439 72.6127 135.908 74.546C137.377 76.4793 139.311 77.446 141.708 77.446C142.675 77.446 143.622 77.2527 144.55 76.866L143.216 71.298H138.924L140.084 65.44H154.12ZM169.905 60.278C171.954 57.2233 174.487 55.696 177.503 55.696C178.934 55.696 180.248 56.044 181.447 56.74L180.055 66.252C178.508 65.1693 176.768 64.628 174.835 64.628C172.979 64.628 171.722 65.4013 171.065 66.948C170.678 67.9147 170.427 68.8427 170.311 69.732L169.209 84H158.769L157.029 56.508H168.455L169.905 60.278ZM187.083 81.158C184.299 78.838 182.907 75.1647 182.907 70.138C182.907 65.1113 184.299 61.4573 187.083 59.176C189.906 56.856 193.656 55.696 198.335 55.696C203.014 55.696 206.745 56.856 209.529 59.176C212.352 61.4573 213.763 65.1113 213.763 70.138C213.763 75.1647 212.352 78.838 209.529 81.158C206.745 83.4393 203.014 84.58 198.335 84.58C193.656 84.58 189.906 83.4393 187.083 81.158ZM195.899 63.584C195.435 64.8987 195.203 67.0833 195.203 70.138C195.203 73.1927 195.435 75.3967 195.899 76.75C196.363 78.0647 197.175 78.722 198.335 78.722C199.495 78.722 200.307 78.0647 200.771 76.75C201.235 75.3967 201.467 73.1927 201.467 70.138C201.467 67.0833 201.235 64.8987 200.771 63.584C200.307 62.2307 199.495 61.554 198.335 61.554C197.175 61.554 196.363 62.2307 195.899 63.584ZM227.917 84.58C220.609 84.58 216.955 79.6113 216.955 69.674C216.955 67.006 217.4 62.6173 218.289 56.508H229.541V69.036C229.541 73.5213 230.798 75.764 233.311 75.764C235.515 75.764 236.617 73.7533 236.617 69.732C236.617 69.4227 236.617 69.094 236.617 68.746L236.095 56.508H249.145L247.927 84H238.125L237.487 78.664C237.41 78.8187 237.313 79.0313 237.197 79.302C237.081 79.5727 236.752 80.056 236.211 80.752C235.708 81.4093 235.128 82.0087 234.471 82.55C233.814 83.0527 232.905 83.5167 231.745 83.942C230.585 84.3673 229.309 84.58 227.917 84.58ZM273.344 84.58C271.179 84.58 269.381 84.0773 267.95 83.072C266.674 82.144 265.688 81.1967 264.992 80.23L264.238 93.918H254.32L252.638 56.508H265.108L265.746 59.756C265.94 59.4467 266.23 59.0793 266.616 58.654C267.042 58.19 267.912 57.5907 269.226 56.856C270.58 56.0827 271.972 55.696 273.402 55.696C274.833 55.696 276.167 55.9087 277.404 56.334C278.68 56.7593 279.918 57.4553 281.116 58.422C282.354 59.35 283.34 60.7807 284.074 62.714C284.848 64.6473 285.234 66.948 285.234 69.616C285.234 74.488 284.132 78.2 281.928 80.752C279.724 83.304 276.863 84.58 273.344 84.58ZM269.806 63.526C267.254 63.526 265.978 65.846 265.978 70.486C265.978 72.11 266.249 73.5407 266.79 74.778C267.37 76.0153 268.221 76.634 269.342 76.634C270.464 76.634 271.314 76.228 271.894 75.416C272.784 74.1787 273.228 72.5353 273.228 70.486C273.228 65.846 272.088 63.526 269.806 63.526ZM302.657 84L299.757 48.852H321.449L328.003 66.078L334.557 48.852H354.277L351.377 84H339.487L337.399 63.062L329.395 84H319.999L311.995 63.062L310.255 84H302.657ZM367.398 84.58C364.421 84.58 361.966 83.71 360.032 81.97C358.138 80.23 357.19 77.7747 357.19 74.604C357.19 71.3947 358.273 69.0747 360.438 67.644C362.604 66.1747 365.214 65.44 368.268 65.44C371.323 65.44 373.972 65.9233 376.214 66.89C375.712 63.6807 373.682 62.076 370.124 62.076C368.5 62.076 366.49 62.4047 364.092 63.062L362.642 57.842C366.122 56.4113 369.66 55.696 373.256 55.696C383.619 55.696 388.8 60.104 388.8 68.92C388.8 71.936 388.452 76.112 387.756 81.448L387.466 84H377.896L377.548 80.81C374.919 83.3233 371.536 84.58 367.398 84.58ZM372.618 77.388C374.358 77.388 375.847 76.9047 377.084 75.938L376.736 72.11C375.77 71.4527 374.687 71.124 373.488 71.124C372.328 71.124 371.362 71.414 370.588 71.994C369.854 72.574 369.486 73.2893 369.486 74.14C369.486 74.9907 369.776 75.7447 370.356 76.402C370.936 77.0593 371.69 77.388 372.618 77.388ZM414.182 55.696C416.888 55.696 419.208 56.8367 421.142 59.118C423.114 61.3993 424.1 64.3767 424.1 68.05C424.1 71.6847 423.655 77.0013 422.766 84H412.616L411.456 71.008C411.069 66.8707 409.948 64.802 408.092 64.802C405.888 64.802 404.708 66.89 404.554 71.066L404.148 84H393.476L392.258 56.508H405.366L405.134 61.438C405.327 61.0513 405.772 60.452 406.468 59.64C407.164 58.828 407.84 58.1707 408.498 57.668C410.199 56.3533 412.094 55.696 414.182 55.696ZM437.519 84.58C434.542 84.58 432.087 83.71 430.153 81.97C428.259 80.23 427.311 77.7747 427.311 74.604C427.311 71.3947 428.394 69.0747 430.559 67.644C432.725 66.1747 435.335 65.44 438.389 65.44C441.444 65.44 444.093 65.9233 446.335 66.89C445.833 63.6807 443.803 62.076 440.245 62.076C438.621 62.076 436.611 62.4047 434.213 63.062L432.763 57.842C436.243 56.4113 439.781 55.696 443.377 55.696C453.74 55.696 458.921 60.104 458.921 68.92C458.921 71.936 458.573 76.112 457.877 81.448L457.587 84H448.017L447.669 80.81C445.04 83.3233 441.657 84.58 437.519 84.58ZM442.739 77.388C444.479 77.388 445.968 76.9047 447.205 75.938L446.857 72.11C445.891 71.4527 444.808 71.124 443.609 71.124C442.449 71.124 441.483 71.414 440.709 71.994C439.975 72.574 439.607 73.2893 439.607 74.14C439.607 74.9907 439.897 75.7447 440.477 76.402C441.057 77.0593 441.811 77.388 442.739 77.388ZM478.967 94.73C477.072 94.73 475.216 94.44 473.399 93.86C471.581 93.3187 470.247 92.7773 469.397 92.236L468.121 91.366L470.673 86.146C472.335 86.958 473.882 87.364 475.313 87.364C477.942 87.364 479.875 86.5327 481.113 84.87C482.35 83.2073 482.969 81.2933 482.969 79.128C482.969 78.7413 482.949 78.3547 482.911 77.968C481.093 81.6027 478.116 83.42 473.979 83.42C470.344 83.42 467.444 82.318 465.279 80.114C463.152 77.91 462.089 74.4107 462.089 69.616C462.089 66.948 462.456 64.6473 463.191 62.714C463.964 60.7807 464.969 59.3307 466.207 58.364C468.488 56.5853 471.021 55.696 473.805 55.696C475.738 55.696 477.381 56.16 478.735 57.088C479.856 57.9 480.803 58.7893 481.577 59.756L481.229 56.508H494.685L493.699 79.07C493.196 89.51 488.285 94.73 478.967 94.73ZM477.517 63.526C475.235 63.526 474.095 65.6527 474.095 69.906C474.095 70.6793 474.153 71.4333 474.269 72.168C474.423 72.9027 474.791 73.6373 475.371 74.372C475.989 75.1067 476.859 75.474 477.981 75.474C479.102 75.474 479.933 74.9327 480.475 73.85C481.055 72.7673 481.345 71.4527 481.345 69.906C481.345 65.6527 480.069 63.526 477.517 63.526ZM513.03 84.58C508.661 84.58 504.988 83.3233 502.01 80.81C499.072 78.258 497.602 74.5267 497.602 69.616C497.602 66.5227 498.356 63.8933 499.864 61.728C502.61 57.7067 506.863 55.696 512.624 55.696C517.032 55.696 520.396 56.5853 522.716 58.364C525.036 60.104 526.196 62.5207 526.196 65.614C526.196 68.0113 525.23 69.964 523.296 71.472C521.402 72.9413 518.618 73.676 514.944 73.676C513.436 73.676 512.083 73.56 510.884 73.328L510.246 73.212C510.44 74.604 511.039 75.648 512.044 76.344C513.088 77.0013 514.326 77.33 515.756 77.33C518.115 77.33 520.126 76.6147 521.788 75.184L525.384 79.534C524.766 80.2687 524.031 80.9647 523.18 81.622C522.33 82.2407 520.976 82.898 519.12 83.594C517.264 84.2513 515.234 84.58 513.03 84.58ZM517.728 65.092C517.728 64.3187 517.419 63.6807 516.8 63.178C516.22 62.6753 515.408 62.424 514.364 62.424C513.32 62.424 512.334 62.888 511.406 63.816C510.517 64.744 510.072 65.846 510.072 67.122C510.923 67.5087 512.025 67.702 513.378 67.702C514.77 67.702 515.834 67.47 516.568 67.006C517.342 66.5033 517.728 65.8653 517.728 65.092ZM542.261 60.278C544.31 57.2233 546.843 55.696 549.859 55.696C551.289 55.696 552.604 56.044 553.803 56.74L552.411 66.252C550.864 65.1693 549.124 64.628 547.191 64.628C545.335 64.628 544.078 65.4013 543.421 66.948C543.034 67.9147 542.783 68.8427 542.667 69.732L541.565 84H531.125L529.385 56.508H540.811L542.261 60.278Z" fill="black"/>
</svg>
