<svg width="273" height="56" viewBox="0 0 273 56" fill="none" xmlns="http://www.w3.org/2000/svg">
<path fill-rule="evenodd" clip-rule="evenodd" d="M13.5324 44.5714L14.542 44.6015C18.406 44.6015 22.5873 43.5123 27.086 41.3342C31.5847 39.1559 35.5389 36.3312 38.9455 32.8597H26.974L30.0151 29.2351H46.1975C41.2944 35.0379 35.7053 39.6451 29.4302 43.0571C23.1566 46.4691 17.16 48.1749 11.4418 48.1749L10.5255 48.1548L13.5324 44.5714ZM8.20465 26.8845C8.27621 28.2821 8.50331 29.6498 8.87353 30.9661C7.61664 32.8508 6.77353 34.6689 6.34731 36.4205C5.72664 38.9646 6.14198 40.964 7.59331 42.419C8.88598 43.7151 10.8647 44.4338 13.5324 44.5714L10.5255 48.1548C4.18977 47.9573 0.983759 45.5967 0.907537 41.0789C0.848426 37.4372 2.82554 33.2255 6.83731 28.4437C7.27909 27.9184 7.73488 27.3986 8.20465 26.8845ZM13.9182 25.1128C13.1653 25.8226 12.456 26.5425 11.7902 27.2724C11.7171 26.438 11.7109 25.5888 11.7793 24.7311L13.9182 25.1128ZM16.0415 19.8302C16.0275 19.8983 16.0135 19.9666 16.0027 20.0355L15.5842 22.3791L13.3395 21.9787C14.206 21.2501 15.1051 20.5339 16.0415 19.8302ZM36.3431 9.72233C39.0062 9.06619 41.5495 8.73828 43.9715 8.73828C47.1542 8.73828 49.6664 9.31259 51.5113 10.4612C53.3547 11.6098 54.5493 13.4519 55.0938 15.9875L49.8702 18.7442C49.5046 16.6851 48.5215 15.1238 46.9209 14.0603C45.3202 12.9968 43.3384 12.4649 40.9724 12.4649C40.6489 12.4649 40.3191 12.4736 39.9846 12.4912C38.8973 11.4314 37.6778 10.4989 36.3431 9.72233ZM27.3598 14.9474C26.7407 14.5228 26.0391 14.2081 25.2582 14.0017C26.0827 13.574 26.9118 13.1694 27.744 12.7875L27.3598 14.9474ZM31.118 11.372C31.384 11.575 31.6407 11.818 31.888 12.105C32.3002 12.5831 32.6735 13.1729 33.0033 13.8561C32.2675 14.0867 31.5147 14.3464 30.7415 14.6346C30.6358 14.6741 30.53 14.7139 30.4242 14.7541L31.0215 11.4085L31.118 11.372Z" fill="black"/>
<path d="M34.9261 37.0184L34.335 36.9129C34.573 36.7332 34.8094 36.5509 35.0427 36.3664L34.9261 37.0184ZM29.939 33.5082L29.4863 36.0475L33.4607 36.7567C34.0581 36.3182 34.643 35.864 35.2154 35.3945L35.5529 33.5082H29.939ZM28.3772 33.5082L27.9712 35.7773L22.5314 34.8065L24.6547 22.9073C24.759 22.3266 24.7776 21.9293 24.7154 21.7153C24.6516 21.5012 24.4774 21.3687 24.1912 21.3177C23.6561 21.222 23.3014 21.661 23.1272 22.6348L21.0038 34.5338L15.5625 33.5632L17.9161 20.3775C18.2085 18.7428 18.9427 17.4957 20.1187 16.6364C21.2947 15.7771 22.6745 15.4885 24.2549 15.7706C26.1309 16.1053 27.4205 17.2248 28.1221 19.1292C28.9045 18.3102 29.6838 17.7648 30.4601 17.4932C31.2363 17.2216 32.1432 17.1782 33.1792 17.3631C34.8234 17.6565 35.9901 18.3993 36.6807 19.5918C37.3714 20.7843 37.5425 22.3543 37.1956 24.3017L36.4303 28.5874H30.8178L31.6096 24.1483C31.7138 23.5588 31.7372 23.1596 31.6781 22.9507C31.6174 22.7419 31.4463 22.612 31.1601 22.561C30.6234 22.4654 30.2749 22.8731 30.1116 23.7843L29.1316 29.2804L26.4763 32.4435C26.3145 32.6364 26.2803 32.9058 26.3861 33.134C26.4918 33.3623 26.7221 33.5082 26.9741 33.5082H28.3772ZM30.0541 32.8601L30.7012 29.2354H36.3152L35.6681 32.8601H30.0541ZM26.9741 32.8601L28.9029 30.5611L28.4923 32.8601H26.9741Z" fill="black"/>
<path fill-rule="evenodd" clip-rule="evenodd" d="M32.1025 38.4888L32.1709 38.5008C31.3542 39.6992 30.4629 40.7232 29.5094 41.5322C31.7416 41.1617 33.8462 40.319 35.6942 39.0878C33.6891 40.5539 31.6 41.8766 29.43 43.0565C28.8265 43.3854 28.2229 43.6985 27.624 43.9954C26.3485 44.0441 25.0465 43.9576 23.7398 43.7242C23.1751 43.6237 22.6229 43.498 22.0831 43.3486C23.704 42.8348 25.3716 42.1632 27.0858 41.3336C28.842 40.4836 30.5142 39.5352 32.1025 38.4888ZM43.4907 33.1759C40.9551 38.9746 35.5403 43.0161 29.3258 43.8492C29.4643 43.7757 29.6011 43.7013 29.7411 43.626C34.7578 40.898 39.3405 37.4151 43.4907 33.1759ZM20.9756 43.0044C22.2791 42.636 23.6154 42.1605 24.9842 41.5784L25.7371 37.3529L24.068 37.0549L23.3058 41.3266L22.5405 41.1281C22.1625 40.8714 21.8016 40.5479 21.4594 40.1484C20.6505 39.2093 19.9691 37.868 19.4822 36.2368L17.6389 35.9076L17.9018 36.8836C18.2176 37.9047 18.6111 38.8385 19.0794 39.6701C17.0167 38.4944 15.2651 36.8794 13.932 34.9681C13.6349 34.5409 13.3596 34.0981 13.1045 33.6438L13.6349 33.7386C13.61 33.57 13.6178 33.3959 13.6489 33.2206L13.8574 32.0556L12.2085 31.7615C11.2502 29.3592 10.8691 26.6994 11.2082 23.9747L15.1718 24.682L15.4705 23.0126L11.5069 22.3052C12.1307 19.6312 13.4094 17.2674 15.1376 15.3448L18.0558 15.8656C18.3327 15.5726 18.6391 15.3077 18.972 15.0652C19.2816 14.8387 19.602 14.6401 19.9365 14.4783L16.6294 13.8883C17.026 13.5503 17.4382 13.2301 17.8645 12.9322C19.7778 11.5991 21.9805 10.6896 24.3247 10.3004C23.2063 11.2493 22.1734 12.4939 21.2462 13.9684C21.9416 13.7718 22.6789 13.6952 23.4567 13.7351L23.5982 13.5386C24.5938 12.236 25.6671 11.26 26.7187 10.6748C27.1791 10.4188 27.6287 10.24 28.072 10.1296C28.3334 10.1489 28.5963 10.1755 28.8591 10.2085L27.9336 15.3973C28.2058 15.6321 28.4578 15.8951 28.6911 16.1837C28.9914 16.007 29.2916 15.8601 29.5934 15.7486L30.5282 10.5064C30.7865 10.5664 31.0416 10.6327 31.2936 10.7047C31.67 10.962 32.0325 11.2849 32.3763 11.6844C33.1914 12.6316 33.8774 13.9882 34.3627 15.6384L35.1094 15.8817C35.3411 15.985 35.5745 16.0885 35.8062 16.1918L36.3258 16.4952C36.2185 15.9597 36.0847 15.4431 35.9322 14.9492C35.6165 13.9281 35.2229 12.9943 34.7547 12.1627C36.8173 13.339 38.5689 14.9534 39.902 16.8645C40.1991 17.2918 40.476 17.7347 40.7296 18.1889L37.6589 17.6409C37.9265 17.936 38.1582 18.2634 38.3636 18.6164C38.5362 18.9146 38.6871 19.2308 38.8054 19.5682L41.6256 20.0716C42.5838 22.4737 42.9649 25.1336 42.6258 27.8583L38.6622 27.151L38.4056 28.5864H44.8082C46.2533 18.9378 39.762 9.83405 30.0942 8.10847C20.2585 6.35396 10.8645 12.9033 9.10824 22.7386C7.52468 31.6201 12.7109 40.1419 20.9756 43.0044ZM31.1676 38.3219L30.3245 38.1714L30.2358 38.2942C29.9029 38.7308 29.5591 39.1308 29.2122 39.4915C29.878 39.1172 30.5298 38.7274 31.1676 38.3219ZM44.6994 29.2345C44.5469 30.0502 44.3431 30.8431 44.0896 31.6106C41.9165 33.9411 39.6205 36.0543 37.1985 37.9496L37.2047 37.9445L36.6743 37.8499C36.7551 37.7 36.8096 37.5343 36.8407 37.359L37.0476 36.1939L38.6965 36.4882C40.4263 34.5655 41.7034 32.2017 42.3271 29.5277L40.6845 29.2345H44.6994Z" fill="black"/>
<path d="M74.4148 25.1193C74.2727 24.6591 74.0767 24.2472 73.8267 23.8835C73.5824 23.5142 73.2869 23.1989 72.9403 22.9375C72.5994 22.6761 72.2074 22.4801 71.7642 22.3494C71.321 22.2131 70.8381 22.1449 70.3153 22.1449C69.3778 22.1449 68.5426 22.3807 67.8097 22.8523C67.0767 23.3239 66.5 24.017 66.0795 24.9318C65.6648 25.8409 65.4574 26.9489 65.4574 28.2557C65.4574 29.5739 65.6648 30.6903 66.0795 31.6051C66.4943 32.5199 67.071 33.2159 67.8097 33.6932C68.5483 34.1648 69.4063 34.4006 70.3835 34.4006C71.2699 34.4006 72.0369 34.2301 72.6847 33.8892C73.3381 33.5483 73.8409 33.0653 74.1932 32.4403C74.5455 31.8097 74.7216 31.071 74.7216 30.2244L75.4375 30.3352H70.6989V27.8636H77.7812V29.9602C77.7812 31.4545 77.4631 32.7472 76.8267 33.8381C76.1903 34.929 75.3153 35.7699 74.2017 36.3608C73.0881 36.946 71.8097 37.2386 70.3665 37.2386C68.7585 37.2386 67.3466 36.8778 66.1307 36.1562C64.9205 35.429 63.9744 34.3977 63.2926 33.0625C62.6165 31.7216 62.2784 30.1307 62.2784 28.2898C62.2784 26.8807 62.4773 25.6222 62.875 24.5142C63.2784 23.4062 63.8409 22.4659 64.5625 21.6932C65.2841 20.9148 66.1307 20.3239 67.1023 19.9205C68.0739 19.5114 69.1307 19.3068 70.2727 19.3068C71.2386 19.3068 72.1392 19.4489 72.9744 19.733C73.8097 20.0114 74.5511 20.4091 75.1989 20.9261C75.8523 21.4432 76.3892 22.0568 76.8097 22.767C77.2301 23.4773 77.5057 24.2614 77.6364 25.1193H74.4148ZM80.7024 37V23.9091H83.6939V26.0909H83.8303C84.0689 25.3352 84.478 24.7528 85.0575 24.3438C85.6428 23.929 86.3104 23.7216 87.0604 23.7216C87.2308 23.7216 87.4212 23.7301 87.6314 23.7472C87.8473 23.7585 88.0263 23.7784 88.1683 23.8068V26.6449C88.0376 26.5994 87.8303 26.5597 87.5462 26.5256C87.2678 26.4858 86.9979 26.4659 86.7365 26.4659C86.174 26.4659 85.6683 26.5881 85.2195 26.8324C84.7763 27.071 84.4268 27.4034 84.1712 27.8295C83.9155 28.2557 83.7876 28.7472 83.7876 29.304V37H80.7024ZM95.3892 37.2557C94.1108 37.2557 93.0028 36.9744 92.0653 36.4119C91.1278 35.8494 90.4006 35.0625 89.8835 34.0511C89.3722 33.0398 89.1165 31.858 89.1165 30.5057C89.1165 29.1534 89.3722 27.9687 89.8835 26.9517C90.4006 25.9347 91.1278 25.1449 92.0653 24.5824C93.0028 24.0199 94.1108 23.7386 95.3892 23.7386C96.6676 23.7386 97.7756 24.0199 98.7131 24.5824C99.6506 25.1449 100.375 25.9347 100.886 26.9517C101.403 27.9687 101.662 29.1534 101.662 30.5057C101.662 31.858 101.403 33.0398 100.886 34.0511C100.375 35.0625 99.6506 35.8494 98.7131 36.4119C97.7756 36.9744 96.6676 37.2557 95.3892 37.2557ZM95.4062 34.7841C96.0994 34.7841 96.679 34.5937 97.1449 34.2131C97.6108 33.8267 97.9574 33.3097 98.1847 32.6619C98.4176 32.0142 98.5341 31.2926 98.5341 30.4972C98.5341 29.696 98.4176 28.9716 98.1847 28.3239C97.9574 27.6705 97.6108 27.1506 97.1449 26.7642C96.679 26.3778 96.0994 26.1847 95.4062 26.1847C94.696 26.1847 94.1051 26.3778 93.6335 26.7642C93.1676 27.1506 92.8182 27.6705 92.5852 28.3239C92.358 28.9716 92.2443 29.696 92.2443 30.4972C92.2443 31.2926 92.358 32.0142 92.5852 32.6619C92.8182 33.3097 93.1676 33.8267 93.6335 34.2131C94.1051 34.5937 94.696 34.7841 95.4062 34.7841ZM112.624 31.4943V23.9091H115.71V37H112.718V34.6733H112.582C112.286 35.4062 111.8 36.0057 111.124 36.4716C110.454 36.9375 109.627 37.1705 108.644 37.1705C107.786 37.1705 107.028 36.9801 106.369 36.5994C105.715 36.2131 105.204 35.6534 104.835 34.9205C104.465 34.1818 104.281 33.2898 104.281 32.2443V23.9091H107.366V31.767C107.366 32.5966 107.593 33.2557 108.048 33.7443C108.502 34.233 109.099 34.4773 109.837 34.4773C110.292 34.4773 110.732 34.3665 111.158 34.1449C111.585 33.9233 111.934 33.5938 112.207 33.1562C112.485 32.7131 112.624 32.1591 112.624 31.4943ZM118.882 41.9091V23.9091H121.916V26.0739H122.095C122.254 25.7557 122.479 25.4176 122.768 25.0597C123.058 24.696 123.45 24.3864 123.945 24.1307C124.439 23.8693 125.07 23.7386 125.837 23.7386C126.848 23.7386 127.76 23.9972 128.572 24.5142C129.391 25.0256 130.038 25.7841 130.516 26.7898C130.999 27.7898 131.24 29.017 131.24 30.4716C131.24 31.9091 131.004 33.1307 130.533 34.1364C130.061 35.142 129.419 35.9091 128.607 36.4375C127.794 36.9659 126.874 37.2301 125.845 37.2301C125.095 37.2301 124.473 37.1051 123.979 36.8551C123.484 36.6051 123.087 36.304 122.786 35.9517C122.49 35.5937 122.26 35.2557 122.095 34.9375H121.967V41.9091H118.882ZM121.908 30.4545C121.908 31.3011 122.027 32.0426 122.266 32.679C122.51 33.3153 122.859 33.8125 123.314 34.1705C123.774 34.5227 124.331 34.6989 124.984 34.6989C125.666 34.6989 126.237 34.517 126.697 34.1534C127.158 33.7841 127.504 33.2812 127.737 32.6449C127.976 32.0028 128.095 31.2727 128.095 30.4545C128.095 29.642 127.979 28.9205 127.746 28.2898C127.513 27.6591 127.166 27.1648 126.706 26.8068C126.246 26.4489 125.672 26.2699 124.984 26.2699C124.325 26.2699 123.766 26.4432 123.305 26.7898C122.845 27.1364 122.496 27.6222 122.257 28.2472C122.024 28.8722 121.908 29.608 121.908 30.4545ZM141.817 28.4602V31H133.959V28.4602H141.817ZM145.198 19.5455H149.067L154.249 32.1932H154.454L159.636 19.5455H163.505V37H160.471V25.0085H160.309L155.485 36.9489H153.218L148.394 24.983H148.232V37H145.198V19.5455ZM170.579 37.2642C169.749 37.2642 169.002 37.1165 168.337 36.821C167.678 36.5199 167.156 36.0767 166.769 35.4915C166.388 34.9062 166.198 34.1847 166.198 33.3267C166.198 32.5881 166.335 31.9773 166.607 31.4943C166.88 31.0114 167.252 30.625 167.724 30.3352C168.195 30.0455 168.727 29.8267 169.317 29.679C169.914 29.5256 170.531 29.4148 171.167 29.3466C171.934 29.267 172.556 29.196 173.033 29.1335C173.511 29.0653 173.857 28.9631 174.073 28.8267C174.295 28.6847 174.406 28.4659 174.406 28.1705V28.1193C174.406 27.4773 174.215 26.9801 173.835 26.6278C173.454 26.2756 172.906 26.0994 172.19 26.0994C171.434 26.0994 170.835 26.2642 170.391 26.5938C169.954 26.9233 169.658 27.3125 169.505 27.7614L166.624 27.3523C166.852 26.5568 167.227 25.892 167.749 25.358C168.272 24.8182 168.911 24.4148 169.667 24.1477C170.423 23.875 171.258 23.7386 172.173 23.7386C172.803 23.7386 173.431 23.8125 174.056 23.9602C174.681 24.108 175.252 24.3523 175.769 24.6932C176.286 25.0284 176.701 25.4858 177.013 26.0653C177.332 26.6449 177.491 27.3693 177.491 28.2386V37H174.525V35.2017H174.423C174.235 35.5653 173.971 35.9062 173.63 36.2244C173.295 36.5369 172.871 36.7898 172.36 36.983C171.854 37.1705 171.261 37.2642 170.579 37.2642ZM171.38 34.9972C171.999 34.9972 172.536 34.875 172.991 34.6307C173.445 34.3807 173.795 34.0511 174.039 33.642C174.289 33.233 174.414 32.7869 174.414 32.304V30.7614C174.317 30.8409 174.153 30.9148 173.92 30.983C173.692 31.0511 173.437 31.1108 173.153 31.1619C172.869 31.2131 172.587 31.2585 172.309 31.2983C172.031 31.3381 171.789 31.3722 171.585 31.4006C171.124 31.4631 170.712 31.5653 170.349 31.7074C169.985 31.8494 169.698 32.0483 169.488 32.304C169.278 32.554 169.173 32.8778 169.173 33.2756C169.173 33.8438 169.38 34.2727 169.795 34.5625C170.21 34.8523 170.738 34.9972 171.38 34.9972ZM183.678 29.3295V37H180.593V23.9091H183.542V26.1335H183.695C183.996 25.4006 184.477 24.8182 185.136 24.3864C185.8 23.9545 186.621 23.7386 187.599 23.7386C188.502 23.7386 189.289 23.9318 189.96 24.3182C190.636 24.7045 191.158 25.2642 191.528 25.9972C191.903 26.7301 192.087 27.6193 192.082 28.6648V37H188.996V29.142C188.996 28.267 188.769 27.5824 188.315 27.0881C187.866 26.5937 187.244 26.3466 186.448 26.3466C185.908 26.3466 185.428 26.4659 185.008 26.7045C184.593 26.9375 184.266 27.2756 184.028 27.7188C183.795 28.1619 183.678 28.6989 183.678 29.3295ZM198.985 37.2642C198.156 37.2642 197.408 37.1165 196.744 36.821C196.085 36.5199 195.562 36.0767 195.175 35.4915C194.795 34.9062 194.604 34.1847 194.604 33.3267C194.604 32.5881 194.741 31.9773 195.013 31.4943C195.286 31.0114 195.658 30.625 196.13 30.3352C196.602 30.0455 197.133 29.8267 197.724 29.679C198.32 29.5256 198.937 29.4148 199.573 29.3466C200.34 29.267 200.962 29.196 201.44 29.1335C201.917 29.0653 202.263 28.9631 202.479 28.8267C202.701 28.6847 202.812 28.4659 202.812 28.1705V28.1193C202.812 27.4773 202.621 26.9801 202.241 26.6278C201.86 26.2756 201.312 26.0994 200.596 26.0994C199.84 26.0994 199.241 26.2642 198.798 26.5938C198.36 26.9233 198.065 27.3125 197.911 27.7614L195.031 27.3523C195.258 26.5568 195.633 25.892 196.156 25.358C196.678 24.8182 197.317 24.4148 198.073 24.1477C198.829 23.875 199.664 23.7386 200.579 23.7386C201.21 23.7386 201.837 23.8125 202.462 23.9602C203.087 24.108 203.658 24.3523 204.175 24.6932C204.692 25.0284 205.107 25.4858 205.42 26.0653C205.738 26.6449 205.897 27.3693 205.897 28.2386V37H202.931V35.2017H202.829C202.641 35.5653 202.377 35.9062 202.036 36.2244C201.701 36.5369 201.278 36.7898 200.766 36.983C200.261 37.1705 199.667 37.2642 198.985 37.2642ZM199.786 34.9972C200.406 34.9972 200.942 34.875 201.397 34.6307C201.852 34.3807 202.201 34.0511 202.445 33.642C202.695 33.233 202.82 32.7869 202.82 32.304V30.7614C202.724 30.8409 202.559 30.9148 202.326 30.983C202.099 31.0511 201.843 31.1108 201.559 31.1619C201.275 31.2131 200.994 31.2585 200.715 31.2983C200.437 31.3381 200.195 31.3722 199.991 31.4006C199.531 31.4631 199.119 31.5653 198.755 31.7074C198.391 31.8494 198.104 32.0483 197.894 32.304C197.684 32.554 197.579 32.8778 197.579 33.2756C197.579 33.8438 197.786 34.2727 198.201 34.5625C198.616 34.8523 199.144 34.9972 199.786 34.9972ZM214.692 42.1818C213.585 42.1818 212.633 42.0313 211.837 41.7301C211.042 41.4347 210.403 41.0369 209.92 40.5369C209.437 40.0369 209.102 39.483 208.914 38.875L211.692 38.2017C211.817 38.4574 211.999 38.7102 212.238 38.9602C212.477 39.2159 212.798 39.4261 213.201 39.5909C213.61 39.7614 214.124 39.8466 214.744 39.8466C215.619 39.8466 216.343 39.6335 216.917 39.2074C217.491 38.7869 217.778 38.0938 217.778 37.1278V34.6477H217.624C217.465 34.9659 217.232 35.2926 216.925 35.6278C216.624 35.9631 216.224 36.2443 215.724 36.4716C215.229 36.6989 214.607 36.8125 213.857 36.8125C212.852 36.8125 211.94 36.5767 211.121 36.1051C210.309 35.6278 209.661 34.9176 209.178 33.9744C208.701 33.0256 208.462 31.8381 208.462 30.4119C208.462 28.9744 208.701 27.7614 209.178 26.7727C209.661 25.7784 210.312 25.0256 211.13 24.5142C211.948 23.9972 212.86 23.7386 213.866 23.7386C214.633 23.7386 215.263 23.8693 215.758 24.1307C216.258 24.3864 216.656 24.696 216.951 25.0597C217.246 25.4176 217.471 25.7557 217.624 26.0739H217.795V23.9091H220.837V37.2131C220.837 38.3324 220.57 39.2585 220.036 39.9915C219.502 40.7244 218.772 41.2727 217.846 41.6364C216.92 42 215.869 42.1818 214.692 42.1818ZM214.718 34.392C215.371 34.392 215.928 34.233 216.388 33.9148C216.849 33.5966 217.198 33.1392 217.437 32.5426C217.675 31.946 217.795 31.2301 217.795 30.3949C217.795 29.571 217.675 28.8494 217.437 28.2301C217.204 27.6108 216.857 27.1307 216.397 26.7898C215.942 26.4432 215.383 26.2699 214.718 26.2699C214.031 26.2699 213.457 26.4489 212.996 26.8068C212.536 27.1648 212.19 27.6562 211.957 28.2812C211.724 28.9006 211.607 29.6051 211.607 30.3949C211.607 31.196 211.724 31.8977 211.957 32.5C212.195 33.0966 212.545 33.5625 213.005 33.8977C213.471 34.2273 214.042 34.392 214.718 34.392ZM229.795 37.2557C228.482 37.2557 227.349 36.983 226.394 36.4375C225.445 35.8864 224.715 35.108 224.204 34.1023C223.692 33.0909 223.437 31.9006 223.437 30.5312C223.437 29.1847 223.692 28.0028 224.204 26.9858C224.721 25.9631 225.442 25.1676 226.369 24.5994C227.295 24.0256 228.383 23.7386 229.633 23.7386C230.44 23.7386 231.201 23.8693 231.917 24.1307C232.638 24.3864 233.275 24.7841 233.826 25.3239C234.383 25.8636 234.82 26.5511 235.138 27.3864C235.457 28.2159 235.616 29.2045 235.616 30.3523V31.2983H224.886V29.2188H232.658C232.653 28.6278 232.525 28.1023 232.275 27.642C232.025 27.1761 231.675 26.8097 231.227 26.5426C230.783 26.2756 230.266 26.142 229.675 26.142C229.045 26.142 228.491 26.2955 228.013 26.6023C227.536 26.9034 227.164 27.3011 226.897 27.7955C226.636 28.2841 226.502 28.821 226.496 29.4062V31.2216C226.496 31.983 226.636 32.6364 226.914 33.1818C227.192 33.7216 227.582 34.1364 228.082 34.4261C228.582 34.7102 229.167 34.8523 229.837 34.8523C230.286 34.8523 230.692 34.7898 231.056 34.6648C231.42 34.5341 231.735 34.3438 232.002 34.0938C232.269 33.8438 232.471 33.5341 232.607 33.1648L235.488 33.4886C235.306 34.25 234.96 34.9148 234.448 35.483C233.942 36.0455 233.295 36.483 232.505 36.7955C231.715 37.1023 230.812 37.2557 229.795 37.2557ZM238.226 37V23.9091H241.217V26.0909H241.354C241.592 25.3352 242.001 24.7528 242.581 24.3438C243.166 23.929 243.834 23.7216 244.584 23.7216C244.754 23.7216 244.945 23.7301 245.155 23.7472C245.371 23.7585 245.55 23.7784 245.692 23.8068V26.6449C245.561 26.5994 245.354 26.5597 245.07 26.5256C244.791 26.4858 244.521 26.4659 244.26 26.4659C243.697 26.4659 243.192 26.5881 242.743 26.8324C242.3 27.071 241.95 27.4034 241.695 27.8295C241.439 28.2557 241.311 28.7472 241.311 29.304V37H238.226ZM255.09 28.4602V31H247.232V28.4602H255.09ZM264.401 37.2386C263.174 37.2386 262.083 37.0284 261.129 36.608C260.18 36.1875 259.43 35.6023 258.879 34.8523C258.327 34.1023 258.035 33.2358 258.001 32.2528H261.205C261.234 32.7244 261.39 33.1364 261.674 33.4886C261.958 33.8352 262.336 34.1051 262.808 34.2983C263.279 34.4915 263.808 34.5881 264.393 34.5881C265.018 34.5881 265.572 34.4801 266.055 34.2642C266.538 34.0426 266.915 33.7358 267.188 33.3438C267.461 32.9517 267.594 32.5 267.589 31.9886C267.594 31.4602 267.458 30.9943 267.18 30.5909C266.901 30.1875 266.498 29.8722 265.969 29.6449C265.447 29.4176 264.816 29.304 264.077 29.304H262.535V26.8665H264.077C264.685 26.8665 265.217 26.7614 265.671 26.5511C266.131 26.3409 266.492 26.0455 266.754 25.6648C267.015 25.2784 267.143 24.8324 267.137 24.3267C267.143 23.8324 267.032 23.4034 266.805 23.0398C266.583 22.6705 266.268 22.3835 265.859 22.179C265.455 21.9744 264.981 21.8722 264.435 21.8722C263.901 21.8722 263.407 21.9687 262.952 22.1619C262.498 22.3551 262.131 22.6307 261.853 22.9886C261.575 23.3409 261.427 23.7614 261.41 24.25H258.367C258.39 23.2727 258.671 22.4148 259.211 21.6761C259.756 20.9318 260.484 20.3523 261.393 19.9375C262.302 19.517 263.322 19.3068 264.452 19.3068C265.617 19.3068 266.629 19.5256 267.487 19.9631C268.35 20.3949 269.018 20.9773 269.489 21.7102C269.961 22.4432 270.197 23.2528 270.197 24.1392C270.202 25.1222 269.913 25.946 269.327 26.6108C268.748 27.2756 267.987 27.7102 267.043 27.9148V28.0511C268.271 28.2216 269.211 28.6761 269.864 29.4148C270.523 30.1477 270.85 31.0597 270.844 32.1506C270.844 33.1278 270.566 34.0028 270.009 34.7756C269.458 35.5426 268.697 36.1449 267.725 36.5824C266.759 37.0199 265.651 37.2386 264.401 37.2386Z" fill="black"/>
</svg>
