<svg width="125" height="24" viewBox="0 0 125 24" fill="none" xmlns="http://www.w3.org/2000/svg">
<path d="M0.721591 18V0.545454H3.88352V7.93466H11.9716V0.545454H15.142V18H11.9716V10.5852H3.88352V18H0.721591ZM24.1548 18.2557C22.8764 18.2557 21.7685 17.9744 20.831 17.4119C19.8935 16.8494 19.1662 16.0625 18.6491 15.0511C18.1378 14.0398 17.8821 12.858 17.8821 11.5057C17.8821 10.1534 18.1378 8.96875 18.6491 7.9517C19.1662 6.93466 19.8935 6.14489 20.831 5.58239C21.7685 5.01989 22.8764 4.73864 24.1548 4.73864C25.4332 4.73864 26.5412 5.01989 27.4787 5.58239C28.4162 6.14489 29.1406 6.93466 29.652 7.9517C30.169 8.96875 30.4276 10.1534 30.4276 11.5057C30.4276 12.858 30.169 14.0398 29.652 15.0511C29.1406 16.0625 28.4162 16.8494 27.4787 17.4119C26.5412 17.9744 25.4332 18.2557 24.1548 18.2557ZM24.1719 15.7841C24.8651 15.7841 25.4446 15.5937 25.9105 15.2131C26.3764 14.8267 26.723 14.3097 26.9503 13.6619C27.1832 13.0142 27.2997 12.2926 27.2997 11.4972C27.2997 10.696 27.1832 9.97159 26.9503 9.32386C26.723 8.67045 26.3764 8.15057 25.9105 7.7642C25.4446 7.37784 24.8651 7.18466 24.1719 7.18466C23.4616 7.18466 22.8707 7.37784 22.3991 7.7642C21.9332 8.15057 21.5838 8.67045 21.3509 9.32386C21.1236 9.97159 21.0099 10.696 21.0099 11.4972C21.0099 12.2926 21.1236 13.0142 21.3509 13.6619C21.5838 14.3097 21.9332 14.8267 22.3991 15.2131C22.8707 15.5937 23.4616 15.7841 24.1719 15.7841ZM33.0462 18V4.90909H35.995V7.13352H36.1484C36.4212 6.38352 36.8729 5.7983 37.5036 5.37784C38.1342 4.9517 38.8871 4.73864 39.7621 4.73864C40.6484 4.73864 41.3956 4.95455 42.0036 5.38636C42.6172 5.8125 43.049 6.39489 43.299 7.13352H43.4354C43.7251 6.40625 44.2138 5.8267 44.9013 5.39489C45.5945 4.95739 46.4155 4.73864 47.3643 4.73864C48.5689 4.73864 49.5518 5.11932 50.3132 5.88068C51.0746 6.64205 51.4553 7.75284 51.4553 9.21307V18H48.3615V9.69034C48.3615 8.87784 48.1456 8.28409 47.7138 7.90909C47.282 7.52841 46.7536 7.33807 46.1286 7.33807C45.3842 7.33807 44.8018 7.57102 44.3814 8.03693C43.9666 8.49716 43.7592 9.09659 43.7592 9.83523V18H40.7337V9.5625C40.7337 8.88636 40.5291 8.34659 40.12 7.94318C39.7166 7.53977 39.1882 7.33807 38.5348 7.33807C38.0916 7.33807 37.6882 7.4517 37.3246 7.67898C36.9609 7.90057 36.6712 8.21591 36.4553 8.625C36.2393 9.02841 36.1314 9.5 36.1314 10.0398V18H33.0462ZM60.3807 18.2557C59.0682 18.2557 57.9347 17.983 56.9801 17.4375C56.0313 16.8864 55.3011 16.108 54.7898 15.1023C54.2784 14.0909 54.0227 12.9006 54.0227 11.5312C54.0227 10.1847 54.2784 9.00284 54.7898 7.9858C55.3068 6.96307 56.0284 6.16761 56.9545 5.59943C57.8807 5.02557 58.9688 4.73864 60.2188 4.73864C61.0256 4.73864 61.7869 4.86932 62.5028 5.13068C63.2244 5.38636 63.8608 5.78409 64.4119 6.32386C64.9688 6.86364 65.4063 7.55114 65.7244 8.38636C66.0426 9.21591 66.2017 10.2045 66.2017 11.3523V12.2983H55.4716V10.2188H63.2443C63.2386 9.62784 63.1108 9.10227 62.8608 8.64205C62.6108 8.17614 62.2614 7.80966 61.8125 7.54261C61.3693 7.27557 60.8523 7.14205 60.2614 7.14205C59.6307 7.14205 59.0767 7.29545 58.5994 7.60227C58.1222 7.90341 57.75 8.30114 57.483 8.79545C57.2216 9.28409 57.0881 9.82102 57.0824 10.4062V12.2216C57.0824 12.983 57.2216 13.6364 57.5 14.1818C57.7784 14.7216 58.1676 15.1364 58.6676 15.4261C59.1676 15.7102 59.7528 15.8523 60.4233 15.8523C60.8722 15.8523 61.2784 15.7898 61.642 15.6648C62.0057 15.5341 62.321 15.3438 62.5881 15.0938C62.8551 14.8438 63.0568 14.5341 63.1932 14.1648L66.0739 14.4886C65.892 15.25 65.5455 15.9148 65.0341 16.483C64.5284 17.0455 63.8807 17.483 63.0909 17.7955C62.3011 18.1023 61.3977 18.2557 60.3807 18.2557ZM68.9482 18V0.545454H75.4936C76.8345 0.545454 77.9595 0.795454 78.8686 1.29545C79.7834 1.79545 80.4737 2.48295 80.9396 3.35795C81.4112 4.22727 81.647 5.21591 81.647 6.32386C81.647 7.44318 81.4112 8.4375 80.9396 9.30682C80.468 10.1761 79.772 10.8608 78.8516 11.3608C77.9311 11.8551 76.7976 12.1023 75.451 12.1023H71.1129V9.50284H75.0249C75.8089 9.50284 76.451 9.36648 76.951 9.09375C77.451 8.82102 77.8203 8.44602 78.0589 7.96875C78.3033 7.49148 78.4254 6.94318 78.4254 6.32386C78.4254 5.70455 78.3033 5.15909 78.0589 4.6875C77.8203 4.21591 77.4482 3.84943 76.9425 3.58807C76.4425 3.32102 75.7976 3.1875 75.0078 3.1875H72.1101V18H68.9482ZM87.7898 18.2642C86.9602 18.2642 86.2131 18.1165 85.5483 17.821C84.8892 17.5199 84.3665 17.0767 83.9801 16.4915C83.5994 15.9062 83.4091 15.1847 83.4091 14.3267C83.4091 13.5881 83.5455 12.9773 83.8182 12.4943C84.0909 12.0114 84.4631 11.625 84.9347 11.3352C85.4063 11.0455 85.9375 10.8267 86.5284 10.679C87.125 10.5256 87.7415 10.4148 88.3778 10.3466C89.1449 10.267 89.767 10.196 90.2443 10.1335C90.7216 10.0653 91.0682 9.96307 91.2841 9.8267C91.5057 9.68466 91.6165 9.46591 91.6165 9.17045V9.11932C91.6165 8.47727 91.4261 7.98011 91.0455 7.62784C90.6648 7.27557 90.1165 7.09943 89.4006 7.09943C88.6449 7.09943 88.0455 7.2642 87.6023 7.59375C87.1648 7.9233 86.8693 8.3125 86.7159 8.76136L83.8352 8.35227C84.0625 7.55682 84.4375 6.89205 84.9602 6.35795C85.483 5.81818 86.1222 5.41477 86.8778 5.14773C87.6335 4.875 88.4688 4.73864 89.3835 4.73864C90.0142 4.73864 90.642 4.8125 91.267 4.96023C91.892 5.10795 92.4631 5.35227 92.9801 5.69318C93.4972 6.02841 93.9119 6.4858 94.2244 7.06534C94.5426 7.64489 94.7017 8.36932 94.7017 9.23864V18H91.7358V16.2017H91.6335C91.446 16.5653 91.1818 16.9062 90.8409 17.2244C90.5057 17.5369 90.0824 17.7898 89.571 17.983C89.0653 18.1705 88.4716 18.2642 87.7898 18.2642ZM88.5909 15.9972C89.2102 15.9972 89.7472 15.875 90.2017 15.6307C90.6563 15.3807 91.0057 15.0511 91.25 14.642C91.5 14.233 91.625 13.7869 91.625 13.304V11.7614C91.5284 11.8409 91.3636 11.9148 91.1307 11.983C90.9034 12.0511 90.6477 12.1108 90.3636 12.1619C90.0795 12.2131 89.7983 12.2585 89.5199 12.2983C89.2415 12.3381 89 12.3722 88.7955 12.4006C88.3352 12.4631 87.9233 12.5653 87.5597 12.7074C87.196 12.8494 86.9091 13.0483 86.6989 13.304C86.4886 13.554 86.3835 13.8778 86.3835 14.2756C86.3835 14.8438 86.5909 15.2727 87.0057 15.5625C87.4205 15.8523 87.9489 15.9972 88.5909 15.9972ZM103.497 23.1818C102.389 23.1818 101.438 23.0313 100.642 22.7301C99.8466 22.4347 99.2074 22.0369 98.7244 21.5369C98.2415 21.0369 97.9062 20.483 97.7188 19.875L100.497 19.2017C100.622 19.4574 100.804 19.7102 101.043 19.9602C101.281 20.2159 101.602 20.4261 102.006 20.5909C102.415 20.7614 102.929 20.8466 103.548 20.8466C104.423 20.8466 105.148 20.6335 105.722 20.2074C106.295 19.7869 106.582 19.0938 106.582 18.1278V15.6477H106.429C106.27 15.9659 106.037 16.2926 105.73 16.6278C105.429 16.9631 105.028 17.2443 104.528 17.4716C104.034 17.6989 103.412 17.8125 102.662 17.8125C101.656 17.8125 100.744 17.5767 99.9261 17.1051C99.1136 16.6278 98.4659 15.9176 97.983 14.9744C97.5057 14.0256 97.267 12.8381 97.267 11.4119C97.267 9.97443 97.5057 8.76136 97.983 7.77273C98.4659 6.77841 99.1165 6.02557 99.9347 5.5142C100.753 4.99716 101.665 4.73864 102.67 4.73864C103.438 4.73864 104.068 4.86932 104.562 5.13068C105.062 5.38636 105.46 5.69602 105.756 6.05966C106.051 6.41761 106.276 6.75568 106.429 7.07386H106.599V4.90909H109.642V18.2131C109.642 19.3324 109.375 20.2585 108.841 20.9915C108.307 21.7244 107.577 22.2727 106.651 22.6364C105.724 23 104.673 23.1818 103.497 23.1818ZM103.523 15.392C104.176 15.392 104.733 15.233 105.193 14.9148C105.653 14.5966 106.003 14.1392 106.241 13.5426C106.48 12.946 106.599 12.2301 106.599 11.3949C106.599 10.571 106.48 9.84943 106.241 9.23011C106.009 8.6108 105.662 8.13068 105.202 7.78977C104.747 7.44318 104.188 7.26989 103.523 7.26989C102.835 7.26989 102.261 7.44886 101.801 7.80682C101.341 8.16477 100.994 8.65625 100.761 9.28125C100.528 9.90057 100.412 10.6051 100.412 11.3949C100.412 12.196 100.528 12.8977 100.761 13.5C101 14.0966 101.349 14.5625 101.81 14.8977C102.276 15.2273 102.847 15.392 103.523 15.392ZM118.599 18.2557C117.287 18.2557 116.153 17.983 115.199 17.4375C114.25 16.8864 113.52 16.108 113.009 15.1023C112.497 14.0909 112.241 12.9006 112.241 11.5312C112.241 10.1847 112.497 9.00284 113.009 7.9858C113.526 6.96307 114.247 6.16761 115.173 5.59943C116.099 5.02557 117.188 4.73864 118.438 4.73864C119.244 4.73864 120.006 4.86932 120.722 5.13068C121.443 5.38636 122.08 5.78409 122.631 6.32386C123.188 6.86364 123.625 7.55114 123.943 8.38636C124.261 9.21591 124.42 10.2045 124.42 11.3523V12.2983H113.69V10.2188H121.463C121.457 9.62784 121.33 9.10227 121.08 8.64205C120.83 8.17614 120.48 7.80966 120.031 7.54261C119.588 7.27557 119.071 7.14205 118.48 7.14205C117.849 7.14205 117.295 7.29545 116.818 7.60227C116.341 7.90341 115.969 8.30114 115.702 8.79545C115.44 9.28409 115.307 9.82102 115.301 10.4062V12.2216C115.301 12.983 115.44 13.6364 115.719 14.1818C115.997 14.7216 116.386 15.1364 116.886 15.4261C117.386 15.7102 117.972 15.8523 118.642 15.8523C119.091 15.8523 119.497 15.7898 119.861 15.6648C120.224 15.5341 120.54 15.3438 120.807 15.0938C121.074 14.8438 121.276 14.5341 121.412 14.1648L124.293 14.4886C124.111 15.25 123.764 15.9148 123.253 16.483C122.747 17.0455 122.099 17.483 121.31 17.7955C120.52 18.1023 119.616 18.2557 118.599 18.2557Z" fill="black"/>
</svg>
