<svg width="610" height="126" viewBox="0 0 610 126" fill="none" xmlns="http://www.w3.org/2000/svg">
<g clip-path="url(#clip0_800_1310)">
<g clip-path="url(#clip1_800_1310)">
<path fill-rule="evenodd" clip-rule="evenodd" d="M48.0114 99.3838C48.0103 99.3873 48.0066 99.3893 48.0031 99.3883C48.0002 99.3874 47.9973 99.3865 47.9944 99.3856C47.986 99.3831 47.9814 99.3742 47.9841 99.3658L47.9846 99.3643C48.7885 96.7385 49.395 94.3833 49.8022 92.1739C49.9808 91.2048 48.7875 90.4523 47.8187 90.6327C47.5271 90.6869 47.2274 90.719 46.9214 90.727C43.7851 90.8089 41.1762 88.3332 41.0941 85.1969C41.0121 82.0605 43.488 79.4517 46.6243 79.3696C46.9276 79.3616 47.2259 79.3777 47.5174 79.416C48.4941 79.5443 49.6447 78.7301 49.4158 77.772C48.9661 75.8895 48.3648 73.9036 47.608 71.7361C47.4048 71.1542 47.7022 70.5133 48.2834 70.308C50.4484 69.543 52.4326 68.9352 54.3155 68.4823C55.2752 68.2514 56.0915 69.4078 55.9614 70.3864C55.9222 70.6814 55.9057 70.9834 55.9137 71.2905C55.9958 74.4269 58.6049 76.9029 61.7413 76.8209C64.8777 76.7388 67.3537 74.1297 67.2717 70.9933C67.2637 70.6901 67.2322 70.3931 67.1788 70.104C66.9997 69.1335 67.7564 67.9377 68.7265 68.1191C70.9271 68.5305 73.2752 69.1399 75.8927 69.9437C75.8956 69.9446 75.8986 69.9457 75.9016 69.9469V69.9469C75.9064 69.9487 75.9092 69.9541 75.9076 69.959C75.0981 72.5719 74.4905 74.9235 74.0852 77.136C73.9079 78.1041 75.0988 78.8528 76.0661 78.6713C76.3596 78.6163 76.6613 78.5838 76.9694 78.5757C80.1058 78.4936 82.7156 80.9694 82.7976 84.1058C82.8797 87.2422 80.4029 89.8511 77.2665 89.9331C76.9673 89.9409 76.673 89.9254 76.3852 89.8883C75.41 89.7625 74.2649 90.5763 74.4931 91.5327C75.0145 93.7175 75.7377 96.0386 76.666 98.6134C76.6661 98.6137 76.6662 98.6141 76.6662 98.6144V98.6144C76.6662 98.6159 76.6653 98.6172 76.664 98.6176L76.643 98.6253C74.075 99.5425 71.7655 100.258 69.5947 100.774C68.641 101.001 67.8302 99.8645 67.9539 98.892C67.9901 98.6076 68.0051 98.3168 67.9974 98.0213C67.9404 95.8538 66.6766 94.0016 64.866 93.0913C64.0522 92.6784 63.1271 92.4561 62.1509 92.4817C59.0145 92.5637 56.5385 95.1728 56.6205 98.3092C56.6285 98.6151 56.6606 98.9147 56.7148 99.2063C56.8943 100.172 56.1472 101.357 55.1808 101.182C53.6366 100.901 52.0218 100.524 50.2935 100.051C49.5567 99.8449 48.7998 99.6211 48.0197 99.3794C48.0162 99.3783 48.0124 99.3803 48.0114 99.3838V99.3838Z" fill="#BBDAFF"/>
<path d="M47.9846 99.3643L49.0546 99.6919L49.052 99.7004L49.0492 99.709L47.9846 99.3643ZM46.9214 90.727L46.9507 91.8457L46.9506 91.8457L46.9214 90.727ZM41.0941 85.1969L39.9755 85.2261L39.9755 85.2261L41.0941 85.1969ZM46.6243 79.3696L46.595 78.2509L46.595 78.2509L46.6243 79.3696ZM75.8927 69.9437L75.5665 71.0141L75.5642 71.0134L75.8927 69.9437ZM76.9694 78.5757L76.94 77.457L76.9401 77.457L76.9694 78.5757ZM82.7976 84.1058L83.9163 84.0765L83.9163 84.0765L82.7976 84.1058ZM77.2665 89.9331L77.2958 91.0518L77.2957 91.0518L77.2665 89.9331ZM76.643 98.6253L77.0246 99.6773L77.0195 99.6791L76.643 98.6253ZM67.9974 98.0213L69.116 97.9919L69.116 97.992L67.9974 98.0213ZM64.866 93.0913L64.3633 94.0911L64.3596 94.0892L64.866 93.0913ZM50.2935 100.051L49.9978 101.13L49.9926 101.128L50.2935 100.051ZM67.9539 98.892L69.064 99.0332L67.9539 98.892ZM76.3852 89.8883L76.242 90.9982L76.3852 89.8883ZM74.4931 91.5327L73.4047 91.7925L74.4931 91.5327ZM74.0852 77.136L72.9845 76.9344L74.0852 77.136ZM75.9076 69.959L76.9766 70.2902L75.9076 69.959ZM67.1788 70.104L68.2793 69.9009L67.1788 70.104ZM68.7265 68.1191L68.9322 67.0191L68.7265 68.1191ZM48.0197 99.3794L47.6885 100.448L48.0197 99.3794ZM55.9614 70.3864L54.8521 70.2389L55.9614 70.3864ZM47.5174 79.416L47.6632 78.3065L47.5174 79.416ZM47.608 71.7361L46.5515 72.105L47.608 71.7361ZM48.2834 70.308L47.9106 69.2528L48.2834 70.308ZM47.8187 90.6327L47.6139 89.5325L47.8187 90.6327ZM48.0031 99.3883L47.6785 100.459L48.0031 99.3883ZM76.666 98.6134L75.6133 98.9929L76.666 98.6134ZM76.664 98.6176L77.0455 99.6697L76.664 98.6176ZM47.9944 99.3856L47.6698 100.457L47.9944 99.3856ZM47.9841 99.3658L49.0487 99.7105L47.9841 99.3658ZM47.9944 99.3856L48.3191 98.3147C48.3219 98.3156 48.3248 98.3164 48.3276 98.3173L48.0031 99.3883L47.6785 100.459C47.6756 100.458 47.6727 100.457 47.6698 100.457L47.9944 99.3856ZM47.9846 99.3643L49.0492 99.709L49.0487 99.7105L47.9841 99.3658L46.9194 99.0211L46.92 99.0195L47.9846 99.3643ZM49.8022 92.1739L50.9027 92.3767C50.4855 94.6405 49.8668 97.039 49.0546 99.6919L47.9846 99.3643L46.9146 99.0367C47.7102 96.4379 48.3045 94.1261 48.7017 91.9711L49.8022 92.1739ZM46.9214 90.727L46.8922 89.6083C47.139 89.6019 47.38 89.576 47.6139 89.5325L47.8187 90.6327L48.0234 91.7328C47.6741 91.7978 47.3158 91.8361 46.9507 91.8457L46.9214 90.727ZM41.0941 85.1969L42.2128 85.1676C42.2787 87.686 44.3736 89.6741 46.8922 89.6083L46.9214 90.727L46.9506 91.8457C43.1966 91.9437 40.0737 88.9803 39.9755 85.2261L41.0941 85.1969ZM46.6243 79.3696L46.6536 80.4882C44.1351 80.5542 42.1469 82.6491 42.2128 85.1676L41.0941 85.1969L39.9755 85.2261C39.8772 81.4719 42.8409 78.3493 46.595 78.2509L46.6243 79.3696ZM47.5174 79.416L47.3716 80.5255C47.1379 80.4948 46.8981 80.4818 46.6536 80.4882L46.6243 79.3696L46.595 78.2509C46.957 78.2414 47.3139 78.2606 47.6632 78.3065L47.5174 79.416ZM47.608 71.7361L48.6645 71.3672C49.4303 73.5606 50.0437 75.5838 50.5042 77.512L49.4158 77.772L48.3274 78.032C47.8886 76.1952 47.2992 74.2466 46.5515 72.105L47.608 71.7361ZM54.3155 68.4823L54.5772 69.5703C52.7412 70.012 50.7951 70.6074 48.6562 71.3631L48.2834 70.308L47.9106 69.2528C50.1017 68.4787 52.124 67.8585 54.0537 67.3942L54.3155 68.4823ZM55.9137 71.2905L54.7951 71.3198C54.7855 70.9534 54.8051 70.5923 54.8521 70.2389L55.9614 70.3864L57.0707 70.5338C57.0392 70.7705 57.0259 71.0134 57.0324 71.2612L55.9137 71.2905ZM61.7413 76.8209L61.7705 77.9395C58.0163 78.0378 54.8933 75.074 54.7951 71.3198L55.9137 71.2905L57.0324 71.2612C57.0983 73.7798 59.1934 75.7681 61.712 75.7022L61.7413 76.8209ZM67.2717 70.9933L68.3903 70.9641C68.4885 74.7183 65.5248 77.8413 61.7705 77.9395L61.7413 76.8209L61.712 75.7022C64.2306 75.6363 66.2189 73.5412 66.153 71.0226L67.2717 70.9933ZM67.1788 70.104L68.2793 69.9009C68.3432 70.2472 68.3809 70.6023 68.3903 70.9641L67.2717 70.9933L66.153 71.0226C66.1466 70.7779 66.1212 70.539 66.0783 70.307L67.1788 70.104ZM75.8927 69.9437L75.5642 71.0134C72.9731 70.2177 70.6678 69.6205 68.5208 69.2191L68.7265 68.1191L68.9322 67.0191C71.1865 67.4406 73.5773 68.062 76.2212 68.8739L75.8927 69.9437ZM75.9016 69.9469L75.4986 70.9909C75.4956 70.9897 75.5034 70.9927 75.5129 70.9962C75.5233 71 75.5422 71.0067 75.5665 71.0141L75.8927 69.9437L76.2189 68.8732C76.2461 68.8815 76.268 68.8893 76.2814 68.8942C76.2883 68.8967 76.294 68.8988 76.2977 68.9002C76.3011 68.9016 76.3042 68.9027 76.3045 68.9029L75.9016 69.9469ZM74.0852 77.136L72.9845 76.9344C73.4 74.666 74.0203 72.2696 74.8387 69.6279L75.9076 69.959L76.9766 70.2902C76.176 72.8742 75.581 75.1811 75.1859 77.3376L74.0852 77.136ZM76.9694 78.5757L76.9987 79.6943C76.7502 79.7009 76.5077 79.7271 76.2724 79.7712L76.0661 78.6713L75.8599 77.5714C76.2115 77.5055 76.5723 77.4667 76.94 77.457L76.9694 78.5757ZM82.7976 84.1058L81.679 84.1351C81.6131 81.6168 79.5175 79.6285 76.9986 79.6944L76.9694 78.5757L76.9401 77.457C80.6941 77.3588 83.8181 80.3221 83.9163 84.0765L82.7976 84.1058ZM77.2665 89.9331L77.2372 88.8145C79.7561 88.7486 81.7448 86.6534 81.679 84.1351L82.7976 84.1058L83.9163 84.0765C84.0145 87.831 81.0497 90.9536 77.2958 91.0518L77.2665 89.9331ZM76.3852 89.8883L76.5284 88.7785C76.7592 88.8082 76.9959 88.8208 77.2373 88.8145L77.2665 89.9331L77.2957 91.0518C76.9387 91.0611 76.5867 91.0426 76.242 90.9982L76.3852 89.8883ZM76.666 98.6134L75.6133 98.9929C74.6755 96.3921 73.9385 94.0295 73.4047 91.7925L74.4931 91.5327L75.5816 91.273C76.0906 93.4056 76.7998 95.6852 77.7187 98.2338L76.666 98.6134ZM76.643 98.6253L76.2615 97.5732L76.2825 97.5656L76.664 98.6176L77.0455 99.6697L77.0245 99.6773L76.643 98.6253ZM69.5947 100.774L69.3357 99.6857C71.4551 99.1815 73.7238 98.4797 76.2666 97.5714L76.643 98.6253L77.0195 99.6791C74.4263 100.605 72.0759 101.334 69.8537 101.863L69.5947 100.774ZM67.9539 98.892L66.8438 98.7509C66.8728 98.5227 66.8849 98.2889 66.8787 98.0506L67.9974 98.0213L69.116 97.992C69.1253 98.3447 69.1073 98.6925 69.064 99.0332L67.9539 98.892ZM67.9974 98.0213L66.8787 98.0507C66.833 96.3117 65.8202 94.8235 64.3633 94.0911L64.866 93.0913L65.3686 92.0915C67.533 93.1796 69.0479 95.3959 69.116 97.9919L67.9974 98.0213ZM62.1509 92.4817L62.1216 91.363C63.2882 91.3325 64.3969 91.5985 65.3723 92.0933L64.866 93.0913L64.3596 94.0892C63.7075 93.7584 62.966 93.5798 62.1802 93.6003L62.1509 92.4817ZM56.6205 98.3092L55.5018 98.3385C55.4036 94.5842 58.3674 91.4612 62.1216 91.363L62.1509 92.4817L62.1802 93.6003C59.6616 93.6662 57.6733 95.7614 57.7392 98.2799L56.6205 98.3092ZM56.7148 99.2063L55.6146 99.4109C55.5496 99.0616 55.5114 98.7034 55.5018 98.3385L56.6205 98.3092L57.7392 98.2799C57.7456 98.5268 57.7715 98.7678 57.815 99.0017L56.7148 99.2063ZM50.2935 100.051L50.5892 98.9713C52.2927 99.438 53.875 99.8074 55.3807 100.081L55.1808 101.182L54.9809 102.283C53.3982 101.996 51.7509 101.61 49.9978 101.13L50.2935 100.051ZM50.2935 100.051L49.9926 101.128C49.2446 100.92 48.4776 100.693 47.6885 100.448L48.0197 99.3794L48.3509 98.3105C49.1221 98.5494 49.8688 98.7702 50.5944 98.9728L50.2935 100.051ZM69.5947 100.774L69.8537 101.863C68.8305 102.106 67.9849 101.584 67.5016 100.988C67.023 100.399 66.7394 99.5715 66.8438 98.7509L67.9539 98.892L69.064 99.0332C69.0555 99.1001 69.061 99.1931 69.0939 99.3003C69.1267 99.4073 69.1796 99.5044 69.239 99.5775C69.2993 99.6518 69.3474 99.6789 69.362 99.6853C69.3668 99.6874 69.3503 99.6822 69.3357 99.6857L69.5947 100.774ZM76.3852 89.8883L76.242 90.9982C76.1749 90.9895 76.0811 90.9949 75.9728 91.028C75.8646 91.061 75.7662 91.1144 75.6919 91.1745C75.6165 91.2356 75.5887 91.2844 75.5821 91.2996C75.5799 91.3047 75.5852 91.288 75.5816 91.273L74.4931 91.5327L73.4047 91.7925C73.1596 90.7654 73.6871 89.9178 74.2838 89.4348C74.8751 88.9563 75.7057 88.6723 76.5284 88.7785L76.3852 89.8883ZM74.0852 77.136L75.1859 77.3376C75.1888 77.3221 75.1825 77.3049 75.1846 77.3091C75.1917 77.3231 75.2216 77.37 75.3003 77.4266C75.3777 77.4824 75.4789 77.5301 75.589 77.557C75.6992 77.5839 75.7933 77.5839 75.8599 77.5714L76.0661 78.6713L76.2724 79.7712C75.4565 79.9242 74.6103 79.6877 73.9925 79.2429C73.3689 78.7938 72.7938 77.9754 72.9845 76.9344L74.0852 77.136ZM75.9016 69.9469L76.3043 68.9028C76.834 69.1071 77.1599 69.6984 76.9766 70.2902L75.9076 69.959L74.8387 69.6279C74.6584 70.2098 74.9789 70.7903 75.4988 70.9909L75.9016 69.9469ZM67.1788 70.104L66.0783 70.307C65.9273 69.4885 66.1681 68.6406 66.6155 68.023C67.0668 67.4001 67.8888 66.824 68.9322 67.0191L68.7265 68.1191L68.5208 69.2191C68.5367 69.222 68.5537 69.2156 68.5487 69.2181C68.5337 69.2256 68.4857 69.2563 68.4279 69.3361C68.3711 69.4146 68.3224 69.517 68.2948 69.6281C68.2673 69.7394 68.267 69.8341 68.2793 69.9009L67.1788 70.104ZM48.0197 99.3794L47.6885 100.448C48.276 100.63 48.9019 100.301 49.0819 99.7098L48.0114 99.3838L46.9408 99.0578C47.123 98.4596 47.7564 98.1263 48.3509 98.3105L48.0197 99.3794ZM54.3155 68.4823L54.0537 67.3942C55.0863 67.1458 55.9368 67.6798 56.4191 68.2793C56.8972 68.8737 57.1804 69.7085 57.0707 70.5338L55.9614 70.3864L54.8521 70.2389C54.8611 70.1716 54.856 70.077 54.8228 69.9672C54.7897 69.8576 54.7359 69.7577 54.6752 69.6822C54.6135 69.6055 54.5641 69.5773 54.5489 69.5707C54.544 69.5685 54.5614 69.5741 54.5772 69.5703L54.3155 68.4823ZM56.7148 99.2063L57.815 99.0017C57.9665 99.8163 57.7298 100.66 57.2849 101.277C56.8358 101.899 56.019 102.471 54.9809 102.283L55.1808 101.182L55.3807 100.081C55.3654 100.078 55.3487 100.084 55.353 100.082C55.3671 100.075 55.4137 100.045 55.4701 99.9671C55.5255 99.8902 55.5731 99.7897 55.5999 99.6804C55.6268 99.5709 55.6269 99.4773 55.6146 99.4109L56.7148 99.2063ZM47.5174 79.416L47.6632 78.3065C47.7304 78.3153 47.8246 78.3101 47.9336 78.2771C48.0424 78.2441 48.1415 78.1906 48.2163 78.1302C48.2923 78.0689 48.3203 78.0199 48.3269 78.0047C48.3291 77.9997 48.3237 78.0166 48.3274 78.032L49.4158 77.772L50.5042 77.512C50.7502 78.5416 50.2194 79.3902 49.6211 79.8726C49.0281 80.3506 48.1955 80.6337 47.3716 80.5255L47.5174 79.416ZM47.608 71.7361L46.5515 72.105C46.1508 70.9574 46.7321 69.6692 47.9106 69.2528L48.2834 70.308L48.6562 71.3631C48.6558 71.3632 48.6567 71.3629 48.6582 71.362C48.6598 71.3611 48.6612 71.36 48.6623 71.3589C48.6646 71.3569 48.6648 71.3559 48.6643 71.3569C48.6637 71.3581 48.6634 71.3596 48.6633 71.3609C48.6632 71.3615 48.6633 71.3621 48.6634 71.3628C48.6635 71.3635 48.6637 71.3649 48.6645 71.3672L47.608 71.7361ZM49.8022 92.1739L48.7017 91.9711C48.6988 91.9868 48.7051 92.0037 48.7027 91.9989C48.6954 91.9842 48.6649 91.9368 48.5856 91.8795C48.5076 91.8232 48.4058 91.775 48.2952 91.7478C48.1845 91.7206 48.0901 91.7204 48.0234 91.7328L47.8187 90.6327L47.6139 89.5325C48.4311 89.3804 49.2781 89.619 49.8958 90.065C50.5191 90.515 51.0947 91.3348 50.9027 92.3767L49.8022 92.1739ZM48.0031 99.3883L48.3276 98.3173C47.7402 98.1393 47.1196 98.4707 46.9408 99.0578L48.0114 99.3838L49.0819 99.7098C48.9009 100.304 48.273 100.639 47.6785 100.459L48.0031 99.3883ZM76.666 98.6134L77.7187 98.2338C77.7591 98.3458 77.7817 98.4644 77.7849 98.5852L76.6662 98.6144L75.5475 98.6437C75.5507 98.7638 75.5731 98.8816 75.6133 98.9929L76.666 98.6134ZM76.6662 98.6144L77.7849 98.5852C77.7975 99.0681 77.4997 99.505 77.0455 99.6697L76.664 98.6176L76.2825 97.5656C75.831 97.7294 75.535 98.1636 75.5475 98.6437L76.6662 98.6144ZM47.9944 99.3856L47.6698 100.457C47.062 100.272 46.7239 99.6251 46.9194 99.0211L47.9841 99.3658L49.0487 99.7105C49.2389 99.1232 48.9101 98.4939 48.3191 98.3147L47.9944 99.3856Z" fill="#535353"/>
<path d="M44.6381 49.255C44.4629 50.2213 45.6479 50.9681 46.6134 50.7886C46.9044 50.7345 47.2034 50.7025 47.5088 50.6944C50.6452 50.6124 53.255 53.0882 53.337 56.2246C53.419 59.3609 50.9423 61.9698 47.8059 62.0519C47.5076 62.0597 47.2141 62.0442 46.9272 62.0072C45.9539 61.8815 44.8135 62.6917 45.0399 63.6467C45.556 65.8243 46.272 68.1413 47.1925 70.7184C47.1949 70.7249 47.1968 70.7318 47.1991 70.7384C47.1996 70.7397 47.2009 70.7406 47.2023 70.7406V70.7406C47.2027 70.7406 47.203 70.7405 47.2034 70.7404C49.7789 69.8118 52.1007 69.0886 54.2862 68.5673C55.2426 68.3391 56.0559 69.484 55.9296 70.4591C55.8924 70.747 55.8768 71.0415 55.8846 71.3409C55.9668 74.4771 58.5766 76.953 61.7129 76.871C64.849 76.7887 67.325 74.1798 67.243 71.0437C67.235 70.7355 67.2024 70.4337 67.1473 70.1401C66.9657 69.1728 67.7142 67.9821 68.6823 68.1595C70.8927 68.5643 73.2419 69.1711 75.8518 69.9795C75.8611 69.9824 75.8713 69.9773 75.8741 69.968V69.968C76.6784 67.3489 77.2863 64.9994 77.6968 62.7975C77.8776 61.8275 76.6828 61.0723 75.7126 61.252C75.4238 61.3055 75.127 61.3371 74.824 61.345C71.6878 61.427 69.0789 58.9511 68.9967 55.8149C68.9147 52.6785 71.3905 50.0688 74.5269 49.9866C74.8332 49.9786 75.1344 49.9951 75.4288 50.0342C76.4069 50.1643 77.5622 49.3488 77.3318 48.3894C76.8796 46.5066 76.2732 44.5225 75.5087 42.3578C75.3035 41.7766 74.6626 41.4792 74.0807 41.6824C71.9134 42.4392 69.9277 43.0409 68.0455 43.4907C67.0871 43.7197 66.2734 42.5688 66.4023 41.592C66.4409 41.3 66.4571 41.0013 66.4491 40.6976C66.3668 37.5616 63.7579 35.0857 60.6218 35.1675C57.4856 35.2495 55.0089 37.8586 55.0907 40.9948C55.0987 41.3011 55.1309 41.6011 55.1854 41.893C55.3662 42.8618 54.6143 44.0552 53.6451 43.8766C51.4351 43.4695 49.0792 42.8632 46.4525 42.059V42.059C46.4439 42.0563 46.4346 42.0616 46.432 42.0702C45.6368 44.6932 45.0384 47.0464 44.6381 49.255Z" fill="#D7E9FF"/>
<path d="M47.5088 50.6944L47.4794 49.5758L47.4795 49.5758L47.5088 50.6944ZM53.337 56.2246L54.4557 56.1953L54.4557 56.1953L53.337 56.2246ZM47.8059 62.0519L47.8352 63.1706L47.8351 63.1706L47.8059 62.0519ZM47.1925 70.7184L46.1422 71.1046L46.1387 71.0948L47.1925 70.7184ZM55.8846 71.3409L54.7659 71.3702L54.7659 71.3701L55.8846 71.3409ZM61.7129 76.871L61.7422 77.9897L61.7421 77.9897L61.7129 76.871ZM67.243 71.0437L68.3617 71.0144L68.3617 71.0145L67.243 71.0437ZM74.824 61.345L74.8533 62.4637L74.8532 62.4637L74.824 61.345ZM68.9967 55.8149L67.8781 55.8442L67.8781 55.8442L68.9967 55.8149ZM74.5269 49.9866L74.4976 48.868L74.4976 48.868L74.5269 49.9866ZM66.4491 40.6976L67.5678 40.6683L67.5678 40.6684L66.4491 40.6976ZM60.6218 35.1675L60.5926 34.0488L60.5927 34.0488L60.6218 35.1675ZM55.0907 40.9948L53.972 41.0241L53.972 41.024L55.0907 40.9948ZM55.1854 41.893L56.2855 41.6876L55.1854 41.893ZM53.6451 43.8766L53.4424 44.9772L53.6451 43.8766ZM75.5087 42.3578L74.4535 42.7304L75.5087 42.3578ZM74.0807 41.6824L74.4496 42.7389L74.0807 41.6824ZM75.8518 69.9795L75.5207 71.0485L75.8518 69.9795ZM75.4288 50.0342L75.5763 48.9249L75.4288 50.0342ZM77.3318 48.3894L78.4199 48.128L77.3318 48.3894ZM55.9296 70.4591L54.8199 70.3154L55.9296 70.4591ZM47.2034 70.7404L47.5829 71.7931L47.2034 70.7404ZM47.1991 70.7384L48.2565 70.3719L47.1991 70.7384ZM77.6968 62.7975L78.7969 63.0026L77.6968 62.7975ZM75.7126 61.252L75.5089 60.1517L75.7126 61.252ZM46.432 42.0702L47.5029 42.3949L46.432 42.0702ZM45.0399 63.6467L46.1287 63.3886L45.0399 63.6467ZM46.6134 50.7886L46.818 51.8888L46.6134 50.7886ZM46.6134 50.7886L46.4087 49.6884C46.7574 49.6236 47.115 49.5853 47.4794 49.5758L47.5088 50.6944L47.5381 51.8131C47.2918 51.8196 47.0514 51.8454 46.818 51.8888L46.6134 50.7886ZM47.5088 50.6944L47.4795 49.5758C51.2335 49.4776 54.3575 52.4408 54.4557 56.1953L53.337 56.2246L52.2184 56.2538C52.1525 53.7355 50.0569 51.7472 47.538 51.8131L47.5088 50.6944ZM53.337 56.2246L54.4557 56.1953C54.5539 59.9497 51.5891 63.0723 47.8352 63.1706L47.8059 62.0519L47.7766 60.9332C50.2954 60.8673 52.2842 58.7721 52.2184 56.2538L53.337 56.2246ZM47.8059 62.0519L47.8351 63.1706C47.4789 63.1799 47.1278 63.1614 46.784 63.117L46.9272 62.0072L47.0705 60.8973C47.3005 60.927 47.5363 60.9395 47.7767 60.9332L47.8059 62.0519ZM45.0399 63.6467L46.1287 63.3886C46.6326 65.5146 47.335 67.7905 48.2464 70.3419L47.1925 70.7184L46.1387 71.0948C45.209 68.492 44.4793 66.134 43.951 63.9048L45.0399 63.6467ZM47.1925 70.7184L48.2428 70.3321C48.2485 70.3478 48.253 70.361 48.2561 70.3702C48.2591 70.3792 48.2615 70.3866 48.2623 70.3894C48.2626 70.3902 48.2628 70.3909 48.2629 70.3913C48.2631 70.3918 48.2631 70.3919 48.2632 70.392C48.2632 70.3922 48.263 70.3914 48.2625 70.39C48.2617 70.3875 48.2596 70.3808 48.2565 70.3719L47.1991 70.7384L46.1418 71.1048C46.1376 71.0927 46.1343 71.0826 46.1324 71.0767C46.1314 71.0737 46.1306 71.0712 46.1301 71.0697C46.1299 71.069 46.1297 71.0683 46.1296 71.0679C46.1294 71.0675 46.1294 71.0674 46.1294 71.0673C46.1292 71.0667 46.1305 71.0708 46.1324 71.0764C46.1343 71.0823 46.1377 71.0922 46.1422 71.1046L47.1925 70.7184ZM47.2034 70.7404L46.8238 69.6877C49.4255 68.7496 51.7888 68.0126 54.0265 67.4788L54.2862 68.5673L54.5458 69.6558C52.4125 70.1647 50.1322 70.8739 47.5829 71.7931L47.2034 70.7404ZM55.9296 70.4591L57.0394 70.6027C57.0095 70.8336 56.997 71.0703 57.0033 71.3116L55.8846 71.3409L54.7659 71.3701C54.7566 71.0127 54.7752 70.6604 54.8199 70.3154L55.9296 70.4591ZM55.8846 71.3409L57.0033 71.3115C57.0693 73.8298 59.1649 75.8182 61.6836 75.7523L61.7129 76.871L61.7421 77.9897C57.9882 78.0879 54.8643 75.1244 54.7659 71.3702L55.8846 71.3409ZM61.7129 76.871L61.6835 75.7523C64.2019 75.6862 66.1901 73.5912 66.1244 71.0729L67.243 71.0437L68.3617 71.0145C68.4598 74.7684 65.496 77.8911 61.7422 77.9897L61.7129 76.871ZM67.243 71.0437L66.1244 71.073C66.1179 70.8245 66.0916 70.582 66.0474 70.3465L67.1473 70.1401L68.2471 69.9337C68.3132 70.2855 68.3521 70.6465 68.3617 71.0144L67.243 71.0437ZM68.6823 68.1595L68.8839 67.0587C71.1501 67.4738 73.5441 68.0932 76.1829 68.9106L75.8518 69.9795L75.5207 71.0485C72.9397 70.249 70.6352 69.6548 68.4807 69.2602L68.6823 68.1595ZM75.8741 69.968L74.8044 69.6395C75.6004 67.0473 76.1962 64.7407 76.5967 62.5924L77.6968 62.7975L78.7969 63.0026C78.3764 65.2582 77.7564 67.6506 76.9439 70.2965L75.8741 69.968ZM75.7126 61.252L75.9164 62.3523C75.5702 62.4164 75.2151 62.4543 74.8533 62.4637L74.824 61.345L74.7947 60.2264C75.0389 60.22 75.2774 60.1945 75.5089 60.1517L75.7126 61.252ZM74.824 61.345L74.8532 62.4637C71.0992 62.5618 67.9764 59.5982 67.8781 55.8442L68.9967 55.8149L70.1154 55.7856C70.1814 58.304 72.2763 60.2922 74.7948 60.2264L74.824 61.345ZM68.9967 55.8149L67.8781 55.8442C67.7798 52.0902 70.7432 48.9663 74.4976 48.868L74.5269 49.9866L74.5562 51.1053C72.0378 51.1712 70.0495 53.2669 70.1154 55.7856L68.9967 55.8149ZM74.5269 49.9866L74.4976 48.868C74.8632 48.8584 75.2236 48.878 75.5763 48.9249L75.4288 50.0342L75.2813 51.1435C75.0452 51.1121 74.8031 51.0988 74.5561 51.1053L74.5269 49.9866ZM77.3318 48.3894L76.2437 48.6507C75.8027 46.8147 75.2086 44.8686 74.4535 42.7304L75.5087 42.3578L76.5639 41.9852C77.3377 44.1763 77.9565 46.1985 78.4199 48.128L77.3318 48.3894ZM74.0807 41.6824L74.4496 42.7389C72.2565 43.5047 70.2336 44.1183 68.3056 44.5791L68.0455 43.4907L67.7853 42.4023C69.6218 41.9634 71.5703 41.3737 73.7117 40.6259L74.0807 41.6824ZM66.4023 41.592L65.2929 41.4455C65.3238 41.2115 65.3369 40.9716 65.3305 40.7269L66.4491 40.6976L67.5678 40.6684C67.5773 41.0311 67.558 41.3886 67.5118 41.7384L66.4023 41.592ZM66.4491 40.6976L65.3305 40.727C65.2644 38.2087 63.1693 36.2205 60.651 36.2862L60.6218 35.1675L60.5927 34.0488C64.3464 33.9509 67.4693 36.9145 67.5678 40.6683L66.4491 40.6976ZM60.6218 35.1675L60.6511 36.2862C58.1325 36.352 56.1437 38.4473 56.2094 40.9656L55.0907 40.9948L53.972 41.024C53.8741 37.2699 56.8387 34.147 60.5926 34.0488L60.6218 35.1675ZM55.0907 40.9948L56.2094 40.9655C56.2158 41.2125 56.2418 41.4536 56.2855 41.6876L55.1854 41.893L54.0854 42.0983C54.0201 41.7485 53.9816 41.3897 53.972 41.0241L55.0907 40.9948ZM53.6451 43.8766L53.4424 44.9772C51.178 44.5601 48.7788 43.9415 46.1249 43.129L46.4525 42.059L46.7801 40.9889C49.3796 41.7848 51.6921 42.379 53.8478 42.7761L53.6451 43.8766ZM46.432 42.0702L47.5029 42.3949C46.716 44.9905 46.1297 47.3003 45.7392 49.4546L44.6381 49.255L43.537 49.0554C43.9471 46.7924 44.5576 44.3959 45.3611 41.7456L46.432 42.0702ZM55.1854 41.893L56.2855 41.6876C56.438 42.5048 56.1998 43.3519 55.754 43.9698C55.3041 44.5933 54.4844 45.1691 53.4424 44.9772L53.6451 43.8766L53.8478 42.7761C53.8322 42.7732 53.8152 42.7795 53.8199 42.7772C53.8345 42.7699 53.8819 42.7395 53.939 42.6603C53.9953 42.5823 54.0434 42.4805 54.0705 42.37C54.0977 42.2593 54.0978 42.1649 54.0854 42.0983L55.1854 41.893ZM68.0455 43.4907L68.3056 44.5791C67.2757 44.8252 66.427 44.2943 65.9447 43.6956C65.4668 43.1023 65.1841 42.2694 65.2929 41.4455L66.4023 41.592L67.5118 41.7384C67.5029 41.8057 67.508 41.8999 67.541 42.0089C67.5739 42.1177 67.6273 42.2167 67.6876 42.2915C67.7488 42.3675 67.7977 42.3953 67.8128 42.4019C67.8177 42.404 67.8006 42.3986 67.7853 42.4023L68.0455 43.4907ZM75.5087 42.3578L74.4535 42.7304C74.4534 42.7301 74.4537 42.731 74.4547 42.7325C74.4556 42.7341 74.4567 42.7355 74.4578 42.7367C74.4598 42.7389 74.4608 42.7391 74.4598 42.7386C74.4587 42.7381 74.4572 42.7377 74.4559 42.7377C74.4553 42.7376 74.4547 42.7376 74.454 42.7377C74.4533 42.7378 74.4519 42.7381 74.4496 42.7389L74.0807 41.6824L73.7117 40.6259C74.8594 40.2252 76.1477 40.8065 76.5639 41.9852L75.5087 42.3578ZM75.8518 69.9795L76.1829 68.9106C75.6304 68.7394 74.991 69.0278 74.8038 69.6414L75.8741 69.968L76.9444 70.2946C76.7515 70.9267 76.0917 71.2253 75.5207 71.0485L75.8518 69.9795ZM67.1473 70.1401L66.0474 70.3465C65.8943 69.5306 66.1307 68.6844 66.5756 68.0666C67.0246 67.443 67.843 66.8681 68.8839 67.0587L68.6823 68.1595L68.4807 69.2602C68.4963 69.263 68.5134 69.2568 68.5093 69.2589C68.4952 69.2659 68.4484 69.2959 68.3918 69.3745C68.3361 69.4518 68.2884 69.553 68.2615 69.663C68.2347 69.7731 68.2346 69.8671 68.2471 69.9337L67.1473 70.1401ZM75.4288 50.0342L75.5763 48.9249C75.6436 48.9339 75.7381 48.9288 75.8477 48.8957C75.9571 48.8627 76.0567 48.809 76.1321 48.7485C76.2086 48.6869 76.2367 48.6377 76.2432 48.6226C76.2454 48.6177 76.2399 48.635 76.2437 48.6507L77.3318 48.3894L78.4199 48.128C78.6677 49.16 78.1344 50.0101 77.5349 50.4923C76.9408 50.9703 76.1062 51.2532 75.2813 51.1435L75.4288 50.0342ZM54.2862 68.5673L54.0265 67.4788C55.0534 67.2338 55.9009 67.7612 56.3839 68.3581C56.8623 68.9495 57.1459 69.78 57.0394 70.6027L55.9296 70.4591L54.8199 70.3154C54.8285 70.2483 54.8232 70.1546 54.7902 70.0464C54.7572 69.9383 54.7039 69.84 54.6439 69.7658C54.5829 69.6905 54.5342 69.6628 54.5192 69.6563C54.5141 69.6541 54.5308 69.6594 54.5458 69.6558L54.2862 68.5673ZM47.2023 70.7406L47.1731 69.6219C47.053 69.625 46.9351 69.6475 46.8238 69.6877L47.2034 70.7404L47.5829 71.7931C47.4709 71.8335 47.3524 71.8561 47.2316 71.8592L47.2023 70.7406ZM47.1991 70.7384L48.2565 70.3719C48.0939 69.9029 47.6487 69.6095 47.1731 69.6219L47.2023 70.7406L47.2316 71.8592C46.7531 71.8718 46.3053 71.5765 46.1418 71.1048L47.1991 70.7384ZM77.6968 62.7975L76.5967 62.5924C76.5938 62.6081 76.6001 62.6251 76.5977 62.6202C76.5904 62.6055 76.5598 62.5577 76.4803 62.5002C76.402 62.4436 76.2999 62.3951 76.189 62.3677C76.0779 62.3402 75.9832 62.34 75.9164 62.3523L75.7126 61.252L75.5089 60.1517C76.327 60.0001 77.1747 60.24 77.7924 60.6871C78.4157 61.1381 78.9914 61.9596 78.7969 63.0026L77.6968 62.7975ZM46.4525 42.059L46.1261 43.1293C46.7422 43.3172 47.3362 42.9449 47.5029 42.3949L46.432 42.0702L45.3611 41.7456C45.533 41.1783 46.1455 40.7954 46.7789 40.9886L46.4525 42.059ZM46.9272 62.0072L46.784 63.117C46.7169 63.1084 46.6236 63.1137 46.516 63.1465C46.4086 63.1792 46.3111 63.2321 46.2375 63.2916C46.1628 63.3521 46.1355 63.4003 46.1291 63.415C46.127 63.4198 46.1322 63.4033 46.1287 63.3886L45.0399 63.6467L43.951 63.9048C43.7081 62.88 44.2334 62.0343 44.8298 61.5517C45.4204 61.0739 46.2493 60.7913 47.0705 60.8973L46.9272 62.0072ZM46.6134 50.7886L46.818 51.8888C46.0035 52.0402 45.1595 51.8037 44.5432 51.3589C43.9208 50.9099 43.3488 50.0933 43.537 49.0554L44.6381 49.255L45.7392 49.4546C45.7419 49.4394 45.7358 49.4227 45.738 49.4271C45.745 49.4412 45.7748 49.4877 45.8528 49.544C45.9296 49.5994 46.03 49.6469 46.1393 49.6737C46.2487 49.7006 46.3423 49.7007 46.4087 49.6884L46.6134 50.7886Z" fill="#535353"/>
<path fill-rule="evenodd" clip-rule="evenodd" d="M18.5079 71.4896C18.5068 71.4929 18.5033 71.4948 18.4999 71.4938C18.4969 71.4929 18.4939 71.492 18.4909 71.4911C18.4824 71.4885 18.4777 71.4795 18.4804 71.4711L18.4809 71.4697C19.2848 68.8438 19.8908 66.4885 20.2977 64.279C20.4762 63.3099 19.2834 62.5582 18.3147 62.7389C18.0232 62.7932 17.7236 62.8254 17.4177 62.8334C14.2814 62.9153 11.6725 60.4386 11.5904 57.3022C11.5085 54.1661 13.9844 51.5571 17.1206 51.475C17.4239 51.467 17.7223 51.4831 18.0139 51.5215C18.9905 51.6501 20.141 50.8363 19.9122 49.8782C19.4625 47.9955 18.8612 46.0093 18.1043 43.8415C17.9011 43.2596 18.1985 42.6187 18.7797 42.4134C20.9446 41.6485 22.9287 41.0407 24.8115 40.5877C25.7712 40.3569 26.5875 41.5133 26.4574 42.4918C26.4182 42.7869 26.4017 43.0888 26.4097 43.3959C26.4918 46.5323 29.1009 49.0083 32.2373 48.9263C35.3737 48.8442 37.8497 46.2351 37.7676 43.0987C37.7597 42.7955 37.7282 42.4985 37.6748 42.2093C37.4957 41.2388 38.2524 40.0431 39.2225 40.2244C41.4232 40.6359 43.7714 41.2452 46.3889 42.0491L46.3959 42.0515V42.0515C46.4018 42.0538 46.4052 42.0604 46.4033 42.0664C45.5941 44.6785 44.9867 47.0295 44.5815 49.2413C44.4042 50.2095 45.5951 50.9581 46.5625 50.7767C46.8559 50.7217 47.1576 50.6892 47.4657 50.6811C50.6021 50.599 53.2119 53.0748 53.2939 56.2112C53.3759 59.3475 50.8991 61.9565 47.7628 62.0385C47.4636 62.0463 47.1692 62.0308 46.8814 61.9936C45.9062 61.8675 44.7612 62.6809 44.9894 63.6374C45.5107 65.8224 46.2338 68.1437 47.1623 70.7188C47.1624 70.7191 47.1625 70.7195 47.1625 70.7198V70.7198C47.1625 70.7213 47.1616 70.7226 47.1603 70.723L47.1393 70.7307C44.5714 71.6479 42.2619 72.3633 40.0911 72.8797C39.1375 73.1066 38.3267 71.9701 38.4503 70.9977C38.4865 70.7134 38.5015 70.4227 38.4938 70.1273C38.4378 67.9924 37.2108 66.1634 35.4437 65.239C34.6104 64.799 33.6559 64.5607 32.6469 64.5871C29.5105 64.6691 27.0344 67.2782 27.1165 70.4146C27.1245 70.7205 27.1565 71.02 27.2108 71.3116C27.3903 72.2772 26.6431 73.4626 25.6768 73.2871C24.0993 73.0008 22.4481 72.6131 20.6775 72.1251C19.9761 71.9281 19.2565 71.7148 18.5158 71.4853C18.5125 71.4843 18.5089 71.4862 18.5079 71.4896V71.4896Z" fill="#4D9FFF"/>
<path d="M18.4809 71.4697L19.5509 71.7973L19.5483 71.8058L19.5455 71.8144L18.4809 71.4697ZM17.4177 62.8334L17.447 63.952L17.4469 63.952L17.4177 62.8334ZM11.5904 57.3022L10.4717 57.3315L10.4717 57.3315L11.5904 57.3022ZM17.1206 51.475L17.0913 50.3563L17.0913 50.3563L17.1206 51.475ZM46.3889 42.0491L46.7174 40.9793L46.7397 40.9862L46.7617 40.9939L46.3889 42.0491ZM47.4657 50.6811L47.4363 49.5624L47.4364 49.5624L47.4657 50.6811ZM53.2939 56.2112L54.4126 56.1819L54.4126 56.182L53.2939 56.2112ZM47.7628 62.0385L47.7921 63.1572L47.792 63.1572L47.7628 62.0385ZM47.1393 70.7307L47.5208 71.7827L47.5157 71.7845L47.1393 70.7307ZM38.4938 70.1273L39.6125 70.098L39.6125 70.0981L38.4938 70.1273ZM35.4437 65.239L34.925 66.2306L34.9212 66.2286L35.4437 65.239ZM20.6775 72.1251L20.3802 73.204L20.3748 73.2025L20.6775 72.1251ZM38.4503 70.9977L37.3402 70.8566L38.4503 70.9977ZM46.5625 50.7767L46.7687 51.8766L46.5625 50.7767ZM46.4033 42.0664L45.3344 41.7353L46.4033 42.0664ZM37.6748 42.2093L36.5743 42.4124L37.6748 42.2093ZM39.2225 40.2244L39.0168 41.3244L39.2225 40.2244ZM18.5158 71.4853L18.1846 72.5543L18.5158 71.4853ZM24.8115 40.5877L25.0732 41.6758L24.8115 40.5877ZM26.4574 42.4918L25.3481 42.3444L26.4574 42.4918ZM18.0139 51.5215L18.1599 50.4121L18.0139 51.5215ZM19.9122 49.8782L18.8237 50.1381L19.9122 49.8782ZM18.1043 43.8415L17.0478 44.2104L18.1043 43.8415ZM18.7797 42.4134L18.4069 41.3582L18.7797 42.4134ZM18.3147 62.7389L18.1095 61.6388L18.3147 62.7389ZM18.4999 71.4938L18.8245 70.4229L18.4999 71.4938ZM47.1623 70.7188L48.215 70.3392L47.1623 70.7188ZM47.1603 70.723L47.5418 71.7751L47.1603 70.723ZM18.4909 71.4911L18.1662 72.562L18.4909 71.4911ZM18.4804 71.4711L17.4158 71.1264L18.4804 71.4711ZM18.4909 71.4911L18.8155 70.4202C18.8185 70.4211 18.8215 70.422 18.8245 70.4229L18.4999 71.4938L18.1753 72.5648C18.1723 72.5639 18.1692 72.5629 18.1662 72.562L18.4909 71.4911ZM18.4809 71.4697L19.5455 71.8144L19.545 71.8158L18.4804 71.4711L17.4158 71.1264L17.4162 71.1249L18.4809 71.4697ZM20.2977 64.279L21.3983 64.4817C20.9814 66.7455 20.3632 69.1441 19.5509 71.7973L18.4809 71.4697L17.4108 71.1421C18.2065 68.5434 18.8003 66.2315 19.1972 64.0763L20.2977 64.279ZM17.4177 62.8334L17.3885 61.7147C17.635 61.7083 17.8758 61.6824 18.1095 61.6388L18.3147 62.7389L18.5199 63.8389C18.1706 63.9041 17.8122 63.9425 17.447 63.952L17.4177 62.8334ZM11.5904 57.3022L12.7091 57.273C12.775 59.7917 14.8702 61.7805 17.3885 61.7147L17.4177 62.8334L17.4469 63.952C13.6927 64.0501 10.57 61.0855 10.4717 57.3315L11.5904 57.3022ZM17.1206 51.475L17.1499 52.5936C14.6315 52.6596 12.6433 54.7546 12.7091 57.273L11.5904 57.3022L10.4717 57.3315C10.3737 53.5775 13.3373 50.4547 17.0913 50.3563L17.1206 51.475ZM18.0139 51.5215L17.8678 52.631C17.6341 52.6002 17.3943 52.5872 17.1498 52.5936L17.1206 51.475L17.0913 50.3563C17.4535 50.3468 17.8105 50.366 18.1599 50.4121L18.0139 51.5215ZM18.1043 43.8415L19.1608 43.4726C19.9267 45.6663 20.54 47.6898 21.0006 49.6182L19.9122 49.8782L18.8237 50.1381C18.385 48.3012 17.7956 46.3523 17.0478 44.2104L18.1043 43.8415ZM24.8115 40.5877L25.0732 41.6758C23.2373 42.1174 21.2913 42.7128 19.1525 43.4685L18.7797 42.4134L18.4069 41.3582C20.5979 40.5841 22.62 39.964 24.5497 39.4997L24.8115 40.5877ZM26.4097 43.3959L25.2911 43.4251C25.2815 43.0588 25.3011 42.6978 25.3481 42.3444L26.4574 42.4918L27.5667 42.6393C27.5352 42.876 27.5219 43.1189 27.5284 43.3666L26.4097 43.3959ZM32.2373 48.9263L32.2665 50.0449C28.5123 50.1431 25.3893 47.1794 25.2911 43.4251L26.4097 43.3959L27.5284 43.3666C27.5943 45.8852 29.6894 47.8735 32.208 47.8076L32.2373 48.9263ZM37.7676 43.0987L38.8863 43.0695C38.9845 46.8237 36.0207 49.9467 32.2665 50.0449L32.2373 48.9263L32.208 47.8076C34.7266 47.7417 36.7149 45.6466 36.649 43.128L37.7676 43.0987ZM37.6748 42.2093L38.7753 42.0062C38.8392 42.3525 38.8768 42.7077 38.8863 43.0695L37.7676 43.0987L36.649 43.128C36.6426 42.8833 36.6171 42.6444 36.5743 42.4124L37.6748 42.2093ZM46.3889 42.0491L46.0604 43.1188C43.4692 42.3231 41.1638 41.7258 39.0168 41.3244L39.2225 40.2244L39.4281 39.1244C41.6826 39.5459 44.0735 40.1674 46.7174 40.9793L46.3889 42.0491ZM46.3959 42.0515L46.0232 43.1067L46.0162 43.1042L46.3889 42.0491L46.7617 40.9939L46.7687 40.9964L46.3959 42.0515ZM44.5815 49.2413L43.4808 49.0397C43.8962 46.772 44.5162 44.3762 45.3344 41.7353L46.4033 42.0664L47.4722 42.3976C46.672 44.9808 46.0772 47.287 45.6822 49.443L44.5815 49.2413ZM47.4657 50.6811L47.495 51.7997C47.2465 51.8063 47.004 51.8325 46.7687 51.8766L46.5625 50.7767L46.3562 49.6768C46.7078 49.6109 47.0686 49.5721 47.4363 49.5624L47.4657 50.6811ZM53.2939 56.2112L52.1752 56.2405C52.1094 53.7221 50.0137 51.7339 47.4949 51.7997L47.4657 50.6811L47.4364 49.5624C51.1904 49.4642 54.3144 52.4275 54.4126 56.1819L53.2939 56.2112ZM47.7628 62.0385L47.7335 60.9199C50.2523 60.854 52.2411 58.7588 52.1752 56.2405L53.2939 56.2112L54.4126 56.182C54.5107 59.9363 51.546 63.059 47.7921 63.1572L47.7628 62.0385ZM46.8814 61.9936L47.0249 60.8838C47.2557 60.9136 47.4923 60.9261 47.7336 60.9199L47.7628 62.0385L47.792 63.1572C47.4348 63.1665 47.0827 63.148 46.7379 63.1034L46.8814 61.9936ZM47.1623 70.7188L46.1096 71.0983C45.1717 68.4971 44.4347 66.1343 43.9009 63.8971L44.9894 63.6374L46.0779 63.3777C46.5868 65.5105 47.296 67.7903 48.215 70.3392L47.1623 70.7188ZM47.1393 70.7307L46.7578 69.6786L46.7788 69.671L47.1603 70.723L47.5418 71.7751L47.5208 71.7827L47.1393 70.7307ZM40.0911 72.8797L39.8321 71.791C41.9515 71.2869 44.2202 70.5851 46.7629 69.6768L47.1393 70.7307L47.5157 71.7845C44.9226 72.7108 42.5723 73.4397 40.3501 73.9684L40.0911 72.8797ZM38.4503 70.9977L37.3402 70.8566C37.3692 70.6285 37.3813 70.3948 37.3751 70.1566L38.4938 70.1273L39.6125 70.0981C39.6217 70.4506 39.6038 70.7982 39.5605 71.1388L38.4503 70.9977ZM38.4938 70.1273L37.3751 70.1567C37.3302 68.4438 36.347 66.9744 34.925 66.2306L35.4437 65.239L35.9624 64.2474C38.0747 65.3523 39.5453 67.541 39.6125 70.098L38.4938 70.1273ZM32.6469 64.5871L32.6176 63.4684C33.8236 63.4368 34.9675 63.7221 35.9662 64.2494L35.4437 65.239L34.9212 66.2286C34.2533 65.876 33.4883 65.6845 32.6762 65.7057L32.6469 64.5871ZM27.1165 70.4146L25.9978 70.4439C25.8996 66.6896 28.8634 63.5666 32.6176 63.4684L32.6469 64.5871L32.6762 65.7057C30.1576 65.7716 28.1693 67.8667 28.2352 70.3853L27.1165 70.4146ZM27.2108 71.3116L26.1106 71.5162C26.0456 71.167 26.0074 70.8088 25.9978 70.4439L27.1165 70.4146L28.2352 70.3853C28.2416 70.6321 28.2674 70.8731 28.3109 71.107L27.2108 71.3116ZM20.6775 72.1251L20.9748 71.0463C22.7204 71.5273 24.3385 71.9068 25.8767 72.1861L25.6768 73.2871L25.4769 74.3882C23.8601 74.0947 22.1758 73.6988 20.3802 73.204L20.6775 72.1251ZM20.6775 72.1251L20.3748 73.2025C19.6629 73.0025 18.9338 72.7864 18.1846 72.5543L18.5158 71.4853L18.8471 70.4164C19.5792 70.6433 20.2892 70.8537 20.9801 71.0478L20.6775 72.1251ZM40.0911 72.8797L40.3501 73.9684C39.327 74.2118 38.4814 73.689 37.9981 73.0939C37.5195 72.5047 37.2359 71.6772 37.3402 70.8566L38.4503 70.9977L39.5605 71.1388C39.552 71.2057 39.5575 71.2987 39.5903 71.4058C39.6231 71.5128 39.676 71.6098 39.7354 71.6829C39.7957 71.7572 39.8438 71.7843 39.8584 71.7906C39.8632 71.7927 39.8467 71.7876 39.8321 71.791L40.0911 72.8797ZM46.8814 61.9936L46.7379 63.1034C46.6708 63.0947 46.577 63.1001 46.4687 63.1331C46.3605 63.1661 46.2622 63.2194 46.188 63.2795C46.1126 63.3405 46.0849 63.3892 46.0783 63.4043C46.0761 63.4094 46.0814 63.3927 46.0779 63.3777L44.9894 63.6374L43.9009 63.8971C43.6558 62.87 44.1833 62.0225 44.7802 61.5396C45.3716 61.0611 46.2022 60.7774 47.0249 60.8838L46.8814 61.9936ZM44.5815 49.2413L45.6822 49.443C45.6851 49.4274 45.6788 49.4103 45.6809 49.4144C45.688 49.4285 45.7179 49.4753 45.7966 49.532C45.874 49.5877 45.9753 49.6355 46.0853 49.6624C46.1955 49.6893 46.2896 49.6893 46.3562 49.6768L46.5625 50.7767L46.7687 51.8766C45.9528 52.0296 45.1066 51.7931 44.4888 51.3482C43.8652 50.8992 43.2901 50.0807 43.4808 49.0397L44.5815 49.2413ZM46.3959 42.0515L46.7954 41.0062C47.3363 41.2129 47.6538 41.8116 47.4722 42.3976L46.4033 42.0664L45.3344 41.7353C45.1566 42.3092 45.4674 42.8947 45.9965 43.0968L46.3959 42.0515ZM37.6748 42.2093L36.5743 42.4124C36.4233 41.5938 36.664 40.746 37.1115 40.1284C37.5628 39.5054 38.3847 38.9294 39.4281 39.1244L39.2225 40.2244L39.0168 41.3244C39.0327 41.3274 39.0496 41.321 39.0446 41.3235C39.0296 41.3309 38.9817 41.3617 38.9239 41.4415C38.867 41.5199 38.8184 41.6224 38.7908 41.7335C38.7632 41.8448 38.7629 41.9395 38.7753 42.0062L37.6748 42.2093ZM18.5158 71.4853L18.1846 72.5543C18.7723 72.7363 19.3983 72.4068 19.5784 71.8156L18.5079 71.4896L17.4373 71.1636C17.6194 70.5656 18.2526 70.2323 18.8471 70.4164L18.5158 71.4853ZM24.8115 40.5877L24.5497 39.4997C25.5823 39.2513 26.4327 39.7853 26.915 40.3848C27.3931 40.9791 27.6764 41.814 27.5667 42.6393L26.4574 42.4918L25.3481 42.3444C25.357 42.2771 25.352 42.1825 25.3188 42.0726C25.2857 41.963 25.2319 41.8632 25.1712 41.7877C25.1094 41.711 25.0601 41.6828 25.0449 41.6762C25.04 41.674 25.0574 41.6796 25.0732 41.6758L24.8115 40.5877ZM27.2108 71.3116L28.3109 71.107C28.4624 71.9216 28.2257 72.7657 27.7809 73.3821C27.3318 74.0045 26.515 74.5767 25.4769 74.3882L25.6768 73.2871L25.8767 72.1861C25.8614 72.1833 25.8447 72.1895 25.849 72.1873C25.8631 72.1803 25.9097 72.1504 25.966 72.0724C26.0215 71.9955 26.0691 71.895 26.0959 71.7857C26.1227 71.6762 26.1229 71.5826 26.1106 71.5162L27.2108 71.3116ZM18.0139 51.5215L18.1599 50.4121C18.2272 50.4209 18.3213 50.4158 18.4303 50.3827C18.5391 50.3498 18.6381 50.2964 18.7128 50.2361C18.7888 50.1749 18.8167 50.1259 18.8233 50.1108C18.8254 50.1059 18.8201 50.1229 18.8237 50.1381L19.9122 49.8782L21.0006 49.6182C21.2465 50.6478 20.7158 51.4964 20.1173 51.9787C19.5243 52.4567 18.6915 52.7395 17.8678 52.631L18.0139 51.5215ZM18.1043 43.8415L17.0478 44.2104C16.6471 43.0627 17.2284 41.7746 18.4069 41.3582L18.7797 42.4134L19.1525 43.4685C19.1521 43.4686 19.153 43.4683 19.1545 43.4674C19.156 43.4665 19.1575 43.4654 19.1586 43.4643C19.1609 43.4623 19.1611 43.4613 19.1606 43.4623C19.16 43.4635 19.1596 43.465 19.1596 43.4663C19.1595 43.4669 19.1595 43.4675 19.1596 43.4682C19.1597 43.4689 19.16 43.4703 19.1608 43.4726L18.1043 43.8415ZM20.2977 64.279L19.1972 64.0763C19.1943 64.0919 19.2006 64.1088 19.1983 64.1042C19.1911 64.0896 19.1607 64.0423 19.0816 63.9852C19.0037 63.929 18.902 63.8809 18.7915 63.8538C18.6809 63.8266 18.5866 63.8265 18.5199 63.8389L18.3147 62.7389L18.1095 61.6388C18.9266 61.4864 19.7735 61.7245 20.3913 62.1703C21.0147 62.6202 21.5902 63.4399 21.3983 64.4817L20.2977 64.279ZM18.4999 71.4938L18.8245 70.4229C18.2369 70.2448 17.6162 70.5763 17.4373 71.1636L18.5079 71.4896L19.5784 71.8156C19.3975 72.4096 18.7697 72.7449 18.1753 72.5648L18.4999 71.4938ZM47.1623 70.7188L48.215 70.3392C48.2554 70.4512 48.278 70.5698 48.2811 70.6906L47.1625 70.7198L46.0438 70.7491C46.0469 70.8692 46.0694 70.987 46.1096 71.0983L47.1623 70.7188ZM47.1625 70.7198L48.2811 70.6906C48.2938 71.1735 47.996 71.6103 47.5418 71.7751L47.1603 70.723L46.7788 69.671C46.3273 69.8348 46.0312 70.269 46.0438 70.7491L47.1625 70.7198ZM18.4909 71.4911L18.1662 72.562C17.5583 72.3777 17.2202 71.7305 17.4158 71.1264L18.4804 71.4711L19.545 71.8158C19.7352 71.2285 19.4065 70.5993 18.8155 70.4202L18.4909 71.4911Z" fill="#535353"/>
<path d="M49.7387 92.1713C49.9137 91.205 48.7289 90.4584 47.7636 90.638C47.4724 90.6922 47.1732 90.7242 46.8677 90.7322C43.7315 90.8141 41.1225 88.3383 41.0404 85.2021C40.9584 82.0658 43.4344 79.457 46.5706 79.3748C46.8691 79.367 47.1628 79.3824 47.45 79.4194C48.4234 79.5448 49.5639 78.734 49.3375 77.7791C48.8213 75.6017 48.1054 73.285 47.185 70.7083C47.1825 70.7016 47.1802 70.6946 47.1779 70.6879C47.1771 70.6858 47.1747 70.6844 47.1726 70.6852V70.6852C44.598 71.6135 42.2769 72.3367 40.0921 72.8581C39.1358 73.0864 38.322 71.9415 38.448 70.9664C38.4851 70.6785 38.5007 70.3841 38.4928 70.0848C38.4107 66.9487 35.8017 64.4728 32.6655 64.5546C29.5292 64.6367 27.0525 67.2457 27.1344 70.382C27.1425 70.6902 27.175 70.9921 27.2302 71.2857C27.4117 72.253 26.6633 73.4436 25.6953 73.2663C23.4852 72.8615 21.1362 72.2547 18.5265 71.4464C18.5168 71.4434 18.5063 71.4489 18.5034 71.4586V71.4586C17.6992 74.0774 17.0912 76.4266 16.6807 78.6283C16.4999 79.5983 17.6948 80.3539 18.665 80.1745C18.9538 80.1211 19.2505 80.0895 19.5535 80.0816C22.6897 79.9997 25.2987 82.4755 25.3807 85.6117C25.4628 88.748 22.9868 91.3568 19.8506 91.439C19.5441 91.4471 19.2426 91.4306 18.9481 91.3913C17.9698 91.2611 16.8143 92.0765 17.0448 93.0361C17.4969 94.9186 18.1034 96.9025 18.8677 99.0669C19.073 99.6481 19.7139 99.9455 20.2958 99.7423C22.4635 98.9855 24.4496 98.3841 26.3322 97.9345C27.2905 97.7057 28.1041 98.8566 27.9751 99.8334C27.9366 100.125 27.9204 100.424 27.9283 100.728C28.0105 103.864 30.6203 106.34 33.7566 106.258C36.8927 106.176 39.3686 103.567 39.2867 100.431C39.2787 100.125 39.2466 99.8249 39.1921 99.5331C39.0114 98.5643 39.7635 97.3707 40.7328 97.5494C42.9421 97.9565 45.2973 98.5629 47.923 99.3667V99.3667C47.9328 99.3697 47.9431 99.3641 47.9461 99.3543C48.741 96.732 49.3388 94.3794 49.7387 92.1713Z" fill="#77B6FF"/>
<path d="M46.8677 90.7322L46.897 91.8509L46.8969 91.8509L46.8677 90.7322ZM41.0404 85.2021L39.9218 85.2313L39.9218 85.2313L41.0404 85.2021ZM46.5706 79.3748L46.5412 78.2561L46.5413 78.2561L46.5706 79.3748ZM47.185 70.7083L48.2353 70.322L48.2388 70.3319L47.185 70.7083ZM38.4928 70.0848L39.6115 70.0555L39.6115 70.0555L38.4928 70.0848ZM32.6655 64.5546L32.6363 63.436L32.6364 63.436L32.6655 64.5546ZM27.1344 70.382L26.0157 70.4112L26.0157 70.4112L27.1344 70.382ZM19.5535 80.0816L19.5242 78.9629L19.5243 78.9629L19.5535 80.0816ZM25.3807 85.6117L26.4994 85.5825L26.4994 85.5825L25.3807 85.6117ZM19.8506 91.439L19.8799 92.5577L19.8799 92.5577L19.8506 91.439ZM27.9283 100.728L26.8096 100.757L26.8096 100.757L27.9283 100.728ZM33.7566 106.258L33.7859 107.377L33.7858 107.377L33.7566 106.258ZM39.2867 100.431L40.4054 100.402L40.4054 100.402L39.2867 100.431ZM39.1921 99.5331L38.0921 99.7384L39.1921 99.5331ZM26.3322 97.9345L26.5921 99.023L26.3322 97.9345ZM18.8677 99.0669L17.8125 99.4395L18.8677 99.0669ZM20.2958 99.7423L19.9269 98.6858L20.2958 99.7423ZM18.5265 71.4464L18.1955 72.5154L18.5265 71.4464ZM27.2302 71.2857L26.1303 71.4922L27.2302 71.2857ZM25.6953 73.2663L25.4937 74.367L25.6953 73.2663ZM18.9481 91.3913L18.8004 92.5006L18.9481 91.3913ZM17.0448 93.0361L15.9566 93.2974L17.0448 93.0361ZM40.0921 72.8581L39.8323 71.7696L40.0921 72.8581ZM47.1779 70.6879L46.1224 71.0596L47.1779 70.6879ZM16.6807 78.6283L15.5806 78.4232L16.6807 78.6283ZM47.9461 99.3543L49.017 99.679L47.9461 99.3543ZM47.7636 90.638L47.5588 89.5378L47.7636 90.638ZM47.7636 90.638L47.9683 91.7382C47.6195 91.8031 47.2616 91.8413 46.897 91.8509L46.8677 90.7322L46.8384 89.6135C47.0848 89.6071 47.3253 89.5813 47.5588 89.5378L47.7636 90.638ZM46.8677 90.7322L46.8969 91.8509C43.143 91.9489 40.02 88.9855 39.9218 85.2313L41.0404 85.2021L42.1591 85.1728C42.225 87.6912 44.32 89.6793 46.8385 89.6135L46.8677 90.7322ZM41.0404 85.2021L39.9218 85.2313C39.8235 81.4772 42.7873 78.3546 46.5412 78.2561L46.5706 79.3748L46.5999 80.4934C44.0814 80.5595 42.0932 82.6544 42.1591 85.1728L41.0404 85.2021ZM46.5706 79.3748L46.5413 78.2561C46.8976 78.2468 47.2489 78.2652 47.593 78.3095L47.45 79.4194L47.307 80.5293C47.0767 80.4996 46.8406 80.4871 46.5998 80.4934L46.5706 79.3748ZM49.3375 77.7791L48.2486 78.0372C47.7447 75.9115 47.0424 73.6358 46.1311 71.0847L47.185 70.7083L48.2388 70.3319C49.1684 72.9342 49.898 75.292 50.4264 77.521L49.3375 77.7791ZM47.185 70.7083L46.1347 71.0945C46.1286 71.078 46.1238 71.064 46.1223 71.0594C46.1218 71.0581 46.1213 71.0567 46.1211 71.0561C46.121 71.0558 46.1209 71.0555 46.1209 71.0553C46.1208 71.0552 46.1208 71.0552 46.1208 71.0551C46.1208 71.0551 46.1208 71.0551 46.1208 71.0551C46.1208 71.0551 46.1208 71.0552 46.1209 71.0554C46.1209 71.0555 46.121 71.0558 46.1212 71.0562C46.1214 71.0569 46.1218 71.0581 46.1224 71.0596L47.1779 70.6879L48.2334 70.3162C48.2356 70.3224 48.2374 70.3276 48.2385 70.3309C48.239 70.3325 48.2396 70.334 48.2399 70.335C48.2403 70.3361 48.2404 70.3364 48.2405 70.3368C48.2408 70.3376 48.2403 70.3362 48.2395 70.334C48.2387 70.3317 48.2372 70.3275 48.2352 70.322L47.185 70.7083ZM47.1726 70.6852L47.5522 71.7379C44.9514 72.6756 42.5889 73.4127 40.3519 73.9466L40.0921 72.8581L39.8323 71.7696C41.9649 71.2606 44.2445 70.5513 46.7931 69.6324L47.1726 70.6852ZM38.448 70.9664L37.3381 70.8231C37.3679 70.5922 37.3805 70.3554 37.3742 70.1141L38.4928 70.0848L39.6115 70.0555C39.6208 70.4127 39.6023 70.7648 39.5578 71.1097L38.448 70.9664ZM38.4928 70.0848L37.3742 70.1141C37.3082 67.5958 35.2131 65.6076 32.6947 65.6733L32.6655 64.5546L32.6364 63.436C36.3902 63.3381 39.5131 66.3015 39.6115 70.0555L38.4928 70.0848ZM32.6655 64.5546L32.6948 65.6733C30.1761 65.7392 28.1873 67.8344 28.2531 70.3527L27.1344 70.382L26.0157 70.4112C25.9177 66.6569 28.8823 63.5342 32.6363 63.436L32.6655 64.5546ZM27.1344 70.382L28.2531 70.3527C28.2596 70.6012 28.2858 70.8438 28.33 71.0793L27.2302 71.2857L26.1303 71.4922C26.0643 71.1403 26.0254 70.7792 26.0157 70.4112L27.1344 70.382ZM25.6953 73.2663L25.4937 74.367C23.2277 73.952 20.834 73.3326 18.1955 72.5154L18.5265 71.4464L18.8576 70.3775C21.4384 71.1768 23.7426 71.7709 25.8969 72.1655L25.6953 73.2663ZM18.5034 71.4586L19.5731 71.7871C18.7772 74.379 18.1813 76.6854 17.7808 78.8335L16.6807 78.6283L15.5806 78.4232C16.0012 76.1679 16.6212 73.7758 17.4336 71.1301L18.5034 71.4586ZM18.665 80.1745L18.4615 79.0741C18.8076 79.0101 19.1626 78.9724 19.5242 78.9629L19.5535 80.0816L19.5827 81.2003C19.3385 81.2066 19.1 81.2321 18.8685 81.2749L18.665 80.1745ZM19.5535 80.0816L19.5243 78.9629C23.2782 78.8649 26.4012 81.8283 26.4994 85.5825L25.3807 85.6117L24.2621 85.641C24.1962 83.1226 22.1012 81.1345 19.5826 81.2003L19.5535 80.0816ZM25.3807 85.6117L26.4994 85.5825C26.5976 89.3366 23.6338 92.4593 19.8799 92.5577L19.8506 91.439L19.8212 90.3204C22.3397 90.2543 24.3279 88.1594 24.2621 85.641L25.3807 85.6117ZM19.8506 91.439L19.8799 92.5577C19.5139 92.5673 19.1533 92.5476 18.8004 92.5006L18.9481 91.3913L19.0958 90.2821C19.3319 90.3135 19.5742 90.3268 19.8213 90.3204L19.8506 91.439ZM17.0448 93.0361L18.1329 92.7747C18.5738 94.6105 19.1679 96.5563 19.9229 98.6943L18.8677 99.0669L17.8125 99.4395C17.0388 97.2487 16.42 95.2267 15.9566 93.2974L17.0448 93.0361ZM20.2958 99.7423L19.9269 98.6858C22.1205 97.92 24.1439 97.3066 26.0723 96.8461L26.3322 97.9345L26.5921 99.023C24.7553 99.4616 22.8065 100.051 20.6647 100.799L20.2958 99.7423ZM27.9751 99.8334L29.0846 99.9799C29.0536 100.214 29.0406 100.454 29.047 100.699L27.9283 100.728L26.8096 100.757C26.8002 100.394 26.8195 100.037 26.8657 99.6869L27.9751 99.8334ZM27.9283 100.728L29.047 100.699C29.113 103.217 31.2086 105.205 33.7273 105.139L33.7566 106.258L33.7858 107.377C30.0319 107.475 26.908 104.512 26.8096 100.757L27.9283 100.728ZM33.7566 106.258L33.7272 105.139C36.2456 105.073 38.2338 102.978 38.1681 100.46L39.2867 100.431L40.4054 100.402C40.5034 104.156 37.5398 107.278 33.7859 107.377L33.7566 106.258ZM39.2867 100.431L38.1681 100.46C38.1616 100.213 38.1357 99.9723 38.0921 99.7384L39.1921 99.5331L40.2922 99.3279C40.3574 99.6775 40.3958 100.036 40.4054 100.402L39.2867 100.431ZM40.7328 97.5494L40.9356 96.4488C43.1993 96.866 45.5978 97.4845 48.2506 98.2967L47.923 99.3667L47.5954 100.437C44.9968 99.6412 42.685 99.047 40.53 98.6499L40.7328 97.5494ZM47.9461 99.3543L46.8752 99.0297C47.6618 96.4349 48.2474 94.1257 48.6376 91.9718L49.7387 92.1713L50.8398 92.3707C50.4301 94.6331 49.8203 97.0292 49.017 99.679L47.9461 99.3543ZM39.1921 99.5331L38.0921 99.7384C37.9396 98.9211 38.1779 98.074 38.6237 97.4561C39.0737 96.8326 39.8935 96.2568 40.9356 96.4488L40.7328 97.5494L40.53 98.6499C40.5456 98.6528 40.5625 98.6464 40.5578 98.6488C40.5433 98.6561 40.4958 98.6865 40.4387 98.7657C40.3824 98.8437 40.3342 98.9456 40.3071 99.0561C40.2799 99.1669 40.2798 99.2613 40.2922 99.3279L39.1921 99.5331ZM26.3322 97.9345L26.0723 96.8461C27.1021 96.6002 27.9507 97.1312 28.4329 97.7299C28.9108 98.3231 29.1934 99.1561 29.0846 99.9799L27.9751 99.8334L26.8657 99.6869C26.8746 99.6196 26.8695 99.5255 26.8365 99.4165C26.8036 99.3076 26.7502 99.2086 26.6899 99.1338C26.6287 99.0578 26.5798 99.03 26.5647 99.0234C26.5598 99.0213 26.5768 99.0266 26.5921 99.023L26.3322 97.9345ZM18.8677 99.0669L19.9229 98.6943C19.923 98.6946 19.9227 98.6938 19.9218 98.6922C19.9209 98.6907 19.9198 98.6892 19.9187 98.6881C19.9166 98.6858 19.9156 98.6856 19.9167 98.6861C19.9178 98.6866 19.9193 98.687 19.9206 98.6871C19.9212 98.6871 19.9218 98.6871 19.9225 98.687C19.9232 98.6869 19.9246 98.6866 19.9269 98.6858L20.2958 99.7423L20.6647 100.799C19.5171 101.2 18.2288 100.618 17.8125 99.4395L18.8677 99.0669ZM18.5265 71.4464L18.1955 72.5154C18.7719 72.6939 19.394 72.3742 19.5737 71.7853L18.5034 71.4586L17.433 71.132C17.6187 70.5235 18.2616 70.1929 18.8576 70.3775L18.5265 71.4464ZM27.2302 71.2857L28.33 71.0793C28.4832 71.8952 28.2468 72.7413 27.802 73.3591C27.3529 73.9827 26.5345 74.5576 25.4937 74.367L25.6953 73.2663L25.8969 72.1655C25.8814 72.1627 25.8642 72.1689 25.8683 72.1668C25.8823 72.1598 25.9291 72.1299 25.9857 72.0513C26.0414 71.974 26.0891 71.8729 26.1159 71.7629C26.1428 71.6528 26.1428 71.5588 26.1303 71.4922L27.2302 71.2857ZM18.9481 91.3913L18.8004 92.5006C18.7331 92.4916 18.6385 92.4967 18.5289 92.5298C18.4194 92.5628 18.3198 92.6165 18.2445 92.6771C18.1679 92.7386 18.1398 92.7879 18.1333 92.8029C18.1311 92.8078 18.1366 92.7904 18.1329 92.7747L17.0448 93.0361L15.9566 93.2974C15.7087 92.2653 16.2423 91.4152 16.8418 90.933C17.4361 90.455 18.2708 90.1723 19.0958 90.2821L18.9481 91.3913ZM40.0921 72.8581L40.3519 73.9466C39.325 74.1917 38.4774 73.6643 37.9944 73.0676C37.5158 72.4763 37.2319 71.6458 37.3381 70.8231L38.448 70.9664L39.5578 71.1097C39.5491 71.1768 39.5545 71.2705 39.5876 71.3788C39.6206 71.4869 39.6739 71.5852 39.734 71.6595C39.795 71.7349 39.8438 71.7626 39.8589 71.7691C39.864 71.7714 39.8474 71.7661 39.8323 71.7696L40.0921 72.8581ZM47.1779 70.6879L46.1224 71.0596C46.2985 71.5599 46.8836 71.9695 47.5388 71.7426L47.1726 70.6852L46.8064 69.6277C47.4659 69.3994 48.0557 69.8116 48.2334 70.3162L47.1779 70.6879ZM16.6807 78.6283L17.7808 78.8335C17.7837 78.8177 17.7774 78.8008 17.7798 78.8057C17.7872 78.8206 17.8179 78.8684 17.8975 78.926C17.9758 78.9827 18.078 79.0312 18.1889 79.0587C18.3001 79.0862 18.3947 79.0865 18.4615 79.0741L18.665 80.1745L18.8685 81.2749C18.0502 81.4262 17.2026 81.186 16.5849 80.7388C15.9619 80.2877 15.3861 79.4662 15.5806 78.4232L16.6807 78.6283ZM47.923 99.3667L48.2495 98.2964C47.6602 98.1167 47.0496 98.4545 46.8752 99.0297L47.9461 99.3543L49.017 99.679C48.8367 100.274 48.2053 100.623 47.5965 100.437L47.923 99.3667ZM47.45 79.4194L47.593 78.3095C47.6599 78.3181 47.7532 78.3128 47.8609 78.2799C47.9684 78.2471 48.066 78.1942 48.1396 78.1346C48.2144 78.074 48.2418 78.0257 48.2482 78.0109C48.2503 78.0059 48.2451 78.0225 48.2486 78.0372L49.3375 77.7791L50.4264 77.521C50.6693 78.5458 50.1439 79.3916 49.5477 79.8742C48.9572 80.3522 48.1283 80.6351 47.307 80.5293L47.45 79.4194ZM47.7636 90.638L47.5588 89.5378C48.3733 89.3863 49.2172 89.6227 49.8335 90.0674C50.4559 90.5165 51.0278 91.3329 50.8398 92.3707L49.7387 92.1713L48.6376 91.9718C48.6348 91.9869 48.641 92.0036 48.6388 91.9993C48.6317 91.9852 48.602 91.9387 48.524 91.8824C48.4473 91.827 48.3469 91.7796 48.2376 91.7528C48.1283 91.726 48.0347 91.7258 47.9683 91.7382L47.7636 90.638Z" fill="#535353"/>
<rect x="49.7598" y="25.2046" width="2.2381" height="18.2629" transform="rotate(15 49.7598 25.2046)" fill="#535353"/>
<rect x="92.8052" y="73.3019" width="2.2381" height="18.2629" transform="rotate(105 92.8052 73.3019)" fill="#535353"/>
<path d="M52.2108 18.365C52.5451 18.0689 53.0731 18.2104 53.2145 18.6339L56.5525 28.6416C56.5768 28.7144 56.5855 28.7873 56.5837 28.8572C56.9168 30.0493 56.9296 31.4638 56.5451 32.899C55.6627 36.1921 53.0237 38.3461 50.6508 37.7103C49.5432 37.4134 48.6896 36.5615 48.1836 35.4022C47.1658 36.1531 46.0005 36.4642 44.8929 36.1674C42.52 35.5316 41.3116 32.3467 42.1939 29.0536C42.5784 27.6187 43.2962 26.3996 44.1804 25.5338C44.2139 25.4722 44.2578 25.4136 44.3153 25.3627L52.2108 18.365Z" fill="#535353"/>
<path d="M99.6454 75.752C99.9416 76.0863 99.7999 76.6153 99.3762 76.7566L89.3685 80.0946C89.295 80.1191 89.2216 80.1274 89.151 80.1253C87.9592 80.458 86.5449 80.4714 85.1102 80.087C81.8174 79.2046 79.6634 76.5655 80.2989 74.1926C80.5958 73.0848 81.4485 72.2307 82.6081 71.7248C81.8572 70.707 81.5451 69.5423 81.8417 68.4348C82.4776 66.0619 85.6626 64.8535 88.9555 65.7358C90.39 66.1201 91.6089 66.8373 92.4747 67.7211C92.537 67.7546 92.596 67.7993 92.6475 67.8574L99.6454 75.752Z" fill="#535353"/>
<circle cx="47.1506" cy="70.5684" r="5.41621" transform="rotate(15 47.1506 70.5684)" fill="#535353"/>
<path d="M120.997 72.3815C118.775 71.6238 116.754 70.8661 114.936 70.1084C113.117 69.3002 111.551 68.3404 110.238 67.2292C108.925 66.1179 107.889 64.8045 107.132 63.2892C106.424 61.7233 106.071 59.829 106.071 57.6065C106.071 53.3129 107.712 49.878 110.996 47.3019C114.33 44.7257 118.977 43.4376 124.937 43.4376C127.109 43.4376 129.13 43.5892 130.999 43.8922C132.868 44.1953 134.459 44.6752 135.772 45.3319C137.136 45.938 138.197 46.7462 138.955 47.7565C139.712 48.7162 140.091 49.8527 140.091 51.1661C140.091 52.4794 139.788 53.616 139.182 54.5757C138.576 55.4849 137.843 56.2679 136.985 56.9245C135.873 56.2174 134.383 55.6112 132.514 55.1061C130.645 54.5504 128.6 54.2726 126.377 54.2726C124.104 54.2726 122.437 54.601 121.376 55.2576C120.315 55.8638 119.785 56.6467 119.785 57.6065C119.785 58.3642 120.113 58.9956 120.77 59.5007C121.427 59.9553 122.412 60.3847 123.725 60.7888L127.741 62.0768C132.489 63.5922 136.126 65.537 138.652 67.9111C141.228 70.2347 142.516 73.417 142.516 77.458C142.516 81.7516 140.824 85.237 137.439 87.9141C134.055 90.5408 129.079 91.8541 122.513 91.8541C120.189 91.8541 118.017 91.6521 115.997 91.248C114.027 90.8944 112.284 90.364 110.768 89.6568C109.304 88.8991 108.142 87.9899 107.283 86.9291C106.475 85.8179 106.071 84.555 106.071 83.1407C106.071 81.6758 106.5 80.4382 107.359 79.428C108.218 78.3672 109.152 77.559 110.162 77.0034C111.577 78.1147 113.294 79.0744 115.315 79.8826C117.386 80.6908 119.633 81.0949 122.058 81.0949C124.533 81.0949 126.276 80.7161 127.286 79.9584C128.296 79.2007 128.802 78.3167 128.802 77.3065C128.802 76.2962 128.397 75.5385 127.589 75.0334C126.781 74.4777 125.645 73.9474 124.18 73.4422L120.997 72.3815Z" fill="#4D9FFF"/>
<path d="M163.963 91.8401C160.979 91.8401 158.198 91.436 155.619 90.6279C153.09 89.7692 150.865 88.5064 148.944 86.8396C147.072 85.1727 145.581 83.0766 144.468 80.5511C143.406 78.0255 142.875 75.0707 142.875 71.6865C142.875 68.3528 143.406 65.499 144.468 63.125C145.581 60.7005 147.022 58.7306 148.792 57.2153C150.562 55.6494 152.585 54.5129 154.86 53.8058C157.136 53.0481 159.462 52.6693 161.839 52.6693C164.519 52.6693 166.947 53.0734 169.121 53.8816C171.346 54.6897 173.243 55.801 174.811 57.2153C176.429 58.6295 177.668 60.3216 178.527 62.2915C179.438 64.2614 179.893 66.4081 179.893 68.7316C179.893 70.449 179.412 71.7622 178.452 72.6714C177.491 73.5806 176.151 74.1615 174.431 74.414L155.695 77.2174C156.251 78.8842 157.389 80.147 159.108 81.0056C160.828 81.8138 162.8 82.2179 165.025 82.2179C167.098 82.2179 169.045 81.9653 170.866 81.4602C172.737 80.9046 174.254 80.2732 175.417 79.5661C176.227 80.0712 176.909 80.7783 177.466 81.6875C178.022 82.5967 178.3 83.5564 178.3 84.5666C178.3 86.8396 177.238 88.5317 175.114 89.6429C173.496 90.5016 171.675 91.0825 169.652 91.3855C167.629 91.6886 165.733 91.8401 163.963 91.8401ZM161.839 62.0642C160.625 62.0642 159.563 62.2663 158.653 62.6704C157.793 63.0745 157.085 63.6048 156.529 64.2614C155.973 64.8676 155.543 65.5747 155.24 66.3829C154.987 67.1405 154.835 67.9235 154.784 68.7316L167.756 66.6102C167.604 65.6 167.048 64.5898 166.087 63.5796C165.126 62.5694 163.71 62.0642 161.839 62.0642Z" fill="#4D9FFF"/>
<path d="M155.731 77.222L155.675 77.2308L143.885 78.9828C143.209 76.8286 142.87 74.4008 142.87 71.6996C142.87 71.3428 142.877 70.9916 142.89 70.6459L154.763 68.7435L155.731 77.222Z" fill="#D7E9FF"/>
<path d="M201.593 91.8487C198.61 91.8487 195.828 91.4446 193.249 90.6364C190.721 89.7777 188.496 88.515 186.574 86.8481C184.703 85.1813 183.211 83.0851 182.098 80.5596C181.036 78.0341 180.505 75.0792 180.505 71.695C180.505 68.3613 181.036 65.5075 182.098 63.1335C183.211 60.709 184.652 58.7391 186.422 57.2238C188.192 55.658 190.215 54.5215 192.491 53.8143C194.766 53.0567 197.093 52.6779 199.469 52.6779C202.15 52.6779 204.577 53.0819 206.752 53.8901C208.977 54.6983 210.873 55.8095 212.441 57.2238C214.059 58.6381 215.298 60.3302 216.158 62.3001C217.068 64.27 217.523 66.4167 217.523 68.7402C217.523 70.4575 217.043 71.7708 216.082 72.68C215.121 73.5892 213.781 74.17 212.062 74.4226L193.325 77.2259C193.881 78.8927 195.019 80.1555 196.739 81.0142C198.458 81.8224 200.43 82.2264 202.655 82.2264C204.729 82.2264 206.676 81.9739 208.496 81.4688C210.367 80.9132 211.885 80.2818 213.048 79.5746C213.857 80.0797 214.54 80.7869 215.096 81.6961C215.652 82.6053 215.93 83.565 215.93 84.5752C215.93 86.8481 214.868 88.5402 212.744 89.6515C211.126 90.5101 209.306 91.091 207.283 91.3941C205.26 91.6971 203.363 91.8487 201.593 91.8487ZM199.469 62.0728C198.256 62.0728 197.194 62.2748 196.283 62.6789C195.424 63.083 194.716 63.6134 194.16 64.27C193.603 64.8761 193.173 65.5833 192.87 66.3914C192.617 67.1491 192.465 67.932 192.415 68.7402L205.386 66.6187C205.235 65.6085 204.678 64.5983 203.717 63.5881C202.757 62.5779 201.341 62.0728 199.469 62.0728Z" fill="#4D9FFF"/>
<path d="M193.361 77.2303L193.305 77.2391L181.515 78.9911C180.839 76.8369 180.5 74.4092 180.5 71.7079C180.5 71.3511 180.507 70.9999 180.52 70.6542L192.393 68.7518L193.361 77.2303Z" fill="#D7E9FF"/>
<path d="M257.152 44.7261C257.506 45.2817 257.809 46.0398 258.062 46.9995C258.365 47.9087 258.517 48.8682 258.517 49.8784C258.517 51.8484 258.087 53.2629 257.229 54.1216C256.42 54.9298 255.309 55.3335 253.895 55.3335H237.983V63.896H254.576C254.98 64.4516 255.309 65.184 255.562 66.0933C255.865 67.0024 256.017 67.962 256.017 68.9722C256.017 70.8914 255.587 72.2804 254.729 73.1392C253.92 73.9473 252.809 74.352 251.395 74.3521H238.135V90.3394C237.579 90.4909 236.695 90.6419 235.482 90.7935C234.321 90.945 233.159 91.021 231.997 91.021C230.835 91.021 229.8 90.9203 228.891 90.7183C228.032 90.5667 227.299 90.2636 226.693 89.8091C226.087 89.3545 225.633 88.7227 225.33 87.9146C225.027 87.1063 224.875 86.0453 224.875 84.7319V74.3657H238.127L237.993 63.9243H224.875V51.7729C224.875 49.6009 225.507 47.8834 226.77 46.6206C228.032 45.3578 229.75 44.7261 231.922 44.7261H257.152Z" fill="#4D9FFF"/>
<path d="M238.132 74.3647H224.88V63.9243H237.999L238.132 74.3647Z" fill="#D7E9FF"/>
<path d="M278.869 90.3392C278.313 90.4907 277.429 90.6418 276.217 90.7933C275.056 90.9449 273.894 91.0209 272.732 91.0209C271.57 91.0209 270.535 90.9201 269.625 90.7181C268.767 90.5666 268.034 90.2634 267.428 89.809C266.822 89.3544 266.367 88.7226 266.064 87.9144C265.761 87.1062 265.609 86.0451 265.609 84.7318V55.3578H278.869V90.3392ZM290.737 44.7025C291.044 45.2348 291.331 45.9248 291.598 46.7719C291.901 47.7315 292.053 48.7415 292.053 49.8021C292.053 51.7721 291.598 53.1866 290.689 54.0453C289.83 54.9039 288.694 55.3333 287.28 55.3334H278.873V44.7025H290.737ZM265.594 55.3334H254.244C253.89 54.7779 253.562 54.0203 253.259 53.0609C252.956 52.1012 252.804 51.0904 252.804 50.0297C252.804 48.0597 253.234 46.6452 254.092 45.7865C254.641 45.2682 255.282 44.908 256.015 44.7025H265.594V55.3334Z" fill="#4D9FFF"/>
<path d="M278.873 55.3329H278.869V55.3573H265.609V55.3329H265.594V44.702H278.873V55.3329Z" fill="#D7E9FF"/>
</g>
</g>
<defs>
<clipPath id="clip0_800_1310">
<rect width="610" height="126" fill="white"/>
</clipPath>
<clipPath id="clip1_800_1310">
<rect width="303.084" height="98.3422" fill="white" transform="translate(-1 13)"/>
</clipPath>
</defs>
</svg>
