<svg width="40" height="41" viewBox="0 0 40 41" fill="none" xmlns="http://www.w3.org/2000/svg">
<circle cx="20" cy="20.5" r="19" stroke="#FFB808" stroke-width="2"/>
<path d="M10 19.5C9.44772 19.5 9 19.9477 9 20.5C9 21.0523 9.44772 21.5 10 21.5V19.5ZM30.7071 21.2071C31.0976 20.8166 31.0976 20.1834 30.7071 19.7929L24.3431 13.4289C23.9526 13.0384 23.3195 13.0384 22.9289 13.4289C22.5384 13.8195 22.5384 14.4526 22.9289 14.8431L28.5858 20.5L22.9289 26.1569C22.5384 26.5474 22.5384 27.1805 22.9289 27.5711C23.3195 27.9616 23.9526 27.9616 24.3431 27.5711L30.7071 21.2071ZM10 20.5V21.5H30V20.5V19.5H10V20.5Z" fill="#FFB808"/>
</svg>
