<svg width="40" height="41" viewBox="0 0 40 41" fill="none" xmlns="http://www.w3.org/2000/svg">
<circle cx="20" cy="20.8047" r="19" stroke="#00749B" stroke-width="2"/>
<path d="M10 19.8047C9.44772 19.8047 9 20.2524 9 20.8047C9 21.357 9.44772 21.8047 10 21.8047V19.8047ZM30.7071 21.5118C31.0976 21.1213 31.0976 20.4881 30.7071 20.0976L24.3431 13.7336C23.9526 13.3431 23.3195 13.3431 22.9289 13.7336C22.5384 14.1241 22.5384 14.7573 22.9289 15.1478L28.5858 20.8047L22.9289 26.4615C22.5384 26.8521 22.5384 27.4852 22.9289 27.8758C23.3195 28.2663 23.9526 28.2663 24.3431 27.8758L30.7071 21.5118ZM10 20.8047V21.8047H30V20.8047V19.8047H10V20.8047Z" fill="#00749B"/>
</svg>
