<svg width="54" height="54" viewBox="0 0 54 54" fill="none" xmlns="http://www.w3.org/2000/svg">
<circle cx="27" cy="27" r="27" fill="url(#paint0_linear_883_699)"/>
<path d="M14.04 26C13.4878 26 13.04 26.4477 13.04 27C13.04 27.5523 13.4878 28 14.04 28V27V26ZM40.6671 27.7071C41.0577 27.3166 41.0577 26.6834 40.6671 26.2929L34.3032 19.9289C33.9127 19.5384 33.2795 19.5384 32.889 19.9289C32.4984 20.3195 32.4984 20.9526 32.889 21.3431L38.5458 27L32.889 32.6569C32.4984 33.0474 32.4984 33.6805 32.889 34.0711C33.2795 34.4616 33.9127 34.4616 34.3032 34.0711L40.6671 27.7071ZM14.04 27V28H39.96V27V26H14.04V27Z" fill="white"/>
<defs>
<linearGradient id="paint0_linear_883_699" x1="55.9886" y1="44.3539" x2="11.0114" y2="8.6461" gradientUnits="userSpaceOnUse">
<stop stop-color="#E48218"/>
<stop offset="1" stop-color="#FED222"/>
</linearGradient>
</defs>
</svg>
