<svg width="50" height="50" viewBox="0 0 50 50" fill="none" xmlns="http://www.w3.org/2000/svg">
<circle cx="25" cy="25" r="24" stroke="#FE7222" stroke-width="2"/>
<path d="M13 24C12.4477 24 12 24.4477 12 25C12 25.5523 12.4477 26 13 26V24ZM37.7071 25.7071C38.0976 25.3166 38.0976 24.6834 37.7071 24.2929L31.3431 17.9289C30.9526 17.5384 30.3195 17.5384 29.9289 17.9289C29.5384 18.3195 29.5384 18.9526 29.9289 19.3431L35.5858 25L29.9289 30.6569C29.5384 31.0474 29.5384 31.6805 29.9289 32.0711C30.3195 32.4616 30.9526 32.4616 31.3431 32.0711L37.7071 25.7071ZM13 25V26H37V25V24H13V25Z" fill="#FE7222"/>
</svg>
