<svg width="99" height="99" viewBox="0 0 99 99" fill="none" xmlns="http://www.w3.org/2000/svg">
<path fill-rule="evenodd" clip-rule="evenodd" d="M11.749 81.3785C4.417 72.752 0 61.5959 0 49.4071C0 22.1393 22.1393 0 49.4071 0C60.4298 0 70.6176 3.6166 78.834 9.7332C75.7263 9.87154 72.5988 10.9239 69.8913 12.915C63.8389 17.3468 57.7421 23.7549 56.2105 36.3982C55.4447 42.7026 57.5049 48.5128 59.4713 52.4259C58.2559 52.1986 57.0306 52.2381 55.8696 52.5049C55.4891 52.5939 55.1087 52.7075 54.7381 52.8508C48.3202 54.7876 46.1462 51.4476 45.4101 48.9032C45.4842 47.9842 45.5435 46.9269 45.5435 46.2204C45.5435 38.1324 38.9773 31.5613 30.8943 31.5613C22.8113 31.5613 16.2451 38.1324 16.2451 46.2204C16.2451 49.1897 17.1393 51.9615 18.6561 54.2688C19.0168 54.8073 19.4071 55.331 19.832 55.8202C21.1561 57.7421 23.0929 61.1858 22.8804 64.6393C22.5642 69.8172 19.496 75.0593 17.8014 76.4674C16.166 77.8261 12.0405 81.1561 11.754 81.3883L11.749 81.3785ZM94.4121 29.002C97.2332 35.2223 98.8142 42.1344 98.8142 49.4071C98.8142 76.6749 76.67 98.8142 49.4071 98.8142C35.6868 98.8142 23.2609 93.2065 14.3083 84.17C17.8458 82.8903 26.665 78.6413 33.8439 71.4723C39.2589 66.0672 41.6206 62.9694 43.1225 59.0366V59.0514C47.0356 69.9753 54.0069 70.2223 54.5059 70.3261C59.3478 71.2895 64.5208 68.9526 66.2401 64.333C67.1591 61.8676 66.9219 59.2589 65.8004 57.0949C65.9239 56.8231 65.9881 56.5316 65.9881 56.2401C65.9881 56.2401 60.8844 40.8152 78.6413 40.5632C79.3281 40.5978 80.0148 40.583 80.6966 40.5336C83.6117 40.2915 86.4921 39.2342 88.9723 37.2925C91.749 35.1235 93.587 32.1838 94.4121 29.002Z" fill="url(#paint0_radial_1102_2482)"/>
<defs>
<radialGradient id="paint0_radial_1102_2482" cx="0" cy="0" r="1" gradientUnits="userSpaceOnUse" gradientTransform="translate(63.9822 5.43478) rotate(107.337) scale(97.8236)">
<stop offset="0.291952" stop-color="#FFCB00"/>
<stop offset="0.604871" stop-color="#F0932E"/>
<stop offset="0.902126" stop-color="#FF592B"/>
</radialGradient>
</defs>
</svg>
