<svg width="34" height="34" viewBox="0 0 34 34" fill="none" xmlns="http://www.w3.org/2000/svg">
<path fill-rule="evenodd" clip-rule="evenodd" d="M4.04256 28.0008C1.51978 25.0326 0 21.194 0 17.0001C0 7.61775 7.61765 0 16.9999 0C20.7926 0 24.298 1.24439 27.1251 3.34904C26.0558 3.39662 24.9797 3.7587 24.0481 4.44381C21.9656 5.96873 19.8678 8.17363 19.3408 12.524C19.0773 14.6932 19.7862 16.6924 20.4628 18.0388C20.0446 17.9606 19.623 17.9742 19.2235 18.066C19.0926 18.0966 18.9617 18.1357 18.8342 18.185C16.6259 18.8514 15.8779 17.7022 15.6246 16.8267C15.6501 16.5105 15.6705 16.1467 15.6705 15.9036C15.6705 13.1207 13.4112 10.8597 10.63 10.8597C7.84886 10.8597 5.58958 13.1207 5.58958 15.9036C5.58958 16.9253 5.89726 17.879 6.41917 18.6729C6.54327 18.8582 6.67758 19.0384 6.82375 19.2067C7.27936 19.868 7.94576 21.0529 7.87265 22.2412C7.76386 24.0228 6.70814 25.8265 6.12507 26.311C5.56238 26.7785 4.14286 27.9243 4.04428 28.0043L4.04256 28.0008ZM32.4852 9.97904C33.456 12.1194 34 14.4977 34 17.0001C34 26.3824 26.3805 34 16.9999 34C12.2791 34 8.00356 32.0706 4.92318 28.9614C6.14037 28.521 9.17484 27.059 11.6449 24.5923C13.5081 22.7325 14.3207 21.6666 14.8375 20.3134V20.3185C16.1839 24.0772 18.5826 24.1622 18.7543 24.1979C20.4203 24.5294 22.2002 23.7253 22.7918 22.1358C23.108 21.2875 23.0264 20.3899 22.6405 19.6453C22.683 19.5518 22.7051 19.4515 22.7051 19.3512C22.7051 19.3512 20.949 14.0438 27.0588 13.9571C27.2951 13.969 27.5314 13.9639 27.766 13.9469C28.769 13.8636 29.7601 13.4998 30.6134 12.8317C31.5689 12.0854 32.201 11.0739 32.4852 9.97904Z" fill="white"/>
</svg>
