<svg width="1308" height="624" viewBox="0 0 1308 624" fill="none" xmlns="http://www.w3.org/2000/svg">
<g filter="url(#filter0_d_457_4283)">
<g clip-path="url(#clip0_457_4283)">
<rect x="24" y="20" width="1260" height="576" rx="30" fill="#FFEA8D" fill-opacity="0.6" shape-rendering="crispEdges"/>
<path d="M968 315.973C968 434.44 830.775 488 661.5 488C492.225 488 355 434.44 355 315.973C355 197.506 479.225 122 648.5 122C817.775 122 968 197.506 968 315.973Z" fill="white"/>
<path fill-rule="evenodd" clip-rule="evenodd" d="M848.962 451.061C841.951 442.805 837.727 432.128 837.727 420.464C837.727 394.368 858.899 373.18 884.976 373.18C895.518 373.18 905.261 376.641 913.118 382.495C910.146 382.627 907.155 383.634 904.566 385.54C898.778 389.781 892.947 395.914 891.483 408.014C890.75 414.047 892.721 419.608 894.601 423.353C893.439 423.135 892.267 423.173 891.157 423.428C890.793 423.513 890.429 423.622 890.075 423.759C883.937 425.613 881.858 422.416 881.154 419.981C881.225 419.102 881.281 418.09 881.281 417.414C881.281 409.673 875.002 403.385 867.272 403.385C859.542 403.385 853.262 409.673 853.262 417.414C853.262 420.255 854.117 422.908 855.568 425.116C855.913 425.632 856.286 426.133 856.693 426.601C857.959 428.44 859.811 431.736 859.608 435.041C859.306 439.996 856.371 445.013 854.751 446.361C853.187 447.661 849.241 450.848 848.967 451.07L848.962 451.061ZM928.016 400.935C930.715 406.888 932.227 413.503 932.227 420.464C932.227 446.559 911.049 467.747 884.976 467.747C871.855 467.747 859.972 462.381 851.41 453.732C854.793 452.508 863.227 448.441 870.093 441.58C875.271 436.408 877.53 433.443 878.966 429.679V429.693C882.708 440.148 889.375 440.384 889.852 440.483C894.483 441.405 899.43 439.169 901.074 434.748C901.953 432.389 901.726 429.892 900.654 427.821C900.772 427.561 900.833 427.282 900.833 427.003C900.833 427.003 895.952 412.241 912.934 412C913.591 412.033 914.248 412.019 914.9 411.971C917.687 411.74 920.442 410.728 922.814 408.87C925.47 406.794 927.227 403.98 928.016 400.935Z" fill="url(#paint0_radial_457_4283)"/>
<ellipse cx="348.5" cy="357" rx="6.5" ry="6" fill="#00749B"/>
<path d="M586.982 289V259.52H591.622V289H586.982ZM605.285 289V263.44H596.685V259.52H618.645V263.44H610.005V289H605.285ZM642.938 261.64C642.672 263.693 642.325 265.867 641.898 268.16C641.498 270.427 640.952 272.68 640.258 274.92C639.458 277.64 638.552 279.947 637.538 281.84C636.552 283.707 635.472 285.133 634.298 286.12C633.125 287.107 631.885 287.6 630.578 287.6C629.245 287.6 628.005 287.147 626.858 286.24C625.712 285.307 624.778 284.013 624.058 282.36C623.338 280.68 622.978 278.733 622.978 276.52C622.978 274.28 623.432 272.16 624.338 270.16C625.272 268.16 626.552 266.387 628.178 264.84C629.805 263.293 631.698 262.08 633.858 261.2C636.018 260.32 638.352 259.88 640.858 259.88C643.258 259.88 645.418 260.267 647.338 261.04C649.285 261.813 650.938 262.893 652.298 264.28C653.685 265.64 654.738 267.24 655.458 269.08C656.178 270.92 656.538 272.88 656.538 274.96C656.538 277.76 655.952 280.253 654.778 282.44C653.632 284.6 651.938 286.373 649.698 287.76C647.458 289.12 644.712 290.04 641.458 290.52L639.098 286.76C639.792 286.68 640.432 286.6 641.018 286.52C641.605 286.413 642.152 286.307 642.658 286.2C643.938 285.907 645.152 285.453 646.298 284.84C647.472 284.227 648.512 283.453 649.418 282.52C650.325 281.56 651.032 280.44 651.538 279.16C652.072 277.88 652.338 276.44 652.338 274.84C652.338 273.24 652.085 271.76 651.578 270.4C651.072 269.013 650.325 267.813 649.338 266.8C648.352 265.787 647.138 265 645.698 264.44C644.258 263.853 642.632 263.56 640.818 263.56C638.632 263.56 636.685 263.947 634.978 264.72C633.272 265.493 631.818 266.52 630.618 267.8C629.445 269.053 628.552 270.413 627.938 271.88C627.325 273.347 627.018 274.76 627.018 276.12C627.018 277.64 627.205 278.907 627.578 279.92C627.952 280.907 628.418 281.64 628.978 282.12C629.538 282.6 630.112 282.84 630.698 282.84C631.285 282.84 631.885 282.547 632.498 281.96C633.112 281.347 633.725 280.387 634.338 279.08C634.978 277.773 635.605 276.107 636.218 274.08C636.832 272.16 637.338 270.12 637.738 267.96C638.165 265.773 638.472 263.64 638.658 261.56L642.938 261.64ZM663.058 263.8H693.938V267.68H663.058V263.8ZM692.418 263.8H696.378C696.378 263.8 696.365 263.933 696.338 264.2C696.338 264.44 696.325 264.707 696.298 265C696.298 265.267 696.285 265.493 696.258 265.68C696.045 269.76 695.832 273.24 695.618 276.12C695.405 279 695.165 281.387 694.898 283.28C694.632 285.147 694.325 286.627 693.978 287.72C693.658 288.787 693.272 289.573 692.818 290.08C692.285 290.747 691.725 291.2 691.138 291.44C690.578 291.68 689.885 291.853 689.058 291.96C688.365 292.04 687.432 292.067 686.258 292.04C685.085 292.04 683.885 292.013 682.658 291.96C682.632 291.4 682.498 290.747 682.258 290C682.018 289.253 681.712 288.6 681.338 288.04C682.672 288.173 683.898 288.253 685.018 288.28C686.165 288.28 686.992 288.28 687.498 288.28C687.925 288.28 688.272 288.24 688.538 288.16C688.832 288.08 689.112 287.92 689.378 287.68C689.725 287.307 690.045 286.613 690.338 285.6C690.658 284.587 690.938 283.173 691.178 281.36C691.418 279.547 691.632 277.267 691.818 274.52C692.032 271.747 692.232 268.427 692.418 264.56V263.8ZM675.818 255.32H679.818V262.84C679.818 264.653 679.725 266.587 679.538 268.64C679.378 270.667 679.032 272.747 678.498 274.88C677.965 277.013 677.152 279.12 676.058 281.2C674.965 283.28 673.498 285.293 671.658 287.24C669.845 289.16 667.565 290.933 664.818 292.56C664.605 292.24 664.325 291.88 663.978 291.48C663.658 291.107 663.298 290.733 662.898 290.36C662.525 290.013 662.178 289.733 661.858 289.52C664.445 288.027 666.578 286.413 668.258 284.68C669.965 282.947 671.325 281.147 672.338 279.28C673.352 277.387 674.098 275.493 674.578 273.6C675.085 271.68 675.418 269.813 675.578 268C675.738 266.16 675.818 264.44 675.818 262.84V255.32ZM702.898 262.2C703.672 262.173 704.378 262.147 705.018 262.12C705.685 262.067 706.218 262.027 706.618 262C707.338 261.92 708.298 261.827 709.498 261.72C710.725 261.587 712.112 261.453 713.658 261.32C715.205 261.187 716.858 261.04 718.618 260.88C720.378 260.72 722.178 260.56 724.018 260.4C725.432 260.293 726.805 260.2 728.138 260.12C729.498 260.013 730.765 259.933 731.938 259.88C733.112 259.8 734.152 259.747 735.058 259.72V263.76C734.312 263.733 733.458 263.733 732.498 263.76C731.565 263.787 730.632 263.84 729.698 263.92C728.792 264 727.978 264.133 727.258 264.32C725.952 264.72 724.752 265.347 723.658 266.2C722.565 267.053 721.618 268.04 720.818 269.16C720.045 270.28 719.445 271.467 719.018 272.72C718.618 273.973 718.418 275.187 718.418 276.36C718.418 277.827 718.658 279.107 719.138 280.2C719.645 281.267 720.338 282.187 721.218 282.96C722.098 283.707 723.112 284.333 724.258 284.84C725.405 285.32 726.618 285.68 727.898 285.92C729.205 286.16 730.512 286.307 731.818 286.36L730.378 290.64C728.805 290.56 727.245 290.32 725.698 289.92C724.152 289.547 722.698 289.013 721.338 288.32C719.978 287.6 718.765 286.707 717.698 285.64C716.658 284.573 715.832 283.347 715.218 281.96C714.632 280.573 714.338 279 714.338 277.24C714.338 275.213 714.672 273.347 715.338 271.64C716.032 269.933 716.898 268.453 717.938 267.2C718.978 265.92 720.045 264.933 721.138 264.24C720.338 264.32 719.352 264.427 718.178 264.56C717.005 264.667 715.738 264.8 714.378 264.96C713.045 265.12 711.698 265.293 710.338 265.48C708.978 265.64 707.685 265.813 706.458 266C705.258 266.187 704.205 266.373 703.298 266.56L702.898 262.2ZM729.298 268.2C729.618 268.653 729.978 269.213 730.378 269.88C730.778 270.52 731.178 271.187 731.578 271.88C731.978 272.547 732.312 273.16 732.578 273.72L730.098 274.84C729.618 273.827 729.112 272.853 728.578 271.92C728.072 270.987 727.512 270.093 726.898 269.24L729.298 268.2ZM733.738 266.48C734.058 266.933 734.432 267.48 734.858 268.12C735.285 268.733 735.698 269.373 736.098 270.04C736.498 270.707 736.845 271.333 737.138 271.92L734.698 273.08C734.165 272.067 733.632 271.12 733.098 270.24C732.565 269.333 731.978 268.44 731.338 267.56L733.738 266.48ZM456.545 309.28H478.745V312.8H456.545V309.28ZM457.305 318.28H474.745V321.72H457.305V318.28ZM465.625 303.24H469.385V320.16H465.625V303.24ZM461.785 320.92C463.278 324.893 465.571 328.307 468.665 331.16C471.785 333.987 475.638 335.987 480.225 337.16C479.958 337.4 479.665 337.707 479.345 338.08C479.025 338.48 478.731 338.88 478.465 339.28C478.198 339.707 477.971 340.08 477.785 340.4C472.985 338.987 468.998 336.707 465.825 333.56C462.651 330.413 460.171 326.533 458.385 321.92L461.785 320.92ZM474.385 318.28H475.065L475.745 318.12L478.185 319.16C477.331 322.067 476.185 324.667 474.745 326.96C473.331 329.227 471.665 331.227 469.745 332.96C467.851 334.693 465.758 336.16 463.465 337.36C461.198 338.587 458.798 339.573 456.265 340.32C456.158 339.973 455.985 339.587 455.745 339.16C455.531 338.76 455.291 338.347 455.025 337.92C454.758 337.493 454.505 337.16 454.265 336.92C456.585 336.333 458.811 335.52 460.945 334.48C463.105 333.413 465.065 332.133 466.825 330.64C468.611 329.12 470.145 327.387 471.425 325.44C472.731 323.467 473.718 321.28 474.385 318.88V318.28ZM442.625 324.04C443.745 323.773 445.025 323.467 446.465 323.12C447.931 322.747 449.465 322.347 451.065 321.92C452.691 321.467 454.291 321.04 455.865 320.64L456.345 324.08C454.158 324.72 451.945 325.36 449.705 326C447.491 326.613 445.465 327.173 443.625 327.68L442.625 324.04ZM443.105 311.12H455.985V314.64H443.105V311.12ZM448.065 303.24H451.785V336C451.785 336.987 451.665 337.747 451.425 338.28C451.185 338.813 450.771 339.227 450.185 339.52C449.598 339.813 448.838 340 447.905 340.08C446.971 340.187 445.811 340.227 444.425 340.2C444.345 339.72 444.198 339.147 443.985 338.48C443.771 337.84 443.545 337.267 443.305 336.76C444.185 336.787 444.998 336.8 445.745 336.8C446.518 336.8 447.038 336.787 447.305 336.76C447.811 336.76 448.065 336.507 448.065 336V303.24ZM483.705 314.4H519.065V318.32H483.705V314.4ZM503.625 315.96C504.478 319.107 505.625 322.04 507.065 324.76C508.531 327.48 510.318 329.867 512.425 331.92C514.558 333.947 517.025 335.547 519.825 336.72C519.505 336.987 519.158 337.333 518.785 337.76C518.438 338.187 518.105 338.613 517.785 339.04C517.465 339.493 517.198 339.893 516.985 340.24C514.025 338.853 511.438 337.027 509.225 334.76C507.038 332.467 505.185 329.813 503.665 326.8C502.145 323.787 500.865 320.48 499.825 316.88L503.625 315.96ZM499.225 303.24H503.345C503.345 305.133 503.291 307.173 503.185 309.36C503.105 311.52 502.905 313.747 502.585 316.04C502.265 318.333 501.745 320.627 501.025 322.92C500.305 325.213 499.305 327.427 498.025 329.56C496.745 331.693 495.105 333.68 493.105 335.52C491.105 337.333 488.665 338.92 485.785 340.28C485.465 339.773 485.038 339.213 484.505 338.6C483.971 338.013 483.438 337.52 482.905 337.12C485.678 335.867 488.011 334.413 489.905 332.76C491.825 331.08 493.371 329.267 494.545 327.32C495.745 325.347 496.665 323.307 497.305 321.2C497.945 319.093 498.398 316.987 498.665 314.88C498.931 312.773 499.091 310.733 499.145 308.76C499.198 306.787 499.225 304.947 499.225 303.24ZM531.105 303.24L534.705 303.88C533.638 305.987 532.265 308.093 530.585 310.2C528.931 312.28 526.878 314.173 524.425 315.88C524.238 315.587 523.998 315.293 523.705 315C523.438 314.68 523.145 314.373 522.825 314.08C522.531 313.787 522.251 313.56 521.985 313.4C523.478 312.44 524.811 311.387 525.985 310.24C527.158 309.093 528.171 307.92 529.025 306.72C529.905 305.52 530.598 304.36 531.105 303.24ZM530.905 305.76H538.985V308.4H529.305L530.905 305.76ZM538.065 305.76H538.745L539.385 305.64L541.665 306.6C540.758 309.827 539.438 312.667 537.705 315.12C535.998 317.547 533.998 319.613 531.705 321.32C529.438 323 526.998 324.333 524.385 325.32C524.171 324.893 523.865 324.387 523.465 323.8C523.065 323.187 522.691 322.707 522.345 322.36C524.131 321.773 525.838 320.987 527.465 320C529.118 319.013 530.638 317.84 532.025 316.48C533.438 315.12 534.651 313.6 535.665 311.92C536.705 310.213 537.505 308.373 538.065 306.4V305.76ZM528.585 310.48L530.305 308.72C530.998 309.067 531.731 309.467 532.505 309.92C533.278 310.373 534.011 310.827 534.705 311.28C535.398 311.707 535.971 312.107 536.425 312.48L534.665 314.44C534.211 314.067 533.638 313.64 532.945 313.16C532.278 312.68 531.558 312.213 530.785 311.76C530.011 311.28 529.278 310.853 528.585 310.48ZM547.585 331.96L550.705 330.12C551.665 330.867 552.665 331.693 553.705 332.6C554.771 333.48 555.758 334.373 556.665 335.28C557.571 336.187 558.305 337.013 558.865 337.76L555.585 339.88C555.051 339.16 554.345 338.333 553.465 337.4C552.585 336.467 551.625 335.52 550.585 334.56C549.571 333.6 548.571 332.733 547.585 331.96ZM525.145 314.2L527.185 312.52C527.825 312.947 528.505 313.427 529.225 313.96C529.971 314.467 530.678 314.973 531.345 315.48C532.011 315.96 532.558 316.413 532.985 316.84L530.865 318.72C530.465 318.293 529.945 317.813 529.305 317.28C528.665 316.747 527.971 316.213 527.225 315.68C526.505 315.12 525.811 314.627 525.145 314.2ZM546.665 305.72H556.025V308.88H546.665V305.72ZM534.025 317.92H549.425V321.32H534.025V317.92ZM526.145 325.24H556.865V328.68H526.145V325.24ZM555.105 305.72H555.945L556.665 305.52L559.145 307.2C558.478 308.453 557.705 309.733 556.825 311.04C555.945 312.347 554.998 313.587 553.985 314.76C552.971 315.907 551.958 316.907 550.945 317.76C550.678 317.413 550.305 317.013 549.825 316.56C549.371 316.08 548.971 315.707 548.625 315.44C549.478 314.667 550.331 313.76 551.185 312.72C552.038 311.68 552.798 310.613 553.465 309.52C554.158 308.427 554.705 307.413 555.105 306.48V305.72ZM544.505 303.72C545.305 306.6 546.411 309.227 547.825 311.6C549.265 313.973 551.038 316.013 553.145 317.72C555.251 319.4 557.718 320.68 560.545 321.56C560.278 321.827 559.985 322.147 559.665 322.52C559.371 322.867 559.091 323.24 558.825 323.64C558.558 324.04 558.345 324.413 558.185 324.76C555.171 323.64 552.571 322.133 550.385 320.24C548.198 318.347 546.358 316.067 544.865 313.4C543.371 310.733 542.158 307.733 541.225 304.4L544.505 303.72ZM539.505 326.92H543.305V336.52C543.305 337.453 543.171 338.173 542.905 338.68C542.665 339.213 542.171 339.613 541.425 339.88C540.705 340.147 539.798 340.307 538.705 340.36C537.611 340.413 536.291 340.427 534.745 340.4C534.665 339.893 534.491 339.32 534.225 338.68C533.985 338.067 533.745 337.52 533.505 337.04C534.251 337.067 534.971 337.08 535.665 337.08C536.385 337.107 537.011 337.107 537.545 337.08C538.078 337.08 538.451 337.08 538.665 337.08C539.011 337.08 539.238 337.04 539.345 336.96C539.451 336.853 539.505 336.68 539.505 336.44V326.92ZM530.505 330.08L534.265 331.16C533.305 332.813 532.091 334.387 530.625 335.88C529.158 337.373 527.691 338.627 526.225 339.64C526.011 339.4 525.718 339.12 525.345 338.8C524.971 338.507 524.585 338.2 524.185 337.88C523.785 337.587 523.438 337.347 523.145 337.16C524.611 336.307 526.011 335.267 527.345 334.04C528.678 332.787 529.731 331.467 530.505 330.08ZM571.505 318.92V333.36H567.865V322.44H563.025V318.92H571.505ZM571.505 331.84C572.358 333.253 573.571 334.293 575.145 334.96C576.745 335.627 578.665 336.013 580.905 336.12C582.051 336.147 583.438 336.173 585.065 336.2C586.718 336.2 588.438 336.2 590.225 336.2C592.038 336.173 593.798 336.133 595.505 336.08C597.211 336 598.705 335.92 599.985 335.84C599.851 336.107 599.705 336.467 599.545 336.92C599.385 337.347 599.238 337.787 599.105 338.24C598.971 338.72 598.865 339.147 598.785 339.52C597.611 339.573 596.238 339.613 594.665 339.64C593.118 339.693 591.505 339.72 589.825 339.72C588.145 339.747 586.518 339.747 584.945 339.72C583.398 339.693 582.038 339.667 580.865 339.64C578.331 339.533 576.171 339.12 574.385 338.4C572.625 337.707 571.131 336.573 569.905 335C569.051 335.827 568.171 336.653 567.265 337.48C566.385 338.307 565.438 339.16 564.425 340.04L562.585 336.28C563.438 335.667 564.358 334.973 565.345 334.2C566.331 333.427 567.278 332.64 568.185 331.84H571.505ZM563.305 306.36L566.185 304.24C566.985 304.853 567.798 305.547 568.625 306.32C569.478 307.067 570.251 307.827 570.945 308.6C571.638 309.347 572.198 310.053 572.625 310.72L569.505 313.08C569.131 312.413 568.598 311.693 567.905 310.92C567.238 310.12 566.491 309.32 565.665 308.52C564.865 307.72 564.078 307 563.305 306.36ZM584.265 308.2H587.945V335.08H584.265V308.2ZM579.065 322.32V324.56H593.305V322.32H579.065ZM579.065 317.84V320H593.305V317.84H579.065ZM575.785 315.4H596.705V327H575.785V315.4ZM573.745 304.56H598.785V309.92H595.225V307.36H577.105V309.92H573.745V304.56ZM574.745 310.68H597.625V313.4H574.745V310.68ZM573.225 328.96H599.345V331.8H573.225V328.96ZM614.425 318.2V322.04H628.345V318.2H614.425ZM610.905 315.36H632.065V324.88H610.905V315.36ZM618.985 323.6L623.225 323.92C622.851 324.96 622.451 325.973 622.025 326.96C621.625 327.947 621.238 328.787 620.865 329.48L617.585 329C617.851 328.2 618.118 327.293 618.385 326.28C618.651 325.267 618.851 324.373 618.985 323.6ZM607.865 327.76H635.505V340.4H631.745V331.08H611.465V340.44H607.865V327.76ZM609.825 335.68H633.345V339H609.825V335.68ZM604.785 309.52H638.345V317.72H634.665V312.76H608.225V317.72H604.785V309.52ZM632.065 303.52L636.025 304.8C635.225 305.92 634.371 307.04 633.465 308.16C632.585 309.253 631.771 310.187 631.025 310.96L627.945 309.76C628.425 309.2 628.918 308.56 629.425 307.84C629.931 307.093 630.411 306.347 630.865 305.6C631.345 304.853 631.745 304.16 632.065 303.52ZM607.065 305.2L610.305 303.8C611.025 304.573 611.731 305.453 612.425 306.44C613.145 307.4 613.665 308.253 613.985 309L610.585 310.52C610.265 309.8 609.771 308.933 609.105 307.92C608.438 306.907 607.758 306 607.065 305.2ZM617.065 304.28L620.385 303.12C620.971 303.947 621.571 304.893 622.185 305.96C622.798 307 623.238 307.893 623.505 308.64L620.025 309.96C619.785 309.187 619.385 308.267 618.825 307.2C618.265 306.133 617.678 305.16 617.065 304.28ZM660.185 305.16C660.025 305.933 659.798 306.88 659.505 308C659.238 309.093 658.838 310.333 658.305 311.72C657.851 312.84 657.291 313.987 656.625 315.16C655.985 316.333 655.318 317.4 654.625 318.36C655.078 318.093 655.598 317.88 656.185 317.72C656.798 317.533 657.411 317.4 658.025 317.32C658.665 317.213 659.238 317.16 659.745 317.16C661.345 317.16 662.691 317.627 663.785 318.56C664.878 319.467 665.425 320.787 665.425 322.52C665.425 323.053 665.425 323.707 665.425 324.48C665.425 325.253 665.438 326.067 665.465 326.92C665.491 327.773 665.505 328.613 665.505 329.44C665.531 330.267 665.545 330.987 665.545 331.6H661.745C661.771 331.093 661.798 330.507 661.825 329.84C661.851 329.147 661.865 328.427 661.865 327.68C661.891 326.933 661.905 326.213 661.905 325.52C661.905 324.827 661.905 324.213 661.905 323.68C661.878 322.48 661.518 321.613 660.825 321.08C660.131 320.547 659.318 320.28 658.385 320.28C657.185 320.28 655.985 320.56 654.785 321.12C653.611 321.68 652.598 322.36 651.745 323.16C651.185 323.72 650.598 324.36 649.985 325.08C649.398 325.8 648.771 326.587 648.105 327.44L644.665 324.88C646.505 323.147 648.065 321.493 649.345 319.92C650.625 318.347 651.678 316.853 652.505 315.44C653.358 314 654.025 312.64 654.505 311.36C654.931 310.267 655.278 309.16 655.545 308.04C655.811 306.893 655.971 305.827 656.025 304.84L660.185 305.16ZM645.865 309.2C646.931 309.36 648.105 309.48 649.385 309.56C650.665 309.613 651.785 309.64 652.745 309.64C654.531 309.64 656.465 309.6 658.545 309.52C660.625 309.44 662.718 309.307 664.825 309.12C666.958 308.933 668.971 308.667 670.865 308.32V312.04C669.451 312.227 667.945 312.4 666.345 312.56C664.745 312.72 663.118 312.853 661.465 312.96C659.811 313.04 658.225 313.107 656.705 313.16C655.185 313.187 653.798 313.2 652.545 313.2C651.985 313.2 651.318 313.2 650.545 313.2C649.798 313.173 649.011 313.133 648.185 313.08C647.385 313.027 646.611 312.987 645.865 312.96V309.2ZM676.945 319.6C676.571 319.733 676.131 319.88 675.625 320.04C675.145 320.2 674.665 320.373 674.185 320.56C673.705 320.747 673.265 320.92 672.865 321.08C671.505 321.613 669.918 322.253 668.105 323C666.318 323.747 664.478 324.613 662.585 325.6C661.305 326.267 660.198 326.933 659.265 327.6C658.331 328.267 657.598 328.96 657.065 329.68C656.558 330.4 656.305 331.187 656.305 332.04C656.305 332.733 656.465 333.293 656.785 333.72C657.105 334.147 657.545 334.48 658.105 334.72C658.691 334.933 659.385 335.093 660.185 335.2C661.011 335.28 661.931 335.32 662.945 335.32C664.545 335.32 666.358 335.227 668.385 335.04C670.411 334.853 672.305 334.6 674.065 334.28L673.945 338.32C672.985 338.427 671.865 338.533 670.585 338.64C669.305 338.773 667.985 338.867 666.625 338.92C665.291 339 664.025 339.04 662.825 339.04C660.825 339.04 659.025 338.853 657.425 338.48C655.825 338.107 654.558 337.467 653.625 336.56C652.691 335.627 652.225 334.333 652.225 332.68C652.225 331.373 652.518 330.2 653.105 329.16C653.718 328.093 654.505 327.133 655.465 326.28C656.451 325.427 657.545 324.64 658.745 323.92C659.945 323.2 661.131 322.547 662.305 321.96C663.558 321.293 664.718 320.72 665.785 320.24C666.878 319.733 667.891 319.28 668.825 318.88C669.785 318.48 670.678 318.08 671.505 317.68C672.198 317.387 672.851 317.107 673.465 316.84C674.078 316.547 674.691 316.24 675.305 315.92L676.945 319.6ZM684.745 305.88H716.105V309.64H688.545V340.36H684.745V305.88ZM714.345 305.88H718.145V335.68C718.145 336.773 717.998 337.627 717.705 338.24C717.438 338.853 716.918 339.32 716.145 339.64C715.425 339.96 714.465 340.16 713.265 340.24C712.065 340.32 710.571 340.36 708.785 340.36C708.731 339.987 708.625 339.573 708.465 339.12C708.305 338.667 708.131 338.213 707.945 337.76C707.758 337.307 707.558 336.907 707.345 336.56C708.225 336.587 709.065 336.613 709.865 336.64C710.665 336.64 711.371 336.64 711.985 336.64C712.625 336.613 713.065 336.6 713.305 336.6C713.678 336.6 713.945 336.533 714.105 336.4C714.265 336.24 714.345 335.987 714.345 335.64V305.88ZM686.825 320.68H716.145V324.44H686.825V320.68ZM699.305 307.84H703.065V322.56H699.305V307.84ZM739.065 326.08H753.265V328.84H739.065V326.08ZM739.065 331.2H753.265V333.96H739.065V331.2ZM737.385 320.84H753.305V323.76H740.905V340.4H737.385V320.84ZM744.465 309.96H753.345V312.4H747.345V316.84H744.465V309.96ZM752.025 320.84H755.545V336.8C755.545 337.653 755.438 338.307 755.225 338.76C755.011 339.24 754.598 339.613 753.985 339.88C753.371 340.12 752.585 340.267 751.625 340.32C750.691 340.373 749.518 340.4 748.105 340.4C748.051 339.947 747.918 339.44 747.705 338.88C747.518 338.32 747.318 337.827 747.105 337.4C748.011 337.427 748.865 337.44 749.665 337.44C750.491 337.467 751.038 337.48 751.305 337.48C751.571 337.453 751.758 337.387 751.865 337.28C751.971 337.2 752.025 337.04 752.025 336.8V320.84ZM733.505 315.44H759.505V322.56H755.865V318.4H736.985V322.56H733.505V315.44ZM737.465 304.68H755.545V316.96H751.945V307.64H740.905V316.96H737.465V304.68ZM724.865 306.28L726.905 303.52C727.758 303.867 728.638 304.28 729.545 304.76C730.478 305.213 731.358 305.693 732.185 306.2C733.011 306.707 733.678 307.187 734.185 307.64L731.985 310.76C731.505 310.28 730.865 309.773 730.065 309.24C729.265 308.68 728.411 308.147 727.505 307.64C726.598 307.107 725.718 306.653 724.865 306.28ZM722.625 317.16L724.705 314.32C725.531 314.613 726.411 314.987 727.345 315.44C728.278 315.867 729.171 316.333 730.025 316.84C730.878 317.32 731.571 317.787 732.105 318.24L729.905 321.4C729.398 320.947 728.731 320.467 727.905 319.96C727.105 319.427 726.238 318.92 725.305 318.44C724.398 317.933 723.505 317.507 722.625 317.16ZM723.825 337.4C724.491 336.36 725.238 335.133 726.065 333.72C726.891 332.307 727.731 330.8 728.585 329.2C729.438 327.6 730.225 326.04 730.945 324.52L733.825 326.84C733.185 328.253 732.478 329.72 731.705 331.24C730.958 332.76 730.185 334.253 729.385 335.72C728.611 337.16 727.851 338.52 727.105 339.8L723.825 337.4ZM779.385 309.56C780.558 309.747 781.878 309.88 783.345 309.96C784.838 310.04 786.371 310.067 787.945 310.04C789.518 310.013 791.025 309.96 792.465 309.88C793.905 309.8 795.145 309.693 796.185 309.56V313.64C795.038 313.747 793.745 313.84 792.305 313.92C790.865 313.973 789.371 314 787.825 314C786.305 314 784.811 313.973 783.345 313.92C781.878 313.84 780.571 313.747 779.425 313.64L779.385 309.56ZM781.665 326.2C781.505 326.893 781.371 327.52 781.265 328.08C781.185 328.64 781.145 329.2 781.145 329.76C781.145 330.213 781.238 330.64 781.425 331.04C781.638 331.44 781.971 331.787 782.425 332.08C782.905 332.373 783.545 332.613 784.345 332.8C785.171 332.96 786.185 333.04 787.385 333.04C789.198 333.04 790.891 332.96 792.465 332.8C794.065 332.613 795.691 332.333 797.345 331.96L797.425 336.24C796.171 336.48 794.705 336.68 793.025 336.84C791.371 336.973 789.465 337.04 787.305 337.04C783.918 337.04 781.411 336.493 779.785 335.4C778.185 334.28 777.385 332.747 777.385 330.8C777.385 330.08 777.438 329.333 777.545 328.56C777.651 327.76 777.825 326.867 778.065 325.88L781.665 326.2ZM772.425 306.68C772.345 306.92 772.238 307.24 772.105 307.64C771.998 308.013 771.891 308.4 771.785 308.8C771.705 309.173 771.638 309.48 771.585 309.72C771.451 310.387 771.291 311.2 771.105 312.16C770.945 313.093 770.771 314.12 770.585 315.24C770.425 316.333 770.265 317.453 770.105 318.6C769.971 319.72 769.851 320.813 769.745 321.88C769.665 322.947 769.625 323.92 769.625 324.8C769.625 325.493 769.638 326.2 769.665 326.92C769.718 327.613 769.785 328.333 769.865 329.08C770.105 328.547 770.345 327.987 770.585 327.4C770.825 326.787 771.065 326.187 771.305 325.6C771.545 325.013 771.771 324.48 771.985 324L773.985 325.6C773.638 326.587 773.265 327.68 772.865 328.88C772.465 330.08 772.105 331.227 771.785 332.32C771.491 333.387 771.278 334.253 771.145 334.92C771.091 335.187 771.038 335.507 770.985 335.88C770.931 336.227 770.918 336.52 770.945 336.76C770.945 336.947 770.945 337.173 770.945 337.44C770.971 337.733 770.998 338 771.025 338.24L767.385 338.48C766.985 337.093 766.638 335.267 766.345 333C766.051 330.733 765.905 328.253 765.905 325.56C765.905 324.067 765.971 322.56 766.105 321.04C766.238 319.493 766.398 318 766.585 316.56C766.771 315.12 766.958 313.8 767.145 312.6C767.358 311.4 767.518 310.4 767.625 309.6C767.705 309.093 767.771 308.547 767.825 307.96C767.905 307.373 767.958 306.813 767.985 306.28L772.425 306.68ZM827.255 305.08C827.229 305.24 827.189 305.52 827.135 305.92C827.109 306.32 827.082 306.72 827.055 307.12C827.029 307.52 827.015 307.813 827.015 308C826.989 308.507 826.962 309.213 826.935 310.12C826.935 311 826.935 311.973 826.935 313.04C826.935 314.107 826.935 315.187 826.935 316.28C826.962 317.347 826.975 318.36 826.975 319.32C827.002 320.253 827.015 321.04 827.015 321.68L823.135 320.08C823.135 319.653 823.135 319.053 823.135 318.28C823.135 317.48 823.122 316.587 823.095 315.6C823.095 314.587 823.082 313.587 823.055 312.6C823.055 311.613 823.042 310.707 823.015 309.88C823.015 309.053 823.002 308.427 822.975 308C822.922 307.36 822.855 306.76 822.775 306.2C822.722 305.64 822.682 305.267 822.655 305.08H827.255ZM805.375 310.4C806.522 310.373 807.802 310.347 809.215 310.32C810.655 310.293 812.175 310.267 813.775 310.24C815.375 310.187 816.962 310.147 818.535 310.12C820.135 310.067 821.655 310.04 823.095 310.04C824.535 310.013 825.815 310 826.935 310C828.082 310 829.255 310 830.455 310C831.655 310 832.802 310 833.895 310C834.989 310 835.975 310 836.855 310C837.762 310 838.469 310 838.975 310L838.895 313.76C837.749 313.707 836.189 313.667 834.215 313.64C832.269 313.587 829.815 313.56 826.855 313.56C825.095 313.56 823.282 313.573 821.415 313.6C819.549 313.627 817.669 313.68 815.775 313.76C813.909 313.813 812.095 313.88 810.335 313.96C808.602 314.04 806.989 314.133 805.495 314.24L805.375 310.4ZM826.655 322.08C826.655 324.053 826.389 325.693 825.855 327C825.349 328.28 824.615 329.253 823.655 329.92C822.695 330.56 821.535 330.88 820.175 330.88C819.349 330.88 818.535 330.733 817.735 330.44C816.962 330.147 816.242 329.707 815.575 329.12C814.935 328.507 814.415 327.773 814.015 326.92C813.642 326.04 813.455 325.04 813.455 323.92C813.455 322.507 813.789 321.267 814.455 320.2C815.149 319.107 816.055 318.253 817.175 317.64C818.322 317.027 819.562 316.72 820.895 316.72C822.549 316.72 823.922 317.093 825.015 317.84C826.135 318.587 826.975 319.6 827.535 320.88C828.095 322.133 828.375 323.56 828.375 325.16C828.375 326.467 828.175 327.827 827.775 329.24C827.375 330.627 826.709 331.973 825.775 333.28C824.842 334.587 823.575 335.787 821.975 336.88C820.402 337.947 818.429 338.827 816.055 339.52L812.655 336.16C814.442 335.787 816.055 335.293 817.495 334.68C818.935 334.04 820.175 333.267 821.215 332.36C822.255 331.427 823.055 330.333 823.615 329.08C824.202 327.8 824.495 326.32 824.495 324.64C824.495 323.04 824.135 321.88 823.415 321.16C822.722 320.44 821.869 320.08 820.855 320.08C820.242 320.08 819.655 320.227 819.095 320.52C818.535 320.813 818.082 321.24 817.735 321.8C817.389 322.36 817.215 323.04 817.215 323.84C817.215 324.96 817.575 325.84 818.295 326.48C819.042 327.093 819.895 327.4 820.855 327.4C821.629 327.4 822.282 327.187 822.815 326.76C823.375 326.307 823.762 325.613 823.975 324.68C824.189 323.72 824.135 322.507 823.815 321.04L826.655 322.08ZM850.895 307.08C851.402 307.133 851.935 307.173 852.495 307.2C853.082 307.227 853.615 307.24 854.095 307.24C854.495 307.24 855.135 307.24 856.015 307.24C856.922 307.213 857.935 307.187 859.055 307.16C860.202 307.133 861.335 307.107 862.455 307.08C863.575 307.027 864.575 306.973 865.455 306.92C866.362 306.867 867.029 306.827 867.455 306.8C868.175 306.747 868.722 306.693 869.095 306.64C869.495 306.587 869.802 306.52 870.015 306.44L872.215 309.32C871.815 309.587 871.402 309.853 870.975 310.12C870.549 310.387 870.122 310.693 869.695 311.04C869.189 311.413 868.522 311.933 867.695 312.6C866.895 313.24 866.029 313.96 865.095 314.76C864.162 315.533 863.242 316.293 862.335 317.04C861.429 317.787 860.615 318.453 859.895 319.04C860.695 318.773 861.495 318.6 862.295 318.52C863.095 318.413 863.895 318.36 864.695 318.36C866.909 318.36 868.895 318.787 870.655 319.64C872.415 320.493 873.802 321.64 874.815 323.08C875.829 324.52 876.335 326.187 876.335 328.08C876.335 330.187 875.775 332.067 874.655 333.72C873.562 335.373 871.962 336.667 869.855 337.6C867.775 338.533 865.242 339 862.255 339C860.415 339 858.802 338.747 857.415 338.24C856.029 337.733 854.949 337.027 854.175 336.12C853.429 335.187 853.055 334.12 853.055 332.92C853.055 331.933 853.322 331.013 853.855 330.16C854.415 329.28 855.189 328.587 856.175 328.08C857.189 327.547 858.349 327.28 859.655 327.28C861.469 327.28 862.975 327.653 864.175 328.4C865.402 329.12 866.335 330.08 866.975 331.28C867.642 332.48 868.002 333.787 868.055 335.2L864.415 335.72C864.335 334.12 863.869 332.813 863.015 331.8C862.189 330.787 861.069 330.28 859.655 330.28C858.802 330.28 858.095 330.507 857.535 330.96C857.002 331.413 856.735 331.947 856.735 332.56C856.735 333.44 857.175 334.133 858.055 334.64C858.962 335.147 860.122 335.4 861.535 335.4C863.802 335.4 865.735 335.12 867.335 334.56C868.935 333.973 870.149 333.133 870.975 332.04C871.802 330.92 872.215 329.573 872.215 328C872.215 326.747 871.842 325.627 871.095 324.64C870.349 323.653 869.322 322.893 868.015 322.36C866.709 321.8 865.215 321.52 863.535 321.52C861.935 321.52 860.469 321.707 859.135 322.08C857.829 322.427 856.602 322.947 855.455 323.64C854.309 324.307 853.175 325.147 852.055 326.16C850.962 327.147 849.829 328.28 848.655 329.56L845.735 326.6C846.535 325.96 847.415 325.24 848.375 324.44C849.335 323.64 850.295 322.84 851.255 322.04C852.242 321.213 853.162 320.44 854.015 319.72C854.895 318.973 855.629 318.36 856.215 317.88C856.775 317.427 857.455 316.88 858.255 316.24C859.055 315.573 859.882 314.88 860.735 314.16C861.589 313.44 862.402 312.76 863.175 312.12C863.949 311.453 864.589 310.893 865.095 310.44C864.669 310.467 864.082 310.493 863.335 310.52C862.589 310.547 861.762 310.587 860.855 310.64C859.975 310.667 859.082 310.707 858.175 310.76C857.269 310.787 856.442 310.827 855.695 310.88C854.949 310.907 854.375 310.933 853.975 310.96C853.495 310.987 852.989 311.027 852.455 311.08C851.949 311.107 851.469 311.147 851.015 311.2L850.895 307.08Z" fill="#FF8400"/>
<ellipse cx="396.98" cy="408.169" rx="25.2654" ry="23.665" transform="rotate(-32.7422 396.98 408.169)" fill="#54C2D1" fill-opacity="0.7"/>
<ellipse cx="363" cy="408" rx="13" ry="12" fill="#FFB808"/>
<path d="M291.769 283.467L264.981 247.128L282.961 291.026C283.956 293.455 284.153 295.502 283.552 297.166C282.979 298.819 281.796 300.013 280.004 300.747C278.268 301.458 276.609 301.446 275.024 300.71C273.428 299.946 272.126 298.334 271.119 295.876L250.509 245.559C249.372 242.783 249.331 240.621 250.386 239.075C251.429 237.499 253.18 236.208 255.638 235.201L259.628 233.567C262.029 232.584 263.853 232.09 265.1 232.085C266.377 232.069 267.506 232.518 268.489 233.433C269.471 234.347 270.816 235.941 272.524 238.213L296.03 269.26L291.002 230.644C290.625 227.827 290.466 225.748 290.524 224.407C290.583 223.066 291.058 221.959 291.951 221.087C292.872 220.203 294.533 219.27 296.933 218.287L300.924 216.652C303.382 215.645 305.535 215.337 307.384 215.728C309.22 216.09 310.707 217.659 311.844 220.436L332.455 270.753C333.45 273.182 333.646 275.229 333.045 276.894C332.473 278.547 331.275 279.746 329.454 280.492C327.747 281.191 326.096 281.158 324.5 280.394C322.903 279.63 321.608 278.033 320.613 275.604L302.632 231.706L309.033 276.396C309.446 279.3 309.69 281.462 309.766 282.883C309.858 284.264 309.548 285.691 308.835 287.165C308.122 288.639 306.767 289.785 304.772 290.602C303.268 291.218 301.86 291.407 300.546 291.168C299.244 290.958 298.097 290.466 297.104 289.69C296.111 288.915 295.193 287.991 294.348 286.919C293.521 285.806 292.661 284.655 291.769 283.467ZM342.72 226.683L356.738 260.908C357.709 263.279 357.88 265.303 357.25 266.98C356.619 268.656 355.437 269.85 353.701 270.56C351.966 271.271 350.295 271.23 348.686 270.436C347.107 269.631 345.844 268.072 344.896 265.758L331.02 231.881C330.06 229.538 329.873 227.555 330.457 225.931C331.07 224.296 332.244 223.122 333.98 222.412C335.715 221.701 337.389 221.707 339.002 222.431C340.616 223.155 341.855 224.572 342.72 226.683ZM331.853 216.849C330.205 217.525 328.581 217.599 326.98 217.072C325.409 216.534 324.244 215.34 323.486 213.489C322.799 211.812 322.829 210.195 323.577 208.639C324.341 207.043 325.519 205.919 327.109 205.268C328.642 204.64 330.202 204.575 331.791 205.072C333.379 205.57 334.558 206.759 335.328 208.638C336.074 210.46 336.082 212.128 335.352 213.643C334.61 215.129 333.444 216.198 331.853 216.849ZM403.749 231.977C405.087 235.245 405.441 238.375 404.81 241.369C404.167 244.334 402.533 247.064 399.907 249.557C397.299 252.011 393.768 254.149 389.314 255.973C385.063 257.714 381.153 258.556 377.584 258.499C374.014 258.441 371.11 257.74 368.87 256.394C366.619 255.02 365.09 253.35 364.285 251.383C363.752 250.082 363.758 248.779 364.305 247.475C364.851 246.17 365.833 245.228 367.25 244.648C368.493 244.138 369.572 244.051 370.486 244.386C371.4 244.721 372.385 245.313 373.443 246.163C375.522 247.777 377.613 248.761 379.717 249.115C381.85 249.457 384.376 249.03 387.297 247.834C389.668 246.862 391.393 245.548 392.47 243.891C393.564 242.193 393.833 240.665 393.277 239.306C392.424 237.224 391.007 236.031 389.025 235.728C387.073 235.414 384.111 235.563 380.141 236.176C375.649 236.834 371.891 237.141 368.868 237.096C365.861 237.01 363.218 236.371 360.939 235.177C358.66 233.983 356.976 232.055 355.886 229.395C354.915 227.024 354.705 224.492 355.258 221.801C355.81 219.109 357.205 216.579 359.443 214.211C361.698 211.801 364.777 209.797 368.681 208.198C371.747 206.942 374.624 206.135 377.314 205.776C380.032 205.405 382.421 205.424 384.478 205.83C386.565 206.225 388.294 206.901 389.666 207.859C391.066 208.805 392.021 209.9 392.531 211.143C393.087 212.502 393.081 213.805 392.511 215.052C391.969 216.287 390.86 217.247 389.183 217.934C387.968 218.432 386.785 218.511 385.633 218.173C384.511 217.822 383.115 217.178 381.448 216.24C380.078 215.45 378.643 214.957 377.144 214.761C375.645 214.564 373.855 214.892 371.773 215.745C369.633 216.622 368.044 217.813 367.006 219.319C365.956 220.796 365.71 222.214 366.266 223.573C366.776 224.816 367.717 225.63 369.089 226.013C370.45 226.367 372.119 226.443 374.097 226.241C376.074 226.039 378.764 225.681 382.166 225.165C386.206 224.557 389.637 224.401 392.46 224.697C395.311 224.981 397.679 225.733 399.564 226.954C401.465 228.134 402.86 229.808 403.749 231.977ZM451.898 212.255C453.236 215.523 453.59 218.654 452.959 221.647C452.316 224.612 450.681 227.342 448.056 229.836C445.447 232.289 441.916 234.427 437.463 236.251C433.212 237.993 429.302 238.834 425.732 238.777C422.163 238.719 419.258 238.018 417.019 236.672C414.767 235.298 413.239 233.628 412.434 231.662C411.901 230.36 411.907 229.057 412.454 227.753C413 226.449 413.982 225.506 415.399 224.926C416.642 224.416 417.721 224.329 418.635 224.664C419.548 224.999 420.534 225.591 421.591 226.441C423.671 228.055 425.762 229.039 427.866 229.393C429.998 229.735 432.525 229.308 435.446 228.112C437.817 227.14 439.541 225.826 440.619 224.169C441.713 222.471 441.982 220.943 441.425 219.584C440.572 217.502 439.155 216.309 437.174 216.006C435.221 215.692 432.26 215.841 428.29 216.454C423.798 217.112 420.04 217.419 417.016 217.374C414.009 217.289 411.367 216.649 409.088 215.455C406.809 214.261 405.125 212.333 404.035 209.673C403.064 207.302 402.854 204.77 403.406 202.079C403.959 199.387 405.354 196.857 407.592 194.489C409.847 192.079 412.926 190.075 416.83 188.476C419.895 187.22 422.773 186.413 425.463 186.054C428.181 185.684 430.569 185.702 432.627 186.108C434.714 186.503 436.443 187.179 437.814 188.137C439.215 189.083 440.17 190.178 440.679 191.421C441.236 192.78 441.229 194.083 440.659 195.33C440.118 196.565 439.009 197.526 437.332 198.213C436.117 198.71 434.934 198.789 433.782 198.451C432.659 198.1 431.264 197.456 429.597 196.518C428.226 195.729 426.792 195.235 425.293 195.039C423.794 194.842 422.004 195.171 419.922 196.023C417.782 196.9 416.193 198.091 415.155 199.597C414.105 201.074 413.858 202.492 414.415 203.851C414.924 205.094 415.865 205.908 417.238 206.291C418.599 206.645 420.268 206.722 422.245 206.52C424.222 206.318 426.912 205.959 430.314 205.443C434.354 204.835 437.785 204.679 440.608 204.975C443.46 205.259 445.828 206.012 447.713 207.232C449.614 208.412 451.009 210.086 451.898 212.255ZM463.135 177.361L477.153 211.585C478.124 213.957 478.295 215.98 477.665 217.657C477.034 219.333 475.852 220.527 474.117 221.238C472.381 221.948 470.71 221.907 469.102 221.114C467.522 220.309 466.259 218.749 465.311 216.436L451.435 182.558C450.475 180.216 450.288 178.233 450.872 176.609C451.485 174.973 452.66 173.8 454.395 173.089C456.13 172.378 457.804 172.385 459.417 173.109C461.031 173.832 462.27 175.25 463.135 177.361ZM452.268 167.527C450.62 168.202 448.996 168.276 447.395 167.75C445.824 167.212 444.659 166.017 443.901 164.166C443.214 162.489 443.245 160.873 443.992 159.317C444.756 157.721 445.934 156.597 447.524 155.945C449.057 155.317 450.618 155.252 452.206 155.75C453.794 156.247 454.973 157.436 455.743 159.316C456.49 161.138 456.498 162.806 455.767 164.321C455.025 165.807 453.859 166.875 452.268 167.527ZM526.849 171.525C528.294 175.053 529.077 178.531 529.198 181.96C529.319 185.389 528.777 188.599 527.572 191.592C526.366 194.585 524.554 197.252 522.136 199.593C519.706 201.905 516.684 203.802 513.069 205.283C509.483 206.751 506.022 207.494 502.685 207.51C499.349 207.526 496.187 206.896 493.199 205.621C490.229 204.305 487.596 202.411 485.301 199.941C483.022 197.429 481.155 194.395 479.698 190.838C478.229 187.252 477.434 183.745 477.313 180.316C477.192 176.888 477.726 173.697 478.914 170.745C480.103 167.793 481.926 165.155 484.385 162.831C486.832 160.478 489.819 158.579 493.347 157.134C496.933 155.665 500.423 154.911 503.818 154.871C507.212 154.832 510.389 155.455 513.348 156.743C516.306 158.03 518.925 159.929 521.203 162.44C523.51 164.94 525.392 167.968 526.849 171.525ZM514.964 176.393C512.985 171.564 510.376 168.243 507.134 166.43C503.921 164.605 500.522 164.427 496.936 165.896C494.623 166.844 492.833 168.286 491.566 170.223C490.288 172.131 489.651 174.452 489.657 177.185C489.662 179.919 490.304 182.847 491.583 185.97C492.851 189.064 494.421 191.578 496.294 193.513C498.196 195.435 500.269 196.663 502.513 197.196C504.775 197.688 507.091 197.448 509.462 196.477C513.048 195.008 515.346 192.497 516.355 188.943C517.382 185.348 516.918 181.165 514.964 176.393ZM539.798 145.756L540.384 147.188C541.341 143.588 542.788 140.648 544.725 138.369C546.679 136.049 549.261 134.232 552.471 132.917C555.594 131.638 558.663 131.174 561.677 131.526C564.692 131.879 567.316 133.05 569.549 135.039C570.922 136.165 572.068 137.519 572.986 139.102C573.905 140.684 574.897 142.777 575.963 145.38L584.989 167.415C585.96 169.787 586.145 171.805 585.544 173.469C584.971 175.122 583.818 176.304 582.082 177.015C580.318 177.737 578.632 177.702 577.024 176.908C575.416 176.115 574.138 174.561 573.19 172.248L565.106 152.511C563.507 148.607 561.738 145.854 559.798 144.251C557.875 142.607 555.294 142.448 552.055 143.775C549.944 144.64 548.282 146.064 547.068 148.047C545.842 150.001 545.274 152.243 545.365 154.772C545.509 156.773 546.57 160.188 548.548 165.018L554.625 179.853C555.608 182.253 555.784 184.291 555.154 185.968C554.541 187.603 553.352 188.783 551.588 189.505C549.882 190.204 548.225 190.157 546.617 189.363C545.008 188.57 543.731 187.017 542.783 184.703L528.764 150.478C527.84 148.223 527.645 146.344 528.178 144.843C528.699 143.312 529.813 142.197 531.519 141.499C532.56 141.072 533.601 140.933 534.641 141.081C535.681 141.229 536.648 141.694 537.542 142.476C538.466 143.246 539.217 144.339 539.798 145.756Z" fill="#FF6005"/>
<path d="M612.317 134.448L615.047 112.111C615.59 107.761 616.04 104.65 616.397 102.777C616.883 100.229 617.92 98.3752 619.509 97.2147C621.135 96.0294 623.038 95.6444 625.217 96.0599C627.857 96.5631 629.447 97.8204 629.986 99.8319C630.531 101.813 630.476 104.522 629.82 107.96C629.434 109.986 628.935 112.023 628.322 114.069L622.015 136.392C621.285 139.053 620.43 141.037 619.449 142.345C618.468 143.653 617.164 144.153 615.537 143.842C613.879 143.526 612.86 142.616 612.478 141.112C612.103 139.577 612.049 137.356 612.317 134.448ZM611.653 165.721C609.78 165.364 608.252 164.452 607.068 162.986C605.921 161.495 605.555 159.659 605.971 157.48C606.333 155.577 607.3 154.091 608.872 153.022C610.48 151.929 612.251 151.567 614.185 151.936C616.119 152.304 617.633 153.293 618.726 154.901C619.856 156.484 620.239 158.227 619.876 160.13C619.467 162.279 618.454 163.836 616.839 164.801C615.223 165.765 613.495 166.072 611.653 165.721Z" fill="#FE7222"/>
<path fill-rule="evenodd" clip-rule="evenodd" d="M1242.66 464.119C1238.5 459.23 1236 452.908 1236 446C1236 430.547 1248.55 418 1264 418C1270.25 418 1276.02 420.05 1280.68 423.516C1278.92 423.594 1277.14 424.191 1275.61 425.319C1272.18 427.831 1268.72 431.462 1267.86 438.628C1267.42 442.201 1268.59 445.493 1269.7 447.711C1269.01 447.582 1268.32 447.605 1267.66 447.756C1267.45 447.806 1267.23 447.871 1267.02 447.952C1263.38 449.049 1262.15 447.157 1261.73 445.715C1261.78 445.194 1261.81 444.594 1261.81 444.194C1261.81 439.61 1258.09 435.887 1253.51 435.887C1248.93 435.887 1245.21 439.61 1245.21 444.194C1245.21 445.877 1245.71 447.448 1246.57 448.755C1246.78 449.061 1247 449.357 1247.24 449.635C1247.99 450.724 1249.09 452.675 1248.97 454.633C1248.79 457.567 1247.05 460.538 1246.09 461.336C1245.16 462.106 1242.82 463.993 1242.66 464.125L1242.66 464.119ZM1289.5 434.436C1291.1 437.961 1292 441.879 1292 446C1292 461.453 1279.45 474 1264 474C1256.22 474 1249.18 470.822 1244.11 465.701C1246.11 464.976 1251.11 462.568 1255.18 458.505C1258.25 455.442 1259.59 453.686 1260.44 451.457V451.466C1262.66 457.657 1266.61 457.797 1266.89 457.855C1269.63 458.401 1272.57 457.077 1273.54 454.459C1274.06 453.062 1273.93 451.583 1273.29 450.357C1273.36 450.203 1273.4 450.038 1273.4 449.873C1273.4 449.873 1270.5 441.131 1280.57 440.988C1280.96 441.008 1281.35 440.999 1281.73 440.971C1283.38 440.834 1285.02 440.235 1286.42 439.135C1288 437.905 1289.04 436.239 1289.5 434.436Z" fill="white" fill-opacity="0.7"/>
<path fill-rule="evenodd" clip-rule="evenodd" d="M1047.66 133.119C1043.5 128.23 1041 121.908 1041 115C1041 99.5469 1053.55 87 1069 87C1075.25 87 1081.02 89.0496 1085.68 92.5161C1083.92 92.5944 1082.14 93.1908 1080.61 94.3192C1077.18 96.8309 1073.72 100.462 1072.86 107.628C1072.42 111.201 1073.59 114.493 1074.7 116.711C1074.01 116.582 1073.32 116.605 1072.66 116.756C1072.45 116.806 1072.23 116.871 1072.02 116.952C1068.38 118.049 1067.15 116.157 1066.73 114.715C1066.78 114.194 1066.81 113.594 1066.81 113.194C1066.81 108.61 1063.09 104.887 1058.51 104.887C1053.93 104.887 1050.21 108.61 1050.21 113.194C1050.21 114.877 1050.71 116.448 1051.57 117.755C1051.78 118.061 1052 118.357 1052.24 118.635C1052.99 119.724 1054.09 121.675 1053.97 123.633C1053.79 126.567 1052.05 129.538 1051.09 130.336C1050.16 131.106 1047.82 132.993 1047.66 133.125L1047.66 133.119ZM1094.5 103.436C1096.1 106.961 1097 110.879 1097 115C1097 130.453 1084.45 143 1069 143C1061.22 143 1054.18 139.822 1049.11 134.701C1051.11 133.976 1056.11 131.568 1060.18 127.505C1063.25 124.442 1064.59 122.686 1065.44 120.457V120.466C1067.66 126.657 1071.61 126.797 1071.89 126.855C1074.63 127.401 1077.57 126.077 1078.54 123.459C1079.06 122.062 1078.93 120.583 1078.29 119.357C1078.36 119.203 1078.4 119.038 1078.4 118.873C1078.4 118.873 1075.5 110.131 1085.57 109.988C1085.96 110.008 1086.35 109.999 1086.73 109.971C1088.38 109.834 1090.02 109.235 1091.42 108.135C1093 106.905 1094.04 105.239 1094.5 103.436Z" fill="white" fill-opacity="0.7"/>
<path fill-rule="evenodd" clip-rule="evenodd" d="M171.658 478.119C167.503 473.23 165 466.908 165 460C165 444.547 177.547 432 193 432C199.247 432 205.02 434.05 209.677 437.516C207.915 437.594 206.143 438.191 204.609 439.319C201.179 441.831 197.723 445.462 196.855 452.628C196.421 456.201 197.589 459.493 198.703 461.711C198.015 461.582 197.32 461.605 196.662 461.756C196.447 461.806 196.231 461.871 196.021 461.952C192.384 463.049 191.152 461.157 190.735 459.715C190.777 459.194 190.81 458.594 190.81 458.194C190.81 453.61 187.089 449.887 182.508 449.887C177.928 449.887 174.206 453.61 174.206 458.194C174.206 459.877 174.713 461.448 175.573 462.755C175.777 463.061 175.998 463.357 176.239 463.635C176.99 464.724 178.087 466.675 177.967 468.633C177.788 471.567 176.049 474.538 175.088 475.336C174.162 476.106 171.824 477.993 171.661 478.125L171.658 478.119ZM218.505 448.436C220.104 451.961 221 455.879 221 460C221 475.453 208.45 488 193 488C185.224 488 178.182 484.822 173.109 479.701C175.114 478.976 180.112 476.568 184.18 472.505C187.249 469.442 188.587 467.686 189.438 465.457V465.466C191.656 471.657 195.607 471.797 195.889 471.855C198.633 472.401 201.565 471.077 202.539 468.459C203.06 467.062 202.926 465.583 202.29 464.357C202.36 464.203 202.397 464.038 202.397 463.873C202.397 463.873 199.504 455.131 209.567 454.988C209.957 455.008 210.346 454.999 210.732 454.971C212.384 454.834 214.017 454.235 215.422 453.135C216.996 451.905 218.037 450.239 218.505 448.436Z" fill="white" fill-opacity="0.7"/>
<path fill-rule="evenodd" clip-rule="evenodd" d="M30.6583 247.119C26.5032 242.23 24 235.908 24 229C24 213.547 36.5467 201 51.9998 201C58.2466 201 64.0202 203.05 68.6766 206.516C66.9154 206.594 65.143 207.191 63.6086 208.319C60.1786 210.831 56.7235 214.462 55.8555 221.628C55.4215 225.201 56.5891 228.493 57.7034 230.711C57.0146 230.582 56.3202 230.605 55.6622 230.756C55.4467 230.806 55.2311 230.871 55.0211 230.952C51.3839 232.049 50.1519 230.157 49.7347 228.715C49.7767 228.194 49.8103 227.594 49.8103 227.194C49.8103 222.61 46.0891 218.887 41.5083 218.887C36.9275 218.887 33.2064 222.61 33.2064 227.194C33.2064 228.877 33.7131 230.448 34.5727 231.755C34.7771 232.061 34.9984 232.357 35.2391 232.635C35.9895 233.724 37.0871 235.675 36.9667 237.633C36.7875 240.567 35.0487 243.538 34.0883 244.336C33.1616 245.106 30.8235 246.993 30.6612 247.125L30.6583 247.119ZM77.505 217.436C79.104 220.961 80 224.879 80 229C80 244.453 67.4502 257 51.9998 257C44.2243 257 37.1823 253.822 32.1088 248.701C34.1135 247.976 39.1115 245.568 43.1799 241.505C46.2487 238.442 47.5871 236.686 48.4383 234.457V234.466C50.6559 240.657 54.6067 240.797 54.8894 240.855C57.6334 241.401 60.5651 240.077 61.5395 237.459C62.0602 236.062 61.9258 234.583 61.2902 233.357C61.3602 233.203 61.3966 233.038 61.3966 232.873C61.3966 232.873 58.5043 224.131 68.5674 223.988C68.9566 224.008 69.3458 223.999 69.7322 223.971C71.3842 223.834 73.0167 223.235 74.4221 222.135C75.9958 220.905 77.037 219.239 77.505 217.436Z" fill="white" fill-opacity="0.7"/>
<path fill-rule="evenodd" clip-rule="evenodd" d="M802.658 618.119C798.503 613.23 796 606.908 796 600C796 584.547 808.547 572 824 572C830.247 572 836.02 574.05 840.677 577.516C838.915 577.594 837.143 578.191 835.609 579.319C832.179 581.831 828.723 585.462 827.855 592.628C827.421 596.201 828.589 599.493 829.703 601.711C829.015 601.582 828.32 601.605 827.662 601.756C827.447 601.806 827.231 601.871 827.021 601.952C823.384 603.049 822.152 601.157 821.735 599.715C821.777 599.194 821.81 598.594 821.81 598.194C821.81 593.61 818.089 589.887 813.508 589.887C808.928 589.887 805.206 593.61 805.206 598.194C805.206 599.877 805.713 601.448 806.573 602.755C806.777 603.061 806.998 603.357 807.239 603.635C807.99 604.724 809.087 606.675 808.967 608.633C808.788 611.567 807.049 614.538 806.088 615.336C805.162 616.106 802.824 617.993 802.661 618.125L802.658 618.119ZM849.505 588.436C851.104 591.961 852 595.879 852 600C852 615.453 839.45 628 824 628C816.224 628 809.182 624.822 804.109 619.701C806.114 618.976 811.112 616.568 815.18 612.505C818.249 609.442 819.587 607.686 820.438 605.457V605.466C822.656 611.657 826.607 611.797 826.889 611.855C829.633 612.401 832.565 611.077 833.539 608.459C834.06 607.062 833.926 605.583 833.29 604.357C833.36 604.203 833.397 604.038 833.397 603.873C833.397 603.873 830.504 595.131 840.567 594.988C840.957 595.008 841.346 594.999 841.732 594.971C843.384 594.834 845.017 594.235 846.422 593.135C847.996 591.905 849.037 590.239 849.505 588.436Z" fill="white" fill-opacity="0.7"/>
<path fill-rule="evenodd" clip-rule="evenodd" d="M341.658 52.119C337.503 47.2302 335 40.9077 335 34.0002C335 18.5469 347.547 6 363 6C369.247 6 375.02 8.04959 379.677 11.5161C377.915 11.5944 376.143 12.1908 374.609 13.3192C371.179 15.8309 367.723 19.4625 366.855 26.6277C366.421 30.2005 367.589 33.4933 368.703 35.711C368.015 35.5822 367.32 35.6045 366.662 35.7557C366.447 35.8062 366.231 35.8706 366.021 35.9518C362.384 37.0494 361.152 35.1565 360.735 33.7145C360.777 33.1937 360.81 32.5945 360.81 32.1942C360.81 27.6105 357.089 23.8865 352.508 23.8865C347.928 23.8865 344.206 27.6105 344.206 32.1942C344.206 33.8769 344.713 35.4478 345.573 36.7554C345.777 37.0605 345.998 37.3574 346.239 37.6345C346.99 38.7238 348.087 40.6754 347.967 42.6326C347.788 45.567 346.049 48.5378 345.088 49.3358C344.162 50.1058 341.824 51.993 341.661 52.1247L341.658 52.119ZM388.505 22.4361C390.104 25.9613 391 29.8785 391 34.0002C391 49.4534 378.45 62 363 62C355.224 62 348.182 58.8222 343.109 53.7011C345.114 52.9758 350.112 50.5678 354.18 46.505C357.249 43.4418 358.587 41.6861 359.438 39.4574V39.4657C361.656 45.6566 365.607 45.7966 365.889 45.8554C368.633 46.4014 371.565 45.077 372.539 42.459C373.06 41.0618 372.926 39.5834 372.29 38.357C372.36 38.2029 372.397 38.0378 372.397 37.8726C372.397 37.8726 369.504 29.1309 379.567 28.9881C379.957 29.0077 380.346 28.9993 380.732 28.9713C382.384 28.8341 384.017 28.2349 385.422 27.1345C386.996 25.9053 388.037 24.2393 388.505 22.4361Z" fill="white" fill-opacity="0.7"/>
</g>
</g>
<defs>
<filter id="filter0_d_457_4283" x="0" y="0" width="1308" height="624" filterUnits="userSpaceOnUse" color-interpolation-filters="sRGB">
<feFlood flood-opacity="0" result="BackgroundImageFix"/>
<feColorMatrix in="SourceAlpha" type="matrix" values="0 0 0 0 0 0 0 0 0 0 0 0 0 0 0 0 0 0 127 0" result="hardAlpha"/>
<feMorphology radius="4" operator="dilate" in="SourceAlpha" result="effect1_dropShadow_457_4283"/>
<feOffset dy="4"/>
<feGaussianBlur stdDeviation="10"/>
<feComposite in2="hardAlpha" operator="out"/>
<feColorMatrix type="matrix" values="0 0 0 0 0.941176 0 0 0 0 0.576471 0 0 0 0 0.180392 0 0 0 0.2 0"/>
<feBlend mode="normal" in2="BackgroundImageFix" result="effect1_dropShadow_457_4283"/>
<feBlend mode="normal" in="SourceGraphic" in2="effect1_dropShadow_457_4283" result="shape"/>
</filter>
<radialGradient id="paint0_radial_457_4283" cx="0" cy="0" r="1" gradientUnits="userSpaceOnUse" gradientTransform="translate(903.404 373.18) rotate(108.893) scale(99.9529 99.8962)">
<stop offset="0.268395" stop-color="#FFCB00"/>
<stop offset="0.599993" stop-color="#F0932E"/>
<stop offset="0.902126" stop-color="#FF592B"/>
</radialGradient>
<clipPath id="clip0_457_4283">
<rect x="24" y="20" width="1260" height="576" rx="30" fill="white"/>
</clipPath>
</defs>
</svg>
