<svg width="437" height="256" viewBox="0 0 437 256" fill="none" xmlns="http://www.w3.org/2000/svg">
<path d="M67.7691 213.466L40.9806 177.127L58.9613 221.025C59.9563 223.454 60.1531 225.501 59.5517 227.165C58.9792 228.818 57.7965 230.012 56.0036 230.746C54.2685 231.457 52.6087 231.445 51.0241 230.709C49.4278 229.945 48.1262 228.333 47.1193 225.875L26.509 175.558C25.3719 172.782 25.3309 170.62 26.3859 169.074C27.4291 167.498 29.1797 166.207 31.6377 165.2L35.6284 163.566C38.0286 162.583 39.8526 162.089 41.1002 162.084C42.3768 162.068 43.5063 162.517 44.4888 163.432C45.4713 164.346 46.8162 165.94 48.5237 168.212L72.0303 199.259L67.0024 160.643C66.6252 157.826 66.4658 155.747 66.5244 154.406C66.583 153.065 67.0584 151.958 67.9507 151.086C68.8719 150.202 70.5326 149.269 72.9328 148.286L76.9235 146.651C79.3816 145.644 81.5349 145.336 83.3835 145.727C85.2203 146.089 86.7073 147.658 87.8444 150.435L108.455 200.752C109.45 203.181 109.646 205.228 109.045 206.893C108.473 208.546 107.275 209.745 105.454 210.491C103.747 211.19 102.096 211.157 100.5 210.393C98.9034 209.629 97.6077 208.032 96.6127 205.603L78.632 161.705L85.0332 206.395C85.446 209.299 85.6902 211.461 85.7657 212.882C85.8584 214.263 85.5481 215.69 84.8348 217.164C84.1216 218.638 82.7673 219.784 80.772 220.601C79.2682 221.217 77.8596 221.406 76.5461 221.167C75.2445 220.957 74.0972 220.465 73.1042 219.689C72.1113 218.914 71.1926 217.99 70.3481 216.918C69.5206 215.805 68.661 214.654 67.7691 213.466ZM118.72 156.682L132.738 190.907C133.709 193.278 133.88 195.302 133.25 196.979C132.619 198.655 131.437 199.849 129.701 200.559C127.966 201.27 126.295 201.229 124.686 200.435C123.107 199.63 121.844 198.071 120.896 195.757L107.02 161.88C106.06 159.537 105.873 157.554 106.457 155.93C107.07 154.295 108.244 153.121 109.98 152.411C111.715 151.7 113.389 151.706 115.002 152.43C116.616 153.154 117.855 154.571 118.72 156.682ZM107.853 146.848C106.205 147.524 104.581 147.598 102.98 147.071C101.409 146.533 100.244 145.339 99.4863 143.488C98.7993 141.811 98.8295 140.194 99.5768 138.639C100.341 137.042 101.519 135.918 103.109 135.267C104.642 134.639 106.202 134.574 107.791 135.071C109.379 135.569 110.558 136.758 111.328 138.637C112.074 140.459 112.082 142.127 111.352 143.642C110.61 145.128 109.444 146.197 107.853 146.848ZM179.749 161.976C181.087 165.244 181.441 168.375 180.81 171.368C180.167 174.333 178.533 177.063 175.907 179.556C173.299 182.01 169.768 184.148 165.314 185.972C161.063 187.713 157.153 188.555 153.584 188.498C150.014 188.44 147.11 187.739 144.87 186.393C142.619 185.019 141.09 183.349 140.285 181.382C139.752 180.081 139.758 178.778 140.305 177.474C140.851 176.169 141.833 175.227 143.25 174.647C144.493 174.137 145.572 174.05 146.486 174.385C147.4 174.72 148.385 175.312 149.443 176.162C151.522 177.776 153.613 178.76 155.717 179.114C157.85 179.456 160.376 179.029 163.297 177.833C165.668 176.861 167.393 175.547 168.47 173.89C169.564 172.192 169.833 170.664 169.277 169.305C168.424 167.223 167.007 166.03 165.025 165.727C163.073 165.413 160.111 165.562 156.141 166.175C151.649 166.833 147.891 167.14 144.868 167.095C141.861 167.01 139.218 166.37 136.939 165.176C134.66 163.982 132.976 162.054 131.886 159.394C130.915 157.023 130.705 154.491 131.258 151.8C131.81 149.108 133.205 146.578 135.443 144.21C137.698 141.8 140.777 139.796 144.681 138.197C147.747 136.941 150.624 136.134 153.314 135.775C156.032 135.405 158.421 135.423 160.478 135.829C162.565 136.224 164.294 136.9 165.666 137.858C167.066 138.804 168.021 139.899 168.531 141.142C169.087 142.501 169.081 143.804 168.511 145.051C167.969 146.286 166.86 147.246 165.183 147.934C163.968 148.431 162.785 148.51 161.633 148.172C160.511 147.821 159.115 147.177 157.448 146.239C156.078 145.449 154.643 144.956 153.144 144.76C151.645 144.563 149.855 144.891 147.773 145.744C145.633 146.621 144.044 147.812 143.006 149.318C141.956 150.795 141.71 152.213 142.266 153.572C142.776 154.815 143.717 155.629 145.089 156.012C146.45 156.366 148.119 156.442 150.097 156.24C152.074 156.038 154.764 155.68 158.166 155.164C162.206 154.556 165.637 154.4 168.46 154.696C171.311 154.98 173.679 155.733 175.564 156.953C177.465 158.133 178.86 159.807 179.749 161.976ZM227.898 142.254C229.236 145.522 229.59 148.653 228.959 151.646C228.316 154.611 226.681 157.341 224.056 159.835C221.447 162.288 217.916 164.426 213.463 166.25C209.212 167.992 205.302 168.833 201.732 168.776C198.163 168.718 195.258 168.017 193.019 166.671C190.767 165.297 189.239 163.627 188.434 161.661C187.901 160.359 187.907 159.056 188.454 157.752C189 156.448 189.982 155.505 191.399 154.925C192.642 154.415 193.721 154.328 194.635 154.663C195.548 154.998 196.534 155.59 197.591 156.44C199.671 158.054 201.762 159.038 203.866 159.392C205.998 159.734 208.525 159.307 211.446 158.111C213.817 157.139 215.541 155.825 216.619 154.168C217.713 152.47 217.982 150.942 217.425 149.583C216.572 147.501 215.155 146.308 213.174 146.005C211.221 145.691 208.26 145.84 204.29 146.453C199.798 147.111 196.04 147.418 193.016 147.373C190.009 147.288 187.367 146.648 185.088 145.454C182.809 144.26 181.125 142.332 180.035 139.672C179.064 137.301 178.854 134.769 179.406 132.078C179.959 129.386 181.354 126.856 183.592 124.488C185.847 122.078 188.926 120.074 192.83 118.475C195.895 117.219 198.773 116.412 201.463 116.053C204.181 115.683 206.569 115.701 208.627 116.107C210.714 116.502 212.443 117.178 213.814 118.136C215.215 119.082 216.17 120.177 216.679 121.42C217.236 122.78 217.229 124.082 216.659 125.329C216.118 126.564 215.009 127.525 213.332 128.212C212.117 128.709 210.934 128.788 209.782 128.45C208.659 128.099 207.264 127.455 205.597 126.517C204.226 125.728 202.792 125.234 201.293 125.038C199.794 124.841 198.004 125.17 195.922 126.022C193.782 126.899 192.193 128.09 191.155 129.596C190.105 131.073 189.858 132.491 190.415 133.85C190.924 135.093 191.865 135.907 193.238 136.29C194.599 136.644 196.268 136.721 198.245 136.519C200.222 136.317 202.912 135.958 206.314 135.442C210.354 134.834 213.785 134.678 216.608 134.974C219.46 135.258 221.828 136.011 223.713 137.231C225.614 138.411 227.009 140.085 227.898 142.254ZM239.135 107.36L253.153 141.584C254.124 143.956 254.295 145.979 253.665 147.656C253.034 149.333 251.852 150.526 250.117 151.237C248.381 151.948 246.71 151.906 245.102 151.113C243.522 150.308 242.259 148.748 241.311 146.435L227.435 112.557C226.475 110.215 226.288 108.232 226.872 106.608C227.485 104.972 228.66 103.799 230.395 103.088C232.13 102.377 233.804 102.384 235.417 103.108C237.031 103.831 238.27 105.249 239.135 107.36ZM228.268 97.5259C226.62 98.2011 224.996 98.2754 223.395 97.7489C221.824 97.2106 220.659 96.016 219.901 94.1653C219.214 92.488 219.245 90.8716 219.992 89.316C220.756 87.7196 221.934 86.5957 223.524 85.9442C225.057 85.3164 226.618 85.2513 228.206 85.7489C229.794 86.2464 230.973 87.4351 231.743 89.3148C232.49 91.1366 232.498 92.8049 231.767 94.3198C231.025 95.8057 229.859 96.8744 228.268 97.5259ZM302.849 101.524C304.294 105.052 305.077 108.53 305.198 111.959C305.319 115.388 304.777 118.598 303.572 121.591C302.366 124.584 300.554 127.251 298.136 129.592C295.706 131.905 292.684 133.801 289.069 135.282C285.483 136.75 282.022 137.493 278.685 137.509C275.349 137.525 272.187 136.895 269.199 135.62C266.229 134.304 263.596 132.41 261.301 129.94C259.022 127.428 257.155 124.394 255.698 120.837C254.229 117.251 253.434 113.744 253.313 110.315C253.192 106.887 253.726 103.696 254.914 100.744C256.103 97.7924 257.926 95.1543 260.385 92.8302C262.832 90.4771 265.819 88.578 269.347 87.1329C272.933 85.6641 276.423 84.9099 279.818 84.8703C283.212 84.8307 286.389 85.4544 289.348 86.7415C292.306 88.0286 294.925 89.9279 297.203 92.4393C299.51 94.9388 301.392 97.9671 302.849 101.524ZM290.964 106.392C288.985 101.563 286.376 98.2419 283.134 96.429C279.921 94.6043 276.522 94.4263 272.936 95.8951C270.623 96.8427 268.833 98.2851 267.566 100.222C266.288 102.13 265.651 104.451 265.657 107.184C265.662 109.918 266.304 112.846 267.583 115.969C268.851 119.063 270.421 121.578 272.294 123.512C274.196 125.434 276.269 126.662 278.513 127.195C280.775 127.687 283.091 127.447 285.462 126.476C289.048 125.007 291.346 122.496 292.355 118.942C293.382 115.347 292.918 111.164 290.964 106.392ZM315.798 75.7555L316.384 77.1869C317.341 73.5869 318.788 70.6472 320.725 68.368C322.679 66.048 325.261 64.2306 328.471 62.9158C331.594 61.6366 334.663 61.1731 337.677 61.5254C340.692 61.8778 343.316 63.0487 345.549 65.0381C346.922 66.1642 348.068 67.5185 348.986 69.101C349.905 70.6835 350.897 72.7761 351.963 75.3787L360.989 97.4143C361.96 99.7856 362.145 101.804 361.544 103.468C360.971 105.121 359.818 106.303 358.082 107.014C356.318 107.736 354.632 107.701 353.024 106.907C351.416 106.114 350.138 104.561 349.19 102.247L341.106 82.5104C339.507 78.6065 337.738 75.853 335.798 74.2499C333.875 72.6061 331.294 72.4475 328.055 73.7741C325.944 74.6388 324.282 76.0627 323.068 78.0458C321.842 79.9999 321.274 82.2418 321.365 84.7712C321.509 86.7721 322.57 90.1872 324.548 95.0165L330.625 109.852C331.608 112.252 331.784 114.29 331.154 115.967C330.541 117.602 329.352 118.782 327.588 119.504C325.882 120.203 324.225 120.156 322.617 119.362C321.008 118.569 319.731 117.016 318.783 114.702L304.764 80.4775C303.84 78.2218 303.645 76.3432 304.178 74.8416C304.699 73.3111 305.813 72.1964 307.519 71.4975C308.56 71.0711 309.601 70.9319 310.641 71.0801C311.681 71.2282 312.648 71.6931 313.542 72.475C314.466 73.245 315.217 74.3385 315.798 75.7555Z" fill="#FF6005"/>
<path d="M388.318 64.4484L391.048 42.1115C391.591 37.7612 392.041 34.6498 392.398 32.7772C392.884 30.2294 393.921 28.3752 395.51 27.2147C397.136 26.0294 399.039 25.6444 401.218 26.0599C403.858 26.5631 405.448 27.8204 405.987 29.8319C406.532 31.8128 406.477 34.5222 405.821 37.9603C405.435 39.9863 404.936 42.0226 404.323 44.0691L398.016 66.3923C397.286 69.0528 396.431 71.0371 395.45 72.3453C394.469 73.6535 393.165 74.1525 391.538 73.8424C389.88 73.5264 388.861 72.6163 388.479 71.1121C388.104 69.5771 388.05 67.3559 388.318 64.4484ZM387.654 95.7209C385.781 95.364 384.253 94.4523 383.069 92.986C381.922 91.4948 381.556 89.6594 381.971 87.4799C382.334 85.5767 383.301 84.0909 384.873 83.0225C386.481 81.9293 388.252 81.5669 390.186 81.9356C392.12 82.3042 393.634 83.2926 394.727 84.9007C395.857 86.484 396.24 88.2272 395.877 90.1305C395.468 92.2793 394.455 93.836 392.84 94.8006C391.224 95.7652 389.496 96.0719 387.654 95.7209Z" fill="#FE7222"/>
</svg>
