<svg width="134" height="61" viewBox="0 0 134 61" fill="none" xmlns="http://www.w3.org/2000/svg">
<path d="M20.5625 47H6.5625C4.54167 47 3.09375 46.5521 2.21875 45.6562C1.36458 44.7396 0.937501 43.2917 0.937501 41.3125L0.9375 6.875C0.9375 4.85417 1.375 3.40625 2.25 2.53125C3.14583 1.63542 4.58333 1.1875 6.5625 1.1875H21.4062C23.5937 1.1875 25.4896 1.32292 27.0937 1.59375C28.6979 1.86458 30.1354 2.38542 31.4062 3.15625C32.4896 3.80208 33.4479 4.625 34.2812 5.625C35.1146 6.60417 35.75 7.69792 36.1875 8.90625C36.625 10.0937 36.8437 11.3542 36.8437 12.6875C36.8437 17.2708 34.5521 20.625 29.9687 22.75C35.9896 24.6667 39 28.3958 39 33.9375C39 36.5 38.3437 38.8125 37.0312 40.875C35.7187 42.9167 33.9479 44.4271 31.7187 45.4062C30.3229 45.9896 28.7187 46.4062 26.9062 46.6562C25.0937 46.8854 22.9792 47 20.5625 47ZM19.875 26.6562H10.2188L10.2188 40.0312H20.1875C26.4583 40.0312 29.5937 37.7708 29.5937 33.25C29.5937 30.9375 28.7812 29.2604 27.1562 28.2187C25.5312 27.1771 23.1042 26.6562 19.875 26.6562ZM10.2187 8.15625L10.2188 20H18.7187C21.0312 20 22.8125 19.7812 24.0625 19.3437C25.3333 18.9062 26.3021 18.0729 26.9687 16.8437C27.4896 15.9687 27.75 14.9896 27.75 13.9062C27.75 11.5937 26.9271 10.0625 25.2812 9.3125C23.6354 8.54167 21.125 8.15625 17.75 8.15625H10.2187ZM46.4687 42.5937L46.4687 5.59375C46.4687 3.88542 46.8437 2.59375 47.5937 1.71875C48.3646 0.843749 49.3958 0.406249 50.6875 0.406249C51.9792 0.406249 53.0208 0.843749 53.8125 1.71875C54.6042 2.57292 55 3.86458 55 5.59375L55 42.5937C55 44.3229 54.5937 45.625 53.7812 46.5C52.9896 47.3542 51.9583 47.7812 50.6875 47.7812C49.4375 47.7812 48.4167 47.3333 47.625 46.4375C46.8542 45.5417 46.4687 44.2604 46.4687 42.5937ZM95.7812 30.4375C95.7812 32.9792 95.3854 35.3229 94.5937 37.4687C93.8021 39.6146 92.6562 41.4583 91.1562 43C89.6562 44.5417 87.8646 45.7292 85.7812 46.5625C83.6979 47.375 81.3542 47.7812 78.75 47.7812C76.1667 47.7812 73.8437 47.3646 71.7812 46.5312C69.7187 45.6979 67.9271 44.5104 66.4062 42.9687C64.9062 41.4062 63.7604 39.5729 62.9687 37.4687C62.1979 35.3437 61.8125 33 61.8125 30.4375C61.8125 27.8542 62.2083 25.4896 63 23.3437C63.7917 21.1979 64.9271 19.3646 66.4062 17.8437C67.8854 16.3229 69.6771 15.1562 71.7812 14.3437C73.8854 13.5104 76.2083 13.0937 78.75 13.0937C81.3333 13.0937 83.6771 13.5104 85.7812 14.3437C87.8854 15.1771 89.6875 16.3646 91.1875 17.9062C92.6875 19.4479 93.8229 21.2812 94.5937 23.4062C95.3854 25.5312 95.7812 27.875 95.7812 30.4375ZM87.2187 30.4375C87.2187 26.9583 86.4479 24.25 84.9062 22.3125C83.3854 20.375 81.3333 19.4062 78.75 19.4062C77.0833 19.4062 75.6146 19.8437 74.3437 20.7187C73.0729 21.5729 72.0937 22.8437 71.4062 24.5312C70.7187 26.2187 70.375 28.1875 70.375 30.4375C70.375 32.6667 70.7083 34.6146 71.375 36.2812C72.0625 37.9479 73.0312 39.2292 74.2812 40.125C75.5521 41 77.0417 41.4375 78.75 41.4375C81.3333 41.4375 83.3854 40.4687 84.9062 38.5312C86.4479 36.5729 87.2187 33.875 87.2187 30.4375ZM133.906 19.3437L133.906 44.125C133.906 46.9583 133.604 49.3958 133 51.4375C132.396 53.4792 131.427 55.1667 130.094 56.5C128.76 57.8333 127.01 58.8229 124.844 59.4687C122.698 60.1146 120.021 60.4375 116.812 60.4375C113.875 60.4375 111.25 60.0208 108.937 59.1875C106.625 58.375 104.844 57.3125 103.594 56C102.344 54.7083 101.719 53.375 101.719 52C101.719 50.9583 102.073 50.1042 102.781 49.4375C103.49 48.7917 104.344 48.4687 105.344 48.4687C106.594 48.4687 107.687 49.0208 108.625 50.125C109.083 50.6875 109.552 51.25 110.031 51.8125C110.531 52.3958 111.073 52.8854 111.656 53.2812C112.26 53.6979 112.979 54 113.812 54.1875C114.646 54.3958 115.604 54.5 116.687 54.5C118.896 54.5 120.604 54.1875 121.812 53.5625C123.042 52.9583 123.896 52.1042 124.375 51C124.875 49.8958 125.167 48.7083 125.25 47.4375C125.333 46.1875 125.396 44.1667 125.437 41.375C124.125 43.2083 122.604 44.6042 120.875 45.5625C119.167 46.5208 117.125 47 114.75 47C111.896 47 109.396 46.2708 107.25 44.8125C105.125 43.3542 103.49 41.3125 102.344 38.6875C101.198 36.0625 100.625 33.0312 100.625 29.5937C100.625 27.0312 100.969 24.7187 101.656 22.6562C102.365 20.5937 103.365 18.8542 104.656 17.4375C105.948 16.0208 107.437 14.9583 109.125 14.25C110.812 13.5208 112.667 13.1562 114.687 13.1562C117.104 13.1562 119.198 13.625 120.969 14.5625C122.74 15.4792 124.385 16.9271 125.906 18.9062L125.906 17.75C125.906 16.2708 126.271 15.125 127 14.3125C127.729 13.5 128.667 13.0937 129.812 13.0937C131.458 13.0937 132.552 13.6354 133.094 14.7187C133.635 15.7812 133.906 17.3229 133.906 19.3437ZM109.187 30.1562C109.187 33.6146 109.937 36.2292 111.437 38C112.958 39.7708 114.917 40.6562 117.312 40.6562C118.729 40.6562 120.062 40.2812 121.312 39.5312C122.583 38.7604 123.615 37.6146 124.406 36.0937C125.198 34.5521 125.594 32.6875 125.594 30.5C125.594 27.0208 124.823 24.3125 123.281 22.375C121.76 20.4375 119.75 19.4687 117.25 19.4687C114.812 19.4687 112.854 20.3958 111.375 22.25C109.917 24.1042 109.187 26.7396 109.187 30.1562Z" fill="#FE7222"/>
</svg>
