<svg width="170" height="61" viewBox="0 0 170 61" fill="none" xmlns="http://www.w3.org/2000/svg">
<path d="M20.5625 46.8057H6.5625C4.54167 46.8057 3.09375 46.3577 2.21875 45.4619C1.36458 44.5452 0.937501 43.0973 0.937501 41.1182L0.9375 6.68066C0.9375 4.65983 1.375 3.21191 2.25 2.33691C3.14583 1.44108 4.58333 0.993163 6.5625 0.993163H21.4062C23.5937 0.993163 25.4896 1.12858 27.0937 1.39941C28.6979 1.67025 30.1354 2.19108 31.4062 2.96191C32.4896 3.60775 33.4479 4.43066 34.2812 5.43066C35.1146 6.40983 35.75 7.50358 36.1875 8.71191C36.625 9.89941 36.8437 11.1598 36.8437 12.4932C36.8437 17.0765 34.5521 20.4307 29.9687 22.5557C35.9896 24.4723 39 28.2015 39 33.7432C39 36.3057 38.3437 38.6182 37.0312 40.6807C35.7187 42.7223 33.9479 44.2327 31.7187 45.2119C30.3229 45.7952 28.7187 46.2119 26.9062 46.4619C25.0937 46.6911 22.9792 46.8057 20.5625 46.8057ZM19.875 26.4619H10.2188L10.2188 39.8369H20.1875C26.4583 39.8369 29.5937 37.5765 29.5937 33.0557C29.5937 30.7432 28.7812 29.0661 27.1562 28.0244C25.5312 26.9827 23.1042 26.4619 19.875 26.4619ZM10.2187 7.96191L10.2188 19.8057H18.7187C21.0312 19.8057 22.8125 19.5869 24.0625 19.1494C25.3333 18.7119 26.3021 17.8786 26.9687 16.6494C27.4896 15.7744 27.75 14.7952 27.75 13.7119C27.75 11.3994 26.9271 9.86816 25.2812 9.11816C23.6354 8.34733 21.125 7.96191 17.75 7.96191H10.2187ZM46.4687 42.3994L46.4687 5.39941C46.4687 3.69108 46.8437 2.39941 47.5937 1.52441C48.3646 0.649413 49.3958 0.211913 50.6875 0.211913C51.9792 0.211913 53.0208 0.649413 53.8125 1.52441C54.6042 2.37858 55 3.67025 55 5.39941L55 42.3994C55 44.1286 54.5937 45.4307 53.7812 46.3057C52.9896 47.1598 51.9583 47.5869 50.6875 47.5869C49.4375 47.5869 48.4167 47.139 47.625 46.2432C46.8542 45.3473 46.4687 44.0661 46.4687 42.3994ZM95.7812 30.2432C95.7812 32.7848 95.3854 35.1286 94.5937 37.2744C93.8021 39.4202 92.6562 41.264 91.1562 42.8057C89.6562 44.3473 87.8646 45.5348 85.7812 46.3682C83.6979 47.1807 81.3542 47.5869 78.75 47.5869C76.1667 47.5869 73.8437 47.1702 71.7812 46.3369C69.7187 45.5036 67.9271 44.3161 66.4062 42.7744C64.9062 41.2119 63.7604 39.3786 62.9687 37.2744C62.1979 35.1494 61.8125 32.8057 61.8125 30.2432C61.8125 27.6598 62.2083 25.2952 63 23.1494C63.7917 21.0036 64.9271 19.1702 66.4062 17.6494C67.8854 16.1286 69.6771 14.9619 71.7812 14.1494C73.8854 13.3161 76.2083 12.8994 78.75 12.8994C81.3333 12.8994 83.6771 13.3161 85.7812 14.1494C87.8854 14.9827 89.6875 16.1702 91.1875 17.7119C92.6875 19.2536 93.8229 21.0869 94.5937 23.2119C95.3854 25.3369 95.7812 27.6807 95.7812 30.2432ZM87.2187 30.2432C87.2187 26.764 86.4479 24.0557 84.9062 22.1182C83.3854 20.1807 81.3333 19.2119 78.75 19.2119C77.0833 19.2119 75.6146 19.6494 74.3437 20.5244C73.0729 21.3786 72.0937 22.6494 71.4062 24.3369C70.7187 26.0244 70.375 27.9932 70.375 30.2432C70.375 32.4723 70.7083 34.4202 71.375 36.0869C72.0625 37.7536 73.0312 39.0348 74.2812 39.9307C75.5521 40.8057 77.0417 41.2432 78.75 41.2432C81.3333 41.2432 83.3854 40.2744 84.9062 38.3369C86.4479 36.3786 87.2187 33.6807 87.2187 30.2432ZM133.906 19.1494L133.906 43.9307C133.906 46.764 133.604 49.2015 133 51.2432C132.396 53.2848 131.427 54.9723 130.094 56.3057C128.76 57.639 127.01 58.6286 124.844 59.2744C122.698 59.9202 120.021 60.2432 116.812 60.2432C113.875 60.2432 111.25 59.8265 108.937 58.9932C106.625 58.1807 104.844 57.1182 103.594 55.8057C102.344 54.514 101.719 53.1807 101.719 51.8057C101.719 50.764 102.073 49.9098 102.781 49.2432C103.49 48.5973 104.344 48.2744 105.344 48.2744C106.594 48.2744 107.687 48.8265 108.625 49.9307C109.083 50.4932 109.552 51.0557 110.031 51.6182C110.531 52.2015 111.073 52.6911 111.656 53.0869C112.26 53.5036 112.979 53.8057 113.812 53.9932C114.646 54.2015 115.604 54.3057 116.687 54.3057C118.896 54.3057 120.604 53.9932 121.812 53.3682C123.042 52.764 123.896 51.9098 124.375 50.8057C124.875 49.7015 125.167 48.514 125.25 47.2432C125.333 45.9932 125.396 43.9723 125.437 41.1807C124.125 43.014 122.604 44.4098 120.875 45.3682C119.167 46.3265 117.125 46.8057 114.75 46.8057C111.896 46.8057 109.396 46.0765 107.25 44.6182C105.125 43.1598 103.49 41.1182 102.344 38.4932C101.198 35.8682 100.625 32.8369 100.625 29.3994C100.625 26.8369 100.969 24.5244 101.656 22.4619C102.365 20.3994 103.365 18.6598 104.656 17.2432C105.948 15.8265 107.437 14.764 109.125 14.0557C110.812 13.3265 112.667 12.9619 114.687 12.9619C117.104 12.9619 119.198 13.4307 120.969 14.3682C122.74 15.2848 124.385 16.7327 125.906 18.7119L125.906 17.5557C125.906 16.0765 126.271 14.9307 127 14.1182C127.729 13.3057 128.667 12.8994 129.812 12.8994C131.458 12.8994 132.552 13.4411 133.094 14.5244C133.635 15.5869 133.906 17.1286 133.906 19.1494ZM109.187 29.9619C109.187 33.4202 109.937 36.0348 111.437 37.8057C112.958 39.5765 114.917 40.4619 117.312 40.4619C118.729 40.4619 120.062 40.0869 121.312 39.3369C122.583 38.5661 123.615 37.4202 124.406 35.8994C125.198 34.3577 125.594 32.4932 125.594 30.3057C125.594 26.8265 124.823 24.1182 123.281 22.1807C121.76 20.2432 119.75 19.2744 117.25 19.2744C114.812 19.2744 112.854 20.2015 111.375 22.0557C109.917 23.9098 109.187 26.5452 109.187 29.9619ZM170 36.4307C170 38.7848 169.427 40.8057 168.281 42.4932C167.135 44.1598 165.437 45.4307 163.187 46.3057C160.958 47.1598 158.24 47.5869 155.031 47.5869C151.969 47.5869 149.344 47.1182 147.156 46.1807C144.969 45.2432 143.354 44.0765 142.312 42.6807C141.271 41.264 140.75 39.8473 140.75 38.4307C140.75 37.4932 141.083 36.6911 141.75 36.0244C142.417 35.3577 143.26 35.0244 144.281 35.0244C145.177 35.0244 145.865 35.2432 146.344 35.6807C146.823 36.1182 147.281 36.7327 147.719 37.5244C148.594 39.0452 149.635 40.1807 150.844 40.9307C152.073 41.6807 153.74 42.0557 155.844 42.0557C157.552 42.0557 158.948 41.6807 160.031 40.9307C161.135 40.1598 161.687 39.2848 161.687 38.3057C161.687 36.8057 161.115 35.7119 159.969 35.0244C158.844 34.3369 156.979 33.6807 154.375 33.0557C151.437 32.3265 149.042 31.5661 147.187 30.7744C145.354 29.9619 143.885 28.8994 142.781 27.5869C141.677 26.2744 141.125 24.6598 141.125 22.7432C141.125 21.0348 141.635 19.4202 142.656 17.8994C143.677 16.3786 145.177 15.1702 147.156 14.2744C149.156 13.3577 151.562 12.8994 154.375 12.8994C156.583 12.8994 158.562 13.1286 160.312 13.5869C162.083 14.0452 163.552 14.6598 164.719 15.4307C165.906 16.2015 166.802 17.0557 167.406 17.9932C168.031 18.9307 168.344 19.8473 168.344 20.7432C168.344 21.7223 168.01 22.5244 167.344 23.1494C166.698 23.7744 165.771 24.0869 164.562 24.0869C163.687 24.0869 162.937 23.8369 162.312 23.3369C161.708 22.8369 161.01 22.0869 160.219 21.0869C159.573 20.2536 158.812 19.5869 157.937 19.0869C157.062 18.5869 155.875 18.3369 154.375 18.3369C152.833 18.3369 151.552 18.6702 150.531 19.3369C149.51 19.9827 149 20.7952 149 21.7744C149 22.6702 149.375 23.4098 150.125 23.9932C150.875 24.5557 151.885 25.0244 153.156 25.3994C154.427 25.7744 156.177 26.2327 158.406 26.7744C161.052 27.4202 163.208 28.1911 164.875 29.0869C166.562 29.9827 167.833 31.0452 168.687 32.2744C169.562 33.4827 170 34.8682 170 36.4307Z" fill="#FE7222"/>
</svg>
