<svg width="251" height="61" viewBox="0 0 251 61" fill="none" xmlns="http://www.w3.org/2000/svg">
<path d="M17.7812 29.1562H9.28125L9.28125 42.125C9.28125 43.9792 8.84375 45.3854 7.96875 46.3437C7.09375 47.3021 5.98958 47.7812 4.65625 47.7812C3.26042 47.7812 2.13542 47.3125 1.28125 46.375C0.427085 45.4167 1.3021e-06 44.0208 1.25154e-06 42.1875L2.77678e-07 6.875C2.21372e-07 4.83333 0.46875 3.375 1.40625 2.5C2.34375 1.625 3.83333 1.1875 5.875 1.1875H17.7812C21.3021 1.1875 24.0104 1.45833 25.9062 2C27.7812 2.52083 29.3958 3.38542 30.75 4.59375C32.125 5.80208 33.1667 7.28125 33.875 9.03125C34.5833 10.7812 34.9375 12.75 34.9375 14.9375C34.9375 19.6042 33.5 23.1458 30.625 25.5625C27.75 27.9583 23.4687 29.1562 17.7812 29.1562ZM15.5312 8.15625H9.28125L9.28125 22.1562H15.5312C17.7187 22.1562 19.5417 21.9271 21 21.4687C22.4792 21.0104 23.6042 20.2604 24.375 19.2187C25.1458 18.1771 25.5312 16.8125 25.5312 15.125C25.5312 13.1042 24.9375 11.4583 23.75 10.1875C22.4167 8.83333 19.6771 8.15625 15.5312 8.15625ZM50.5625 35.4687L50.5625 42.5937C50.5625 44.3229 50.1562 45.625 49.3437 46.5C48.5312 47.3542 47.5 47.7812 46.25 47.7812C45.0208 47.7812 44.0104 47.3437 43.2187 46.4687C42.4271 45.5937 42.0312 44.3021 42.0312 42.5937L42.0312 18.8437C42.0312 15.0104 43.4167 13.0937 46.1875 13.0937C47.6042 13.0937 48.625 13.5417 49.25 14.4375C49.875 15.3333 50.2187 16.6562 50.2812 18.4062C51.3021 16.6562 52.3437 15.3333 53.4062 14.4375C54.4896 13.5417 55.9271 13.0937 57.7187 13.0937C59.5104 13.0937 61.25 13.5417 62.9375 14.4375C64.625 15.3333 65.4687 16.5208 65.4687 18C65.4687 19.0417 65.1042 19.9062 64.375 20.5937C63.6667 21.2604 62.8958 21.5937 62.0625 21.5937C61.75 21.5937 60.9896 21.4062 59.7812 21.0312C58.5937 20.6354 57.5417 20.4375 56.625 20.4375C55.375 20.4375 54.3542 20.7708 53.5625 21.4375C52.7708 22.0833 52.1562 23.0521 51.7187 24.3437C51.2812 25.6354 50.9792 27.1771 50.8125 28.9687C50.6458 30.7396 50.5625 32.9062 50.5625 35.4687ZM99.6562 30.4375C99.6562 32.9792 99.2604 35.3229 98.4687 37.4687C97.6771 39.6146 96.5312 41.4583 95.0312 43C93.5312 44.5417 91.7396 45.7292 89.6562 46.5625C87.5729 47.375 85.2292 47.7812 82.625 47.7812C80.0417 47.7812 77.7187 47.3646 75.6562 46.5312C73.5937 45.6979 71.8021 44.5104 70.2812 42.9687C68.7812 41.4062 67.6354 39.5729 66.8437 37.4687C66.0729 35.3437 65.6875 33 65.6875 30.4375C65.6875 27.8542 66.0833 25.4896 66.875 23.3437C67.6667 21.1979 68.8021 19.3646 70.2812 17.8437C71.7604 16.3229 73.5521 15.1562 75.6562 14.3437C77.7604 13.5104 80.0833 13.0937 82.625 13.0937C85.2083 13.0937 87.5521 13.5104 89.6562 14.3437C91.7604 15.1771 93.5625 16.3646 95.0625 17.9062C96.5625 19.4479 97.6979 21.2812 98.4687 23.4062C99.2604 25.5312 99.6562 27.875 99.6562 30.4375ZM91.0937 30.4375C91.0937 26.9583 90.3229 24.25 88.7812 22.3125C87.2604 20.375 85.2083 19.4062 82.625 19.4062C80.9583 19.4062 79.4896 19.8437 78.2187 20.7187C76.9479 21.5729 75.9687 22.8437 75.2812 24.5312C74.5937 26.2187 74.25 28.1875 74.25 30.4375C74.25 32.6667 74.5833 34.6146 75.25 36.2812C75.9375 37.9479 76.9062 39.2292 78.1562 40.125C79.4271 41 80.9167 41.4375 82.625 41.4375C85.2083 41.4375 87.2604 40.4687 88.7812 38.5312C90.3229 36.5729 91.0937 33.875 91.0937 30.4375ZM115 18.1875L115 47.125C115 49.1875 114.927 50.8646 114.781 52.1562C114.656 53.4687 114.469 54.4167 114.219 55C112.802 58.625 109.792 60.4375 105.187 60.4375C102.604 60.4375 100.646 60.0833 99.3125 59.375C97.9792 58.6667 97.3125 57.6354 97.3125 56.2812C97.3125 55.2812 97.6146 54.4583 98.2187 53.8125C98.8229 53.1875 99.6146 52.875 100.594 52.875C100.719 52.875 100.927 52.8854 101.219 52.9062C101.49 52.9479 101.896 52.9896 102.437 53.0312C103 53.0729 103.385 53.0937 103.594 53.0937C104.74 53.0937 105.5 52.6458 105.875 51.75C106.271 50.8542 106.469 49.25 106.469 46.9375L106.469 18.1875C106.469 16.5 106.865 15.2292 107.656 14.375C108.448 13.5208 109.49 13.0937 110.781 13.0937C112.031 13.0937 113.042 13.5208 113.812 14.375C114.604 15.2083 115 16.4792 115 18.1875ZM110.781 9.125C109.594 9.125 108.573 8.76042 107.719 8.03125C106.885 7.30208 106.469 6.27083 106.469 4.9375C106.469 3.72917 106.896 2.73958 107.75 1.96875C108.625 1.17708 109.635 0.781249 110.781 0.781249C111.885 0.781249 112.865 1.13542 113.719 1.84375C114.573 2.55208 115 3.58333 115 4.9375C115 6.25 114.583 7.28125 113.75 8.03125C112.917 8.76042 111.927 9.125 110.781 9.125ZM147.594 32.5312H130.906C130.927 34.4687 131.312 36.1771 132.062 37.6562C132.833 39.1354 133.844 40.25 135.094 41C136.365 41.75 137.76 42.125 139.281 42.125C140.302 42.125 141.229 42.0104 142.062 41.7812C142.917 41.5312 143.74 41.1562 144.531 40.6562C145.323 40.1354 146.052 39.5833 146.719 39C147.385 38.4167 148.25 37.625 149.312 36.625C149.75 36.25 150.375 36.0625 151.187 36.0625C152.062 36.0625 152.771 36.3021 153.312 36.7812C153.854 37.2604 154.125 37.9375 154.125 38.8125C154.125 39.5833 153.823 40.4896 153.219 41.5312C152.615 42.5521 151.698 43.5417 150.469 44.5C149.26 45.4375 147.729 46.2187 145.875 46.8437C144.042 47.4687 141.927 47.7812 139.531 47.7812C134.052 47.7812 129.792 46.2187 126.75 43.0937C123.708 39.9687 122.187 35.7292 122.187 30.375C122.187 27.8542 122.562 25.5208 123.312 23.375C124.062 21.2083 125.156 19.3542 126.594 17.8125C128.031 16.2708 129.802 15.0937 131.906 14.2812C134.01 13.4479 136.344 13.0312 138.906 13.0312C142.24 13.0312 145.094 13.7396 147.469 15.1562C149.865 16.5521 151.656 18.3646 152.844 20.5937C154.031 22.8229 154.625 25.0937 154.625 27.4062C154.625 29.5521 154.01 30.9479 152.781 31.5937C151.552 32.2187 149.823 32.5312 147.594 32.5312ZM130.906 27.6875H146.375C146.167 24.7708 145.375 22.5937 144 21.1562C142.646 19.6979 140.854 18.9687 138.625 18.9687C136.5 18.9687 134.75 19.7083 133.375 21.1875C132.021 22.6458 131.198 24.8125 130.906 27.6875ZM192.437 37.2187C192.437 38.2812 192.115 39.4167 191.469 40.625C190.844 41.8333 189.875 42.9896 188.562 44.0937C187.271 45.1771 185.635 46.0521 183.656 46.7187C181.677 47.3854 179.448 47.7187 176.969 47.7187C171.698 47.7187 167.583 46.1875 164.625 43.125C161.667 40.0417 160.187 35.9167 160.187 30.75C160.187 27.25 160.865 24.1562 162.219 21.4687C163.573 18.7812 165.531 16.7083 168.094 15.25C170.656 13.7708 173.719 13.0312 177.281 13.0312C179.49 13.0312 181.51 13.3542 183.344 14C185.198 14.6458 186.76 15.4792 188.031 16.5C189.323 17.5208 190.302 18.6146 190.969 19.7812C191.656 20.9271 192 22 192 23C192 24.0208 191.615 24.8854 190.844 25.5937C190.094 26.3021 189.177 26.6562 188.094 26.6562C187.385 26.6562 186.792 26.4792 186.312 26.125C185.854 25.75 185.333 25.1562 184.75 24.3437C183.708 22.7604 182.615 21.5729 181.469 20.7812C180.344 19.9896 178.906 19.5937 177.156 19.5937C174.635 19.5937 172.604 20.5833 171.062 22.5625C169.521 24.5208 168.75 27.2083 168.75 30.625C168.75 32.2292 168.948 33.7083 169.344 35.0625C169.74 36.3958 170.312 37.5417 171.062 38.5C171.812 39.4375 172.719 40.1562 173.781 40.6562C174.844 41.1354 176.01 41.375 177.281 41.375C178.99 41.375 180.448 40.9792 181.656 40.1875C182.885 39.3958 183.969 38.1875 184.906 36.5625C185.427 35.6042 185.99 34.8542 186.594 34.3125C187.198 33.7708 187.937 33.5 188.812 33.5C189.854 33.5 190.719 33.8958 191.406 34.6875C192.094 35.4792 192.437 36.3229 192.437 37.2187ZM200.375 13.8437H201.312L201.312 8.71875C201.312 7.34375 201.344 6.27083 201.406 5.5C201.49 4.70833 201.698 4.03125 202.031 3.46875C202.365 2.88542 202.844 2.41667 203.469 2.0625C204.094 1.6875 204.792 1.5 205.562 1.5C206.646 1.5 207.625 1.90625 208.5 2.71875C209.083 3.26042 209.448 3.92708 209.594 4.71875C209.76 5.48958 209.844 6.59375 209.844 8.03125L209.844 13.8437H212.969C214.177 13.8437 215.094 14.1354 215.719 14.7187C216.365 15.2812 216.687 16.0104 216.687 16.9062C216.687 18.0521 216.229 18.8542 215.312 19.3125C214.417 19.7708 213.125 20 211.437 20H209.844L209.844 35.6875C209.844 37.0208 209.885 38.0521 209.969 38.7812C210.073 39.4896 210.323 40.0729 210.719 40.5312C211.135 40.9687 211.802 41.1875 212.719 41.1875C213.219 41.1875 213.896 41.1042 214.75 40.9375C215.604 40.75 216.271 40.6562 216.75 40.6562C217.437 40.6562 218.052 40.9375 218.594 41.5C219.156 42.0417 219.437 42.7187 219.437 43.5312C219.437 44.9062 218.687 45.9583 217.187 46.6875C215.687 47.4167 213.531 47.7812 210.719 47.7812C208.052 47.7812 206.031 47.3333 204.656 46.4375C203.281 45.5417 202.375 44.3021 201.937 42.7187C201.521 41.1354 201.312 39.0208 201.312 36.375L201.312 20H200.187C198.958 20 198.021 19.7083 197.375 19.125C196.729 18.5417 196.406 17.8021 196.406 16.9062C196.406 16.0104 196.74 15.2812 197.406 14.7187C198.094 14.1354 199.083 13.8437 200.375 13.8437ZM250.062 36.625C250.062 38.9792 249.49 41 248.344 42.6875C247.198 44.3542 245.5 45.625 243.25 46.5C241.021 47.3542 238.302 47.7812 235.094 47.7812C232.031 47.7812 229.406 47.3125 227.219 46.375C225.031 45.4375 223.417 44.2708 222.375 42.875C221.333 41.4583 220.812 40.0417 220.812 38.625C220.812 37.6875 221.146 36.8854 221.812 36.2187C222.479 35.5521 223.323 35.2187 224.344 35.2187C225.24 35.2187 225.927 35.4375 226.406 35.875C226.885 36.3125 227.344 36.9271 227.781 37.7187C228.656 39.2396 229.698 40.375 230.906 41.125C232.135 41.875 233.802 42.25 235.906 42.25C237.615 42.25 239.01 41.875 240.094 41.125C241.198 40.3542 241.75 39.4792 241.75 38.5C241.75 37 241.177 35.9062 240.031 35.2187C238.906 34.5312 237.042 33.875 234.437 33.25C231.5 32.5208 229.104 31.7604 227.25 30.9687C225.417 30.1562 223.948 29.0937 222.844 27.7812C221.74 26.4687 221.187 24.8542 221.187 22.9375C221.187 21.2292 221.698 19.6146 222.719 18.0937C223.74 16.5729 225.24 15.3646 227.219 14.4687C229.219 13.5521 231.625 13.0937 234.437 13.0937C236.646 13.0937 238.625 13.3229 240.375 13.7812C242.146 14.2396 243.615 14.8542 244.781 15.625C245.969 16.3958 246.865 17.25 247.469 18.1875C248.094 19.125 248.406 20.0417 248.406 20.9375C248.406 21.9167 248.073 22.7187 247.406 23.3437C246.76 23.9687 245.833 24.2812 244.625 24.2812C243.75 24.2812 243 24.0312 242.375 23.5312C241.771 23.0312 241.073 22.2812 240.281 21.2812C239.635 20.4479 238.875 19.7812 238 19.2812C237.125 18.7812 235.937 18.5312 234.437 18.5312C232.896 18.5312 231.615 18.8646 230.594 19.5312C229.573 20.1771 229.062 20.9896 229.062 21.9687C229.062 22.8646 229.437 23.6042 230.187 24.1875C230.937 24.75 231.948 25.2187 233.219 25.5937C234.49 25.9687 236.24 26.4271 238.469 26.9687C241.115 27.6146 243.271 28.3854 244.937 29.2812C246.625 30.1771 247.896 31.2396 248.75 32.4687C249.625 33.6771 250.062 35.0625 250.062 36.625Z" fill="#FE7222"/>
</svg>
