<svg width="24" height="24" viewBox="0 0 24 24" fill="none" xmlns="http://www.w3.org/2000/svg">
<path d="M12 0.238281C18.6274 0.238281 24 5.61086 24 12.2383C24 17.4813 20.6364 21.9358 15.9502 23.5693V19.6963L15.9287 19.6611L14.543 17.3525C14.6098 17.3418 14.6902 17.33 14.7812 17.3135C15.0649 17.2621 15.4562 17.1815 15.8857 17.0645C16.7376 16.8324 17.7699 16.4492 18.4033 15.8467C18.821 15.4494 19.1357 15.0898 19.3818 14.6855C19.6283 14.2807 19.8024 13.8374 19.9453 13.2754C20.1897 12.3142 20.2637 11.6543 19.9424 10.6904C19.7779 10.1972 19.3851 9.67833 19.0469 9.29199C18.8758 9.0966 18.7151 8.93046 18.5967 8.81348C18.5504 8.76776 18.5099 8.73001 18.4785 8.7002C18.4853 8.684 18.4929 8.6661 18.501 8.64648C18.5397 8.55215 18.5931 8.42 18.6494 8.26855C18.7612 7.96802 18.8895 7.58208 18.9473 7.26465C19.0202 6.86312 19.0195 6.3491 19.002 5.94336C18.9931 5.73893 18.9798 5.55867 18.9688 5.42969C18.9632 5.36524 18.9587 5.31315 18.9551 5.27734C18.9533 5.25956 18.9512 5.2458 18.9502 5.23633C18.9497 5.2317 18.9495 5.22808 18.9492 5.22559V5.22168L18.9326 5.08105L18.792 5.08887H18.7852C18.7811 5.08909 18.7752 5.08941 18.7676 5.08984C18.7518 5.09075 18.7286 5.09186 18.6992 5.09375C18.6401 5.09755 18.555 5.10405 18.4521 5.1123C18.2467 5.1288 17.9681 5.15484 17.6768 5.19336C17.3861 5.2318 17.0785 5.28323 16.8174 5.35059C16.6871 5.38422 16.5651 5.42257 16.4609 5.4668C16.3589 5.51011 16.2621 5.56305 16.1934 5.63184L15.2539 6.57031C15.2016 6.55654 15.1267 6.53767 15.0342 6.51465C14.8443 6.46742 14.5784 6.40477 14.2754 6.3418C13.6721 6.21645 12.9098 6.08789 12.2998 6.08789C11.6898 6.08789 10.9275 6.21645 10.3242 6.3418C10.0212 6.40477 9.7553 6.46742 9.56543 6.51465C9.47853 6.53626 9.40713 6.55383 9.35547 6.56738C9.3462 6.55581 9.33624 6.5429 9.3252 6.5293C9.26665 6.45724 9.18387 6.35777 9.08594 6.24902C8.89266 6.03441 8.63097 5.77111 8.37988 5.61133C8.0101 5.37625 7.40566 5.24852 6.91699 5.17773C6.66829 5.14172 6.4411 5.11974 6.27637 5.10645C6.19408 5.09981 6.12665 5.09553 6.08008 5.09277C6.05678 5.0914 6.03785 5.08949 6.02539 5.08887H6.00586L5.88086 5.08301L5.85352 5.20703L5.85254 5.20996C5.85202 5.21238 5.85156 5.21612 5.85059 5.2207C5.84863 5.22992 5.84536 5.24341 5.8418 5.26074C5.83461 5.29574 5.82445 5.34692 5.8125 5.41016C5.78861 5.53655 5.75776 5.71366 5.72852 5.91602C5.67042 6.31796 5.6182 6.83153 5.65039 7.25C5.67596 7.58176 5.80876 7.97416 5.92871 8.27441C5.98954 8.42665 6.04871 8.55986 6.09277 8.6543C6.10118 8.6723 6.10899 8.68896 6.11621 8.7041C6.08553 8.73327 6.047 8.76992 6.00293 8.81348C5.88456 8.93046 5.72381 9.0966 5.55273 9.29199C5.21448 9.67833 4.82173 10.1972 4.65723 10.6904C4.49901 11.1651 4.42438 11.5736 4.42773 11.9863C4.43109 12.3983 4.51236 12.8074 4.65625 13.2822C5.03371 14.5275 5.72863 15.0777 6.70605 15.8555C7.30836 16.3348 8.2036 16.7164 8.93555 16.9766C9.30383 17.1074 9.6356 17.2094 9.875 17.2783C9.95512 17.3014 10.0254 17.3193 10.083 17.335L9.20703 19.0879H6.84473L3.88281 17.1133L3.67285 17.3174L6.17285 21.3174L6.2168 21.3887H8.64941V23.7607C3.65303 22.3104 0 17.7024 0 12.2383C0 5.61086 5.37258 0.238281 12 0.238281Z" fill="white"/>
</svg>
