<svg width="212" height="69" viewBox="0 0 212 69" fill="none" xmlns="http://www.w3.org/2000/svg">
<mask id="mask0_484_1677" style="mask-type:luminance" maskUnits="userSpaceOnUse" x="69" y="22" width="125" height="24">
<path d="M193.551 22.7988H69.3276V45.7285H193.551V22.7988Z" fill="white"/>
</mask>
<g mask="url(#mask0_484_1677)">
<path d="M84.9914 23.8466H87.5036V45.8496L71.8398 29.2051V44.8018H69.3276V22.7988L84.9914 39.4433V23.8466Z" fill="white"/>
<path d="M90.3931 23.7539H92.9053V37.8238C92.9053 39.2608 93.2894 40.4183 94.0576 41.2964C94.8264 42.1745 95.9495 42.6136 97.4269 42.6136C98.9049 42.6136 100.028 42.1745 100.796 41.2964C101.564 40.4183 101.949 39.2608 101.949 37.8238V23.7539H104.461V37.8238C104.461 38.8616 104.294 39.8196 103.959 40.6977C103.644 41.5758 103.171 42.3342 102.54 42.9729C101.929 43.6115 101.19 44.1104 100.323 44.4696C99.4566 44.8288 98.491 45.0085 97.4269 45.0085C96.3629 45.0085 95.3978 44.8288 94.5306 44.4696C93.6639 44.1104 92.9149 43.6115 92.2844 42.9729C91.6736 42.3342 91.2007 41.5758 90.866 40.6977C90.5506 39.8196 90.3931 38.8616 90.3931 37.8238V23.7539Z" fill="white"/>
<path d="M106.428 26.1488V23.7539H119.58V26.1488H114.26V44.7091H111.747V26.1488H106.428Z" fill="white"/>
<path d="M137.179 30.9604L135.642 45.1201H133.13L135.642 23.1172L143.917 38.2947L152.193 23.1172L154.705 45.1201H152.193L150.656 30.9604L143.917 43.1743L137.179 30.9604Z" fill="white"/>
<path d="M159.043 44.7091V42.3142H169.476V44.7091H159.043ZM159.043 26.1488V23.7539H169.476V26.1488H159.043ZM159.043 34.5309V32.136H168.885V34.5309H159.043ZM157.654 23.7539H160.166V44.7091H157.654V23.7539Z" fill="white"/>
<path d="M183.574 36.5857V34.1087H193.496C193.496 35.6156 193.273 37.0502 192.825 38.4125C192.377 39.7542 191.716 40.9514 190.84 42.0041C189.965 43.0568 188.886 43.8928 187.604 44.5121C186.342 45.1107 184.897 45.41 183.269 45.41C181.722 45.41 180.287 45.1416 178.964 44.6049C177.641 44.0476 176.491 43.2736 175.515 42.2828C174.538 41.2713 173.774 40.0845 173.225 38.7221C172.696 37.3598 172.431 35.8736 172.431 34.2636C172.431 32.6536 172.696 31.1674 173.225 29.805C173.774 28.4427 174.538 27.2661 175.515 26.2754C176.491 25.2639 177.641 24.4899 178.964 23.9532C180.287 23.3958 181.722 23.1172 183.269 23.1172C184.592 23.1172 185.803 23.2927 186.902 23.6435C188.022 23.9944 189.019 24.5105 189.894 25.1916C190.789 25.8728 191.542 26.7191 192.153 27.7306L190.321 29.4335C189.65 28.2776 188.714 27.3797 187.513 26.7397C186.312 26.0792 184.897 25.749 183.269 25.749C181.763 25.749 180.399 26.1102 179.178 26.8326C177.957 27.5551 176.98 28.5562 176.247 29.836C175.535 31.0951 175.179 32.571 175.179 34.2636C175.179 35.9355 175.535 37.4114 176.247 38.6912C176.98 39.971 177.957 40.972 179.178 41.6945C180.399 42.417 181.763 42.7782 183.269 42.7782C184.327 42.7782 185.274 42.6234 186.108 42.3137C186.963 41.9835 187.696 41.5294 188.306 40.9514C188.917 40.3734 189.416 39.7129 189.803 38.9698C190.209 38.2267 190.505 37.4321 190.688 36.5857H183.574Z" fill="white"/>
</g>
<path fill-rule="evenodd" clip-rule="evenodd" d="M22.7669 46.3199C20.0374 43.067 18.3931 38.8603 18.3931 34.2642C18.3931 23.9821 26.6349 15.6338 36.786 15.6338C40.8894 15.6338 44.6821 16.9975 47.7408 19.304C46.5839 19.3561 45.4196 19.753 44.4117 20.5038C42.1586 22.1749 39.8889 24.5913 39.3187 29.3588C39.0336 31.736 39.8006 33.927 40.5326 35.4025C40.0802 35.3168 39.624 35.3317 39.1918 35.4323C39.0502 35.4659 38.9086 35.5087 38.7706 35.5627C36.3814 36.2931 35.5721 35.0336 35.298 34.0742C35.3256 33.7276 35.3477 33.3289 35.3477 33.0625C35.3477 30.0127 32.9033 27.5349 29.8942 27.5349C26.8851 27.5349 24.4407 30.0127 24.4407 33.0625C24.4407 34.1822 24.7736 35.2274 25.3382 36.0974C25.4725 36.3005 25.6178 36.498 25.776 36.6824C26.2689 37.4071 26.9899 38.7057 26.9108 40.008C26.7931 41.9604 25.6509 43.9371 25.02 44.468C24.4112 44.9804 22.8754 46.2361 22.7687 46.3237L22.7669 46.3199ZM53.5401 26.5698C54.5906 28.9154 55.1791 31.5218 55.1791 34.2642C55.1791 44.5463 46.9352 52.8944 36.786 52.8944C31.6783 52.8944 27.0525 50.78 23.7197 47.3726C25.0366 46.89 28.3197 45.2878 30.9922 42.5845C33.0081 40.5464 33.8873 39.3782 34.4464 37.8953V37.9008C35.9032 42.02 38.4984 42.1132 38.6841 42.1523C40.4866 42.5156 42.4124 41.6344 43.0525 39.8925C43.3946 38.9628 43.3063 37.9791 42.8888 37.1631C42.9347 37.0606 42.9587 36.9507 42.9587 36.8408C42.9587 36.8408 41.0587 31.0244 47.6691 30.9293C47.9248 30.9424 48.1804 30.9368 48.4343 30.9182C49.5195 30.8269 50.5918 30.4282 51.515 29.696C52.5488 28.8781 53.2327 27.7696 53.5401 26.5698Z" fill="white"/>
</svg>
