<svg width="13" height="13" viewBox="0 0 13 13" fill="none" xmlns="http://www.w3.org/2000/svg">
<rect x="0.5" y="3" width="9" height="9" rx="1.5" stroke="#FFE3D3"/>
<path d="M4.64645 7.14645C4.45118 7.34171 4.45118 7.65829 4.64645 7.85355C4.84171 8.04882 5.15829 8.04882 5.35355 7.85355L5 7.5L4.64645 7.14645ZM12.5 0.5C12.5 0.223858 12.2761 -4.72416e-09 12 -4.72416e-09L7.5 -4.72416e-09C7.22386 -4.72416e-09 7 0.223858 7 0.5C7 0.776142 7.22386 1 7.5 1H11.5V5C11.5 5.27614 11.7239 5.5 12 5.5C12.2761 5.5 12.5 5.27614 12.5 5L12.5 0.5ZM5 7.5L5.35355 7.85355L12.3536 0.853553L12 0.5L11.6464 0.146447L4.64645 7.14645L5 7.5Z" fill="#FFE3D3"/>
</svg>
