<svg width="176" height="48" viewBox="0 0 176 48" fill="none" xmlns="http://www.w3.org/2000/svg">
<rect width="176" height="48" rx="5" fill="#54C2D1"/>
<rect x="19" y="15" width="26" height="18" rx="1" stroke="white" stroke-width="2"/>
<path d="M19.5557 15.3047L32.389 24.8699L44.8334 15.3047" stroke="white" stroke-width="2"/>
<path d="M68.976 17.008C68.9653 17.0933 68.9493 17.2267 68.928 17.408C68.9067 17.5787 68.8853 17.7547 68.864 17.936C68.8533 18.1067 68.8427 18.2613 68.832 18.4C68.8107 18.7093 68.7893 19.0507 68.768 19.424C68.7573 19.7867 68.7467 20.1653 68.736 20.56C68.7253 20.944 68.7147 21.3333 68.704 21.728C68.704 22.1227 68.704 22.5067 68.704 22.88C68.704 23.3173 68.7093 23.8027 68.72 24.336C68.7307 24.8587 68.7413 25.3813 68.752 25.904C68.7733 26.416 68.784 26.8853 68.784 27.312C68.7947 27.7387 68.8 28.0693 68.8 28.304C68.8 28.9653 68.7253 29.4773 68.576 29.84C68.4373 30.2027 68.2347 30.4533 67.968 30.592C67.7013 30.7413 67.392 30.816 67.04 30.816C66.656 30.816 66.2453 30.736 65.808 30.576C65.3707 30.4267 64.96 30.2133 64.576 29.936C64.2027 29.6587 63.8933 29.3387 63.648 28.976C63.4133 28.6027 63.296 28.2027 63.296 27.776C63.296 27.264 63.488 26.7573 63.872 26.256C64.2667 25.744 64.784 25.2747 65.424 24.848C66.0747 24.4213 66.7733 24.08 67.52 23.824C68.2347 23.5573 68.9707 23.3653 69.728 23.248C70.4853 23.12 71.168 23.056 71.776 23.056C72.5973 23.056 73.3387 23.1947 74 23.472C74.6613 23.7387 75.1893 24.1333 75.584 24.656C75.9787 25.1787 76.176 25.808 76.176 26.544C76.176 27.1627 76.0587 27.7333 75.824 28.256C75.5893 28.7787 75.2107 29.232 74.688 29.616C74.176 29.9893 73.4933 30.2827 72.64 30.496C72.2773 30.5707 71.9147 30.624 71.552 30.656C71.2 30.6987 70.864 30.7307 70.544 30.752L69.808 28.688C70.1707 28.688 70.5173 28.6827 70.848 28.672C71.1893 28.6507 71.4987 28.6187 71.776 28.576C72.2133 28.4907 72.608 28.3627 72.96 28.192C73.312 28.0213 73.5893 27.7973 73.792 27.52C73.9947 27.2427 74.096 26.912 74.096 26.528C74.096 26.1653 73.9947 25.856 73.792 25.6C73.6 25.344 73.328 25.1467 72.976 25.008C72.624 24.8693 72.2133 24.8 71.744 24.8C71.072 24.8 70.3893 24.8693 69.696 25.008C69.0133 25.1467 68.3573 25.3387 67.728 25.584C67.2587 25.7653 66.8373 25.9787 66.464 26.224C66.0907 26.4587 65.7973 26.704 65.584 26.96C65.3707 27.216 65.264 27.4613 65.264 27.696C65.264 27.824 65.3013 27.9467 65.376 28.064C65.4613 28.1707 65.568 28.2667 65.696 28.352C65.824 28.4373 65.952 28.5067 66.08 28.56C66.2187 28.6027 66.336 28.624 66.432 28.624C66.5813 28.624 66.704 28.5813 66.8 28.496C66.896 28.4 66.944 28.2187 66.944 27.952C66.944 27.664 66.9333 27.2533 66.912 26.72C66.9013 26.176 66.8853 25.5733 66.864 24.912C66.8533 24.2507 66.848 23.5947 66.848 22.944C66.848 22.496 66.848 22.0427 66.848 21.584C66.8587 21.1253 66.864 20.688 66.864 20.272C66.864 19.856 66.864 19.488 66.864 19.168C66.8747 18.848 66.88 18.5973 66.88 18.416C66.88 18.2987 66.8747 18.1493 66.864 17.968C66.8533 17.7867 66.8373 17.6053 66.816 17.424C66.8053 17.232 66.7893 17.0933 66.768 17.008H68.976ZM73.536 18.736C73.9413 18.928 74.3947 19.1627 74.896 19.44C75.408 19.7173 75.8933 19.9947 76.352 20.272C76.8213 20.5387 77.1947 20.7787 77.472 20.992L76.512 22.624C76.3093 22.4533 76.0427 22.2613 75.712 22.048C75.392 21.8347 75.04 21.616 74.656 21.392C74.2827 21.168 73.92 20.96 73.568 20.768C73.216 20.5653 72.912 20.4053 72.656 20.288L73.536 18.736ZM63.728 19.616C64.1973 19.6693 64.608 19.7067 64.96 19.728C65.3227 19.7387 65.648 19.744 65.936 19.744C66.352 19.744 66.8107 19.728 67.312 19.696C67.8133 19.6533 68.3253 19.6 68.848 19.536C69.3707 19.4613 69.8773 19.376 70.368 19.28C70.8693 19.184 71.3227 19.0773 71.728 18.96L71.776 20.944C71.328 21.0507 70.8427 21.1467 70.32 21.232C69.7973 21.3067 69.2693 21.376 68.736 21.44C68.2133 21.504 67.712 21.552 67.232 21.584C66.7627 21.616 66.352 21.632 66 21.632C65.4667 21.632 65.0293 21.6267 64.688 21.616C64.3467 21.6053 64.0373 21.584 63.76 21.552L63.728 19.616ZM83.664 24.112H89.072V29.168H83.664V27.6H87.264V25.696H83.664V24.112ZM82.832 24.112H84.608V30.08H82.832V24.112ZM80.224 19.344H84.224V20.64H80.224V19.344ZM87.648 19.344H91.68V20.64H87.648V19.344ZM90.88 17.024H92.832V29.136C92.832 29.6693 92.768 30.0853 92.64 30.384C92.512 30.6827 92.2827 30.912 91.952 31.072C91.6107 31.232 91.184 31.3333 90.672 31.376C90.16 31.4187 89.5307 31.44 88.784 31.44C88.7733 31.248 88.7307 31.0347 88.656 30.8C88.5813 30.5653 88.5013 30.3253 88.416 30.08C88.3307 29.8453 88.2347 29.6427 88.128 29.472C88.448 29.4933 88.768 29.5093 89.088 29.52C89.408 29.52 89.6907 29.52 89.936 29.52C90.192 29.5093 90.3733 29.504 90.48 29.504C90.6293 29.504 90.7307 29.4773 90.784 29.424C90.848 29.36 90.88 29.2533 90.88 29.104V17.024ZM80.368 17.024H85.44V23.008H80.368V21.552H83.632V18.48H80.368V17.024ZM91.92 17.024V18.48H88.336V21.584H91.92V23.024H86.512V17.024H91.92ZM79.28 17.024H81.184V31.44H79.28V17.024ZM98.16 18.56C98.1173 18.752 98.08 18.9707 98.048 19.216C98.0267 19.4613 98.0053 19.7013 97.984 19.936C97.9733 20.1707 97.968 20.3627 97.968 20.512C97.9573 20.864 97.952 21.2267 97.952 21.6C97.9627 21.9733 97.9733 22.3573 97.984 22.752C98.0053 23.136 98.032 23.52 98.064 23.904C98.1387 24.672 98.2453 25.3493 98.384 25.936C98.5227 26.5227 98.704 26.9813 98.928 27.312C99.152 27.632 99.4347 27.792 99.776 27.792C99.9573 27.792 100.133 27.6907 100.304 27.488C100.485 27.2853 100.645 27.024 100.784 26.704C100.933 26.3733 101.061 26.0267 101.168 25.664C101.285 25.3013 101.387 24.96 101.472 24.64L103.072 26.592C102.72 27.52 102.368 28.2613 102.016 28.816C101.675 29.36 101.317 29.7547 100.944 30C100.571 30.2347 100.165 30.352 99.728 30.352C99.152 30.352 98.6027 30.16 98.08 29.776C97.568 29.392 97.1307 28.7733 96.768 27.92C96.4053 27.056 96.1493 25.9093 96 24.48C95.9467 23.9893 95.904 23.472 95.872 22.928C95.8507 22.384 95.8347 21.8667 95.824 21.376C95.824 20.8853 95.824 20.48 95.824 20.16C95.824 19.936 95.8133 19.6693 95.792 19.36C95.7707 19.0507 95.7387 18.7733 95.696 18.528L98.16 18.56ZM106.16 18.928C106.459 19.2907 106.747 19.7333 107.024 20.256C107.301 20.7787 107.557 21.3387 107.792 21.936C108.027 22.5333 108.235 23.1467 108.416 23.776C108.597 24.3947 108.741 25.0027 108.848 25.6C108.965 26.1867 109.04 26.7253 109.072 27.216L106.96 28.032C106.907 27.3813 106.811 26.672 106.672 25.904C106.533 25.136 106.347 24.3627 106.112 23.584C105.877 22.8053 105.595 22.0693 105.264 21.376C104.944 20.6827 104.565 20.0853 104.128 19.584L106.16 18.928ZM114.016 21.568H122.032V23.264H114.016V21.568ZM113.808 29.168H122.08V30.864H113.808V29.168ZM112.96 24.864H123.168V31.456H121.184V26.544H114.848V31.456H112.96V24.864ZM117.952 18.304C117.515 18.9333 116.96 19.5733 116.288 20.224C115.627 20.8747 114.885 21.4987 114.064 22.096C113.253 22.6933 112.411 23.232 111.536 23.712C111.451 23.5627 111.339 23.392 111.2 23.2C111.072 23.008 110.928 22.8213 110.768 22.64C110.619 22.448 110.469 22.288 110.32 22.16C111.248 21.7013 112.133 21.152 112.976 20.512C113.829 19.872 114.592 19.1947 115.264 18.48C115.936 17.7653 116.469 17.0827 116.864 16.432H118.864C119.291 17.04 119.771 17.6213 120.304 18.176C120.837 18.7307 121.397 19.248 121.984 19.728C122.581 20.208 123.2 20.6347 123.84 21.008C124.48 21.3813 125.115 21.696 125.744 21.952C125.509 22.1973 125.285 22.4747 125.072 22.784C124.859 23.0827 124.667 23.3813 124.496 23.68C123.877 23.36 123.253 22.992 122.624 22.576C121.995 22.1493 121.387 21.7013 120.8 21.232C120.224 20.752 119.691 20.2667 119.2 19.776C118.709 19.2747 118.293 18.784 117.952 18.304ZM134.176 28.496C134.88 28.3893 135.525 28.2347 136.112 28.032C136.699 27.8293 137.205 27.568 137.632 27.248C138.069 26.928 138.405 26.5387 138.64 26.08C138.875 25.6107 138.992 25.0613 138.992 24.432C138.992 24.1227 138.933 23.824 138.816 23.536C138.699 23.248 138.523 22.992 138.288 22.768C138.064 22.5333 137.792 22.352 137.472 22.224C137.152 22.096 136.789 22.032 136.384 22.032C135.371 22.032 134.427 22.2987 133.552 22.832C132.677 23.3547 131.851 24.032 131.072 24.864V22.592C132.032 21.696 132.997 21.0667 133.968 20.704C134.949 20.3413 135.867 20.16 136.72 20.16C137.541 20.16 138.283 20.3413 138.944 20.704C139.616 21.0667 140.149 21.5733 140.544 22.224C140.939 22.8747 141.136 23.6267 141.136 24.48C141.136 25.2907 141.008 26.0213 140.752 26.672C140.496 27.3227 140.117 27.8933 139.616 28.384C139.115 28.8747 138.491 29.2907 137.744 29.632C136.997 29.9627 136.128 30.2293 135.136 30.432L134.176 28.496ZM130.544 21.552C130.373 21.5627 130.155 21.5893 129.888 21.632C129.621 21.664 129.333 21.7013 129.024 21.744C128.725 21.776 128.421 21.8133 128.112 21.856C127.803 21.8987 127.515 21.936 127.248 21.968L127.04 19.92C127.275 19.9307 127.493 19.936 127.696 19.936C127.909 19.9253 128.155 19.9147 128.432 19.904C128.688 19.8827 128.992 19.856 129.344 19.824C129.707 19.7813 130.069 19.7333 130.432 19.68C130.805 19.6267 131.152 19.568 131.472 19.504C131.792 19.44 132.043 19.376 132.224 19.312L132.864 20.128C132.768 20.256 132.656 20.416 132.528 20.608C132.411 20.8 132.288 20.9973 132.16 21.2C132.032 21.392 131.92 21.5627 131.824 21.712L130.88 24.72C130.709 24.9653 130.496 25.2747 130.24 25.648C129.995 26.0213 129.733 26.416 129.456 26.832C129.179 27.248 128.907 27.648 128.64 28.032C128.373 28.416 128.133 28.752 127.92 29.04L126.656 27.296C126.859 27.04 127.093 26.7467 127.36 26.416C127.627 26.0747 127.899 25.7173 128.176 25.344C128.464 24.96 128.747 24.5813 129.024 24.208C129.301 23.824 129.557 23.4667 129.792 23.136C130.037 22.7947 130.24 22.5013 130.4 22.256L130.432 21.84L130.544 21.552ZM130.352 18.464C130.352 18.2293 130.352 17.9947 130.352 17.76C130.352 17.5147 130.331 17.2693 130.288 17.024L132.624 17.104C132.571 17.3493 132.507 17.7067 132.432 18.176C132.357 18.6347 132.283 19.1627 132.208 19.76C132.144 20.3573 132.08 20.9867 132.016 21.648C131.963 22.2987 131.915 22.9493 131.872 23.6C131.84 24.2507 131.824 24.8587 131.824 25.424C131.824 25.8613 131.824 26.304 131.824 26.752C131.835 27.2 131.845 27.6587 131.856 28.128C131.867 28.5973 131.888 29.0827 131.92 29.584C131.931 29.7227 131.947 29.9147 131.968 30.16C131.989 30.416 132.011 30.6347 132.032 30.816H129.824C129.845 30.6347 129.856 30.4213 129.856 30.176C129.867 29.9413 129.872 29.76 129.872 29.632C129.883 29.1093 129.893 28.624 129.904 28.176C129.915 27.728 129.92 27.2533 129.92 26.752C129.931 26.2507 129.947 25.6693 129.968 25.008C129.979 24.7627 129.995 24.4533 130.016 24.08C130.037 23.696 130.059 23.28 130.08 22.832C130.112 22.3733 130.144 21.9093 130.176 21.44C130.208 20.9707 130.235 20.5333 130.256 20.128C130.288 19.712 130.309 19.36 130.32 19.072C130.341 18.7733 130.352 18.5707 130.352 18.464ZM154.24 17.44C154.229 17.5253 154.219 17.6533 154.208 17.824C154.197 17.984 154.187 18.1547 154.176 18.336C154.165 18.5173 154.155 18.6827 154.144 18.832C154.144 19.184 154.139 19.5253 154.128 19.856C154.128 20.1867 154.123 20.5013 154.112 20.8C154.112 21.088 154.107 21.3707 154.096 21.648C154.085 22.1173 154.069 22.608 154.048 23.12C154.027 23.632 154 24.1067 153.968 24.544C153.936 24.9813 153.893 25.3387 153.84 25.616C153.755 26.032 153.605 26.3147 153.392 26.464C153.179 26.6027 152.864 26.672 152.448 26.672C152.267 26.672 152.016 26.6613 151.696 26.64C151.387 26.608 151.077 26.5707 150.768 26.528C150.469 26.4853 150.224 26.4533 150.032 26.432L150.08 24.656C150.325 24.7093 150.592 24.7573 150.88 24.8C151.179 24.8427 151.403 24.864 151.552 24.864C151.712 24.864 151.829 24.8427 151.904 24.8C151.989 24.7467 152.037 24.6453 152.048 24.496C152.08 24.2933 152.101 24.0373 152.112 23.728C152.133 23.4187 152.149 23.0827 152.16 22.72C152.181 22.3467 152.197 21.984 152.208 21.632C152.208 21.344 152.208 21.056 152.208 20.768C152.208 20.4693 152.208 20.1653 152.208 19.856C152.208 19.536 152.208 19.2213 152.208 18.912C152.208 18.7733 152.197 18.6133 152.176 18.432C152.165 18.24 152.155 18.0533 152.144 17.872C152.133 17.6907 152.117 17.5467 152.096 17.44H154.24ZM147.952 17.92C147.909 18.1867 147.883 18.448 147.872 18.704C147.861 18.9493 147.856 19.2427 147.856 19.584C147.856 19.872 147.851 20.256 147.84 20.736C147.84 21.216 147.835 21.7387 147.824 22.304C147.824 22.8587 147.819 23.4187 147.808 23.984C147.808 24.5387 147.808 25.0453 147.808 25.504C147.808 25.9627 147.813 26.3253 147.824 26.592C147.835 26.9867 147.861 27.312 147.904 27.568C147.957 27.8133 148.064 28.0053 148.224 28.144C148.384 28.2827 148.635 28.3787 148.976 28.432C149.328 28.4853 149.803 28.512 150.4 28.512C150.923 28.512 151.477 28.496 152.064 28.464C152.651 28.4213 153.216 28.368 153.76 28.304C154.304 28.24 154.779 28.176 155.184 28.112L155.104 30.288C154.752 30.3307 154.315 30.368 153.792 30.4C153.269 30.4427 152.725 30.4747 152.16 30.496C151.595 30.528 151.056 30.544 150.544 30.544C149.509 30.544 148.683 30.4853 148.064 30.368C147.445 30.2507 146.976 30.0533 146.656 29.776C146.336 29.4987 146.123 29.1253 146.016 28.656C145.909 28.1867 145.845 27.6053 145.824 26.912C145.824 26.6773 145.819 26.3627 145.808 25.968C145.808 25.5733 145.808 25.136 145.808 24.656C145.808 24.1653 145.808 23.664 145.808 23.152C145.808 22.64 145.808 22.1547 145.808 21.696C145.819 21.2267 145.824 20.816 145.824 20.464C145.824 20.112 145.824 19.856 145.824 19.696C145.824 19.3653 145.813 19.056 145.792 18.768C145.771 18.48 145.739 18.1973 145.696 17.92H147.952ZM142.592 21.536C142.827 21.536 143.12 21.5253 143.472 21.504C143.824 21.4827 144.203 21.456 144.608 21.424C144.928 21.392 145.403 21.3493 146.032 21.296C146.661 21.232 147.376 21.1627 148.176 21.088C148.976 21.0133 149.808 20.9387 150.672 20.864C151.547 20.7787 152.384 20.704 153.184 20.64C153.984 20.576 154.693 20.5227 155.312 20.48C155.536 20.4587 155.787 20.4427 156.064 20.432C156.352 20.4107 156.613 20.3893 156.848 20.368V22.336C156.763 22.3253 156.624 22.32 156.432 22.32C156.24 22.32 156.037 22.3253 155.824 22.336C155.621 22.336 155.451 22.3413 155.312 22.352C154.896 22.3627 154.389 22.3893 153.792 22.432C153.195 22.464 152.555 22.512 151.872 22.576C151.189 22.6293 150.491 22.6933 149.776 22.768C149.072 22.832 148.395 22.9013 147.744 22.976C147.093 23.0507 146.507 23.1147 145.984 23.168C145.461 23.2213 145.045 23.264 144.736 23.296C144.565 23.3173 144.357 23.3493 144.112 23.392C143.867 23.424 143.621 23.4613 143.376 23.504C143.141 23.536 142.955 23.5627 142.816 23.584L142.592 21.536Z" fill="white"/>
</svg>
