<svg width="149" height="62" viewBox="0 0 149 62" fill="none" xmlns="http://www.w3.org/2000/svg">
<mask id="mask0_457_4471" style="mask-type:luminance" maskUnits="userSpaceOnUse" x="48" y="15" width="87" height="17">
<path d="M134.207 15.4131H48.0713V31.2616H134.207V15.4131Z" fill="white"/>
</mask>
<g mask="url(#mask0_457_4471)">
<path d="M58.2011 17.061H59.8372V31.3447L49.6361 20.5396V30.6646H48V16.3809L58.2011 27.1859V17.061Z" fill="#161616"/>
<path d="M61.7188 17.001H63.3548V26.1348C63.3548 27.0676 63.605 27.819 64.1053 28.3891C64.606 28.9591 65.3374 29.2441 66.2996 29.2441C67.2621 29.2441 67.9935 28.9591 68.4939 28.3891C68.9942 27.819 69.2447 27.0676 69.2447 26.1348V17.001H70.8808V26.1348C70.8808 26.8085 70.7716 27.4303 70.5533 28.0004C70.3482 28.5704 70.0402 29.0628 69.6296 29.4774C69.2319 29.8919 68.7506 30.2158 68.1858 30.449C67.6214 30.6822 66.9925 30.7988 66.2996 30.7988C65.6066 30.7988 64.9781 30.6822 64.4133 30.449C63.8489 30.2158 63.3611 29.8919 62.9505 29.4774C62.5527 29.0628 62.2447 28.5704 62.0268 28.0004C61.8213 27.4303 61.7188 26.8085 61.7188 26.1348V17.001Z" fill="#161616"/>
<path d="M72.1616 18.5557V17.001H80.727V18.5557H77.2622V30.6045H75.6261V18.5557H72.1616Z" fill="#161616"/>
<path d="M87.4925 21.6795L86.4916 30.8716H84.8555L86.4916 16.5879L91.8807 26.4407L97.2702 16.5879L98.9063 30.8716H97.2702L96.2693 21.6795L91.8807 29.6084L87.4925 21.6795Z" fill="#161616"/>
<path d="M101.731 30.6045V29.0498H108.526V30.6045H101.731ZM101.731 18.5557V17.001H108.526V18.5557H101.731ZM101.731 23.9971V22.4424H108.141V23.9971H101.731ZM100.827 17.001H102.463V30.6045H100.827V17.001Z" fill="#161616"/>
<path d="M117.708 25.3313V23.7233H124.17C124.17 24.7015 124.024 25.6328 123.732 26.5172C123.441 27.3882 123.01 28.1653 122.44 28.8487C121.87 29.5321 121.167 30.0748 120.332 30.4768C119.51 30.8654 118.569 31.0597 117.509 31.0597C116.502 31.0597 115.567 30.8855 114.705 30.5371C113.844 30.1753 113.095 29.6728 112.459 29.0296C111.822 28.373 111.325 27.6025 110.967 26.7181C110.623 25.8338 110.451 24.869 110.451 23.8238C110.451 22.7786 110.623 21.8138 110.967 20.9294C111.325 20.045 111.822 19.2812 112.459 18.6381C113.095 17.9815 113.844 17.479 114.705 17.1306C115.567 16.7688 116.502 16.5879 117.509 16.5879C118.37 16.5879 119.159 16.7018 119.875 16.9296C120.604 17.1574 121.253 17.4924 121.823 17.9346C122.407 18.3768 122.897 18.9262 123.295 19.5828L122.102 20.6882C121.664 19.9379 121.055 19.355 120.273 18.9395C119.491 18.5108 118.569 18.2964 117.509 18.2964C116.528 18.2964 115.64 18.5309 114.845 18.9999C114.049 19.4688 113.413 20.1187 112.936 20.9495C112.472 21.7669 112.24 22.725 112.24 23.8238C112.24 24.9092 112.472 25.8673 112.936 26.6981C113.413 27.5289 114.049 28.1787 114.845 28.6477C115.64 29.1167 116.528 29.3512 117.509 29.3512C118.198 29.3512 118.815 29.2507 119.358 29.0497C119.915 28.8353 120.392 28.5405 120.79 28.1653C121.187 27.7901 121.512 27.3614 121.764 26.879C122.029 26.3966 122.221 25.8807 122.34 25.3313H117.708Z" fill="#161616"/>
</g>
<path fill-rule="evenodd" clip-rule="evenodd" d="M11.0426 34.0008C8.51978 31.0326 7 27.194 7 23.0001C7 13.6178 14.6176 6 23.9999 6C27.7926 6 31.298 7.24439 34.1251 9.34904C33.0558 9.39662 31.9797 9.7587 31.0481 10.4438C28.9656 11.9687 26.8678 14.1736 26.3408 18.524C26.0773 20.6932 26.7862 22.6924 27.4628 24.0388C27.0446 23.9606 26.623 23.9742 26.2235 24.066C26.0926 24.0966 25.9617 24.1357 25.8342 24.185C23.6259 24.8514 22.8779 23.7022 22.6246 22.8267C22.6501 22.5105 22.6705 22.1467 22.6705 21.9036C22.6705 19.1207 20.4112 16.8597 17.63 16.8597C14.8489 16.8597 12.5896 19.1207 12.5896 21.9036C12.5896 22.9253 12.8973 23.879 13.4192 24.6729C13.5433 24.8582 13.6776 25.0384 13.8237 25.2067C14.2794 25.868 14.9458 27.0529 14.8727 28.2412C14.7639 30.0228 13.7081 31.8265 13.1251 32.311C12.5624 32.7785 11.1429 33.9243 11.0443 34.0043L11.0426 34.0008ZM39.4852 15.979C40.456 18.1194 41 20.4977 41 23.0001C41 32.3824 33.3805 40 23.9999 40C19.2791 40 15.0036 38.0706 11.9232 34.9614C13.1404 34.521 16.1748 33.059 18.6449 30.5923C20.5081 28.7325 21.3207 27.6666 21.8375 26.3134V26.3185C23.1839 30.0772 25.5826 30.1622 25.7543 30.1979C27.4203 30.5294 29.2002 29.7253 29.7918 28.1358C30.108 27.2875 30.0264 26.3899 29.6405 25.6453C29.683 25.5518 29.7051 25.4515 29.7051 25.3512C29.7051 25.3512 27.949 20.0438 34.0588 19.9571C34.2951 19.969 34.5314 19.9639 34.766 19.9469C35.769 19.8636 36.7601 19.4998 37.6134 18.8317C38.5689 18.0854 39.201 17.0739 39.4852 15.979Z" fill="url(#paint0_radial_457_4471)"/>
<path d="M46.5 44.32H55.5V45.16H46.5V44.32ZM48.75 41.42H54.2V42.17H48.75V41.42ZM48.75 42.86H54.2V43.61H48.75V42.86ZM46.96 47.91C47.3533 47.8567 47.8033 47.7933 48.31 47.72C48.8233 47.64 49.3633 47.5567 49.93 47.47C50.4967 47.3767 51.06 47.2867 51.62 47.2L51.67 48.04C51.1433 48.1267 50.61 48.2133 50.07 48.3C49.5367 48.3933 49.0233 48.48 48.53 48.56C48.0367 48.64 47.59 48.7133 47.19 48.78L46.96 47.91ZM51.21 44.56C51.55 45.4667 52.09 46.2167 52.83 46.81C53.5767 47.3967 54.5267 47.8 55.68 48.02C55.6133 48.0867 55.54 48.17 55.46 48.27C55.3867 48.37 55.3167 48.47 55.25 48.57C55.1833 48.6767 55.1267 48.7733 55.08 48.86C54.2667 48.6733 53.5567 48.3967 52.95 48.03C52.3433 47.6633 51.8233 47.21 51.39 46.67C50.9633 46.1233 50.6133 45.49 50.34 44.77L51.21 44.56ZM54.35 45.16L55.12 45.68C54.8733 45.86 54.6067 46.04 54.32 46.22C54.0333 46.4 53.7467 46.57 53.46 46.73C53.1733 46.8833 52.9067 47.02 52.66 47.14L52.03 46.64C52.2767 46.52 52.54 46.3767 52.82 46.21C53.1067 46.0367 53.3833 45.8567 53.65 45.67C53.9233 45.4833 54.1567 45.3133 54.35 45.16ZM48.23 39.93H54.49V40.72H49.19V44.67H48.23V39.93ZM48.22 44.58H49.19V47.97L48.22 48.08V44.58ZM56.84 40.06H64.69V40.96H57.76V48.84H56.84V40.06ZM64.29 40.06H65.22V47.77C65.22 48.0233 65.1867 48.22 65.12 48.36C65.06 48.5 64.9467 48.61 64.78 48.69C64.62 48.7633 64.41 48.81 64.15 48.83C63.89 48.85 63.5567 48.8567 63.15 48.85C63.13 48.73 63.0867 48.5833 63.02 48.41C62.96 48.2367 62.9 48.0933 62.84 47.98C63.1 47.9867 63.35 47.9933 63.59 48C63.83 48 63.99 47.9967 64.07 47.99C64.15 47.9833 64.2067 47.9667 64.24 47.94C64.2733 47.9067 64.29 47.8467 64.29 47.76V40.06ZM58.17 42.8H63.93V43.59H58.17V42.8ZM59.06 46.2H62.91V46.98H59.06V46.2ZM60.53 43.47H61.4V46.59H60.53V43.47ZM58.64 44.24H59.45V47.63H58.64V44.24ZM62.51 44.24H63.32V47.48H62.51V44.24ZM58.82 41.33L59.57 41.07C59.7367 41.2833 59.8867 41.53 60.02 41.81C60.1533 42.09 60.2467 42.3333 60.3 42.54L59.5 42.84C59.46 42.6267 59.3733 42.38 59.24 42.1C59.1133 41.8133 58.9733 41.5567 58.82 41.33ZM62.33 41.01L63.27 41.25C63.1167 41.5233 62.96 41.8033 62.8 42.09C62.6467 42.3767 62.5033 42.62 62.37 42.82L61.65 42.6C61.73 42.4533 61.81 42.2867 61.89 42.1C61.9767 41.9133 62.06 41.7233 62.14 41.53C62.22 41.3367 62.2833 41.1633 62.33 41.01ZM69.81 41.07H75.36V41.95H69.81V41.07ZM70 43.32H74.36V44.18H70V43.32ZM72.08 39.56H73.02V43.79H72.08V39.56ZM71.12 43.98C71.4933 44.9733 72.0667 45.8267 72.84 46.54C73.62 47.2467 74.5833 47.7467 75.73 48.04C75.6633 48.1 75.59 48.1767 75.51 48.27C75.43 48.37 75.3567 48.47 75.29 48.57C75.2233 48.6767 75.1667 48.77 75.12 48.85C73.92 48.4967 72.9233 47.9267 72.13 47.14C71.3367 46.3533 70.7167 45.3833 70.27 44.23L71.12 43.98ZM74.27 43.32H74.44L74.61 43.28L75.22 43.54C75.0067 44.2667 74.72 44.9167 74.36 45.49C74.0067 46.0567 73.59 46.5567 73.11 46.99C72.6367 47.4233 72.1133 47.79 71.54 48.09C70.9733 48.3967 70.3733 48.6433 69.74 48.83C69.7133 48.7433 69.67 48.6467 69.61 48.54C69.5567 48.44 69.4967 48.3367 69.43 48.23C69.3633 48.1233 69.3 48.04 69.24 47.98C69.82 47.8333 70.3767 47.63 70.91 47.37C71.45 47.1033 71.94 46.7833 72.38 46.41C72.8267 46.03 73.21 45.5967 73.53 45.11C73.8567 44.6167 74.1033 44.07 74.27 43.47V43.32ZM66.33 44.76C66.61 44.6933 66.93 44.6167 67.29 44.53C67.6567 44.4367 68.04 44.3367 68.44 44.23C68.8467 44.1167 69.2467 44.01 69.64 43.91L69.76 44.77C69.2133 44.93 68.66 45.09 68.1 45.25C67.5467 45.4033 67.04 45.5433 66.58 45.67L66.33 44.76ZM66.45 41.53H69.67V42.41H66.45V41.53ZM67.69 39.56H68.62V47.75C68.62 47.9967 68.59 48.1867 68.53 48.32C68.47 48.4533 68.3667 48.5567 68.22 48.63C68.0733 48.7033 67.8833 48.75 67.65 48.77C67.4167 48.7967 67.1267 48.8067 66.78 48.8C66.76 48.68 66.7233 48.5367 66.67 48.37C66.6167 48.21 66.56 48.0667 66.5 47.94C66.72 47.9467 66.9233 47.95 67.11 47.95C67.3033 47.95 67.4333 47.9467 67.5 47.94C67.6267 47.94 67.69 47.8767 67.69 47.75V39.56ZM76.6 42.35H85.44V43.33H76.6V42.35ZM81.58 42.74C81.7933 43.5267 82.08 44.26 82.44 44.94C82.8067 45.62 83.2533 46.2167 83.78 46.73C84.3133 47.2367 84.93 47.6367 85.63 47.93C85.55 47.9967 85.4633 48.0833 85.37 48.19C85.2833 48.2967 85.2 48.4033 85.12 48.51C85.04 48.6233 84.9733 48.7233 84.92 48.81C84.18 48.4633 83.5333 48.0067 82.98 47.44C82.4333 46.8667 81.97 46.2033 81.59 45.45C81.21 44.6967 80.89 43.87 80.63 42.97L81.58 42.74ZM80.48 39.56H81.51C81.51 40.0333 81.4967 40.5433 81.47 41.09C81.45 41.63 81.4 42.1867 81.32 42.76C81.24 43.3333 81.11 43.9067 80.93 44.48C80.75 45.0533 80.5 45.6067 80.18 46.14C79.86 46.6733 79.45 47.17 78.95 47.63C78.45 48.0833 77.84 48.48 77.12 48.82C77.04 48.6933 76.9333 48.5533 76.8 48.4C76.6667 48.2533 76.5333 48.13 76.4 48.03C77.0933 47.7167 77.6767 47.3533 78.15 46.94C78.63 46.52 79.0167 46.0667 79.31 45.58C79.61 45.0867 79.84 44.5767 80 44.05C80.16 43.5233 80.2733 42.9967 80.34 42.47C80.4067 41.9433 80.4467 41.4333 80.46 40.94C80.4733 40.4467 80.48 39.9867 80.48 39.56ZM88 40.43H88.92V48.83H88V40.43ZM86.39 42.37H90.33V43.26H86.39V42.37ZM88.05 42.72L88.62 42.97C88.52 43.3233 88.4 43.6933 88.26 44.08C88.12 44.46 87.9667 44.8367 87.8 45.21C87.64 45.5833 87.4667 45.9333 87.28 46.26C87.0933 46.5867 86.9033 46.8667 86.71 47.1C86.6633 46.9667 86.5933 46.8167 86.5 46.65C86.4067 46.4767 86.3233 46.3333 86.25 46.22C86.43 46.02 86.6067 45.7833 86.78 45.51C86.9533 45.23 87.12 44.9333 87.28 44.62C87.4467 44.3 87.5933 43.9767 87.72 43.65C87.8533 43.3233 87.9633 43.0133 88.05 42.72ZM89.68 39.67L90.23 40.44C89.91 40.56 89.55 40.6733 89.15 40.78C88.7567 40.88 88.35 40.9667 87.93 41.04C87.5167 41.1067 87.1167 41.1667 86.73 41.22C86.7167 41.12 86.6833 41 86.63 40.86C86.5767 40.7133 86.5233 40.59 86.47 40.49C86.85 40.43 87.2367 40.36 87.63 40.28C88.0233 40.1933 88.3967 40.1 88.75 40C89.11 39.8933 89.42 39.7833 89.68 39.67ZM88.89 43.36C88.95 43.42 89.0467 43.5267 89.18 43.68C89.3133 43.8333 89.4533 44 89.6 44.18C89.7533 44.3533 89.89 44.52 90.01 44.68C90.1367 44.8333 90.2267 44.9433 90.28 45.01L89.71 45.75C89.65 45.6233 89.5667 45.47 89.46 45.29C89.3533 45.1033 89.2367 44.91 89.11 44.71C88.9833 44.51 88.8633 44.3233 88.75 44.15C88.6367 43.9767 88.54 43.84 88.46 43.74L88.89 43.36ZM93.52 39.55H94.45V48.83H93.52V39.55ZM90.19 46.04L95.55 45.15L95.69 46.03L90.34 46.94L90.19 46.04ZM90.93 40.75L91.54 40.21C91.7333 40.3367 91.9333 40.4833 92.14 40.65C92.3467 40.8167 92.54 40.9833 92.72 41.15C92.9 41.3167 93.0433 41.4733 93.15 41.62L92.49 42.22C92.39 42.08 92.2533 41.9233 92.08 41.75C91.9133 41.57 91.7267 41.3933 91.52 41.22C91.32 41.0467 91.1233 40.89 90.93 40.75ZM90.55 43.37L91.15 42.82C91.3567 42.9533 91.57 43.1067 91.79 43.28C92.0167 43.4467 92.2267 43.6167 92.42 43.79C92.6133 43.9567 92.7667 44.1133 92.88 44.26L92.24 44.88C92.1333 44.7267 91.9833 44.56 91.79 44.38C91.6033 44.2 91.4 44.0233 91.18 43.85C90.9667 43.67 90.7567 43.51 90.55 43.37ZM98.3 42.95H103.11V43.78H98.3V42.95ZM96.58 45.22H105.47V46.09H96.58V45.22ZM100.52 44.52H101.49V47.78C101.49 48.04 101.45 48.24 101.37 48.38C101.297 48.52 101.153 48.6267 100.94 48.7C100.733 48.7667 100.477 48.8067 100.17 48.82C99.8633 48.84 99.4867 48.85 99.04 48.85C99.0133 48.7167 98.96 48.56 98.88 48.38C98.8067 48.2067 98.73 48.0567 98.65 47.93C98.8833 47.9367 99.11 47.9433 99.33 47.95C99.5567 47.9567 99.7533 47.96 99.92 47.96C100.087 47.9533 100.203 47.95 100.27 47.95C100.37 47.9433 100.437 47.9267 100.47 47.9C100.503 47.8733 100.52 47.8233 100.52 47.75V44.52ZM102.81 42.95H103.04L103.25 42.9L103.85 43.36C103.623 43.6 103.363 43.8367 103.07 44.07C102.777 44.3033 102.467 44.52 102.14 44.72C101.82 44.92 101.5 45.0967 101.18 45.25C101.12 45.1633 101.037 45.0667 100.93 44.96C100.83 44.8467 100.74 44.7567 100.66 44.69C100.933 44.5633 101.207 44.41 101.48 44.23C101.76 44.05 102.017 43.8667 102.25 43.68C102.483 43.4867 102.67 43.3033 102.81 43.13V42.95ZM96.74 41.19H105.32V43.52H104.39V42.03H97.64V43.52H96.74V41.19ZM103.79 39.62L104.8 39.94C104.58 40.26 104.347 40.5767 104.1 40.89C103.853 41.2033 103.627 41.47 103.42 41.69L102.66 41.39C102.793 41.23 102.93 41.0467 103.07 40.84C103.21 40.6333 103.343 40.4233 103.47 40.21C103.603 39.9967 103.71 39.8 103.79 39.62ZM97.42 40.03L98.22 39.67C98.4067 39.87 98.59 40.0967 98.77 40.35C98.95 40.6033 99.08 40.8267 99.16 41.02L98.32 41.43C98.24 41.2367 98.1133 41.01 97.94 40.75C97.7667 40.49 97.5933 40.25 97.42 40.03ZM99.97 39.82L100.8 39.51C100.96 39.7367 101.117 39.9933 101.27 40.28C101.43 40.56 101.54 40.8033 101.6 41.01L100.72 41.36C100.667 41.1467 100.567 40.8967 100.42 40.61C100.28 40.3167 100.13 40.0533 99.97 39.82ZM106.6 42.35H115.44V43.33H106.6V42.35ZM111.58 42.74C111.793 43.5267 112.08 44.26 112.44 44.94C112.807 45.62 113.253 46.2167 113.78 46.73C114.313 47.2367 114.93 47.6367 115.63 47.93C115.55 47.9967 115.463 48.0833 115.37 48.19C115.283 48.2967 115.2 48.4033 115.12 48.51C115.04 48.6233 114.973 48.7233 114.92 48.81C114.18 48.4633 113.533 48.0067 112.98 47.44C112.433 46.8667 111.97 46.2033 111.59 45.45C111.21 44.6967 110.89 43.87 110.63 42.97L111.58 42.74ZM110.48 39.56H111.51C111.51 40.0333 111.497 40.5433 111.47 41.09C111.45 41.63 111.4 42.1867 111.32 42.76C111.24 43.3333 111.11 43.9067 110.93 44.48C110.75 45.0533 110.5 45.6067 110.18 46.14C109.86 46.6733 109.45 47.17 108.95 47.63C108.45 48.0833 107.84 48.48 107.12 48.82C107.04 48.6933 106.933 48.5533 106.8 48.4C106.667 48.2533 106.533 48.13 106.4 48.03C107.093 47.7167 107.677 47.3533 108.15 46.94C108.63 46.52 109.017 46.0667 109.31 45.58C109.61 45.0867 109.84 44.5767 110 44.05C110.16 43.5233 110.273 42.9967 110.34 42.47C110.407 41.9433 110.447 41.4333 110.46 40.94C110.473 40.4467 110.48 39.9867 110.48 39.56ZM118.3 42.95H123.11V43.78H118.3V42.95ZM116.58 45.22H125.47V46.09H116.58V45.22ZM120.52 44.52H121.49V47.78C121.49 48.04 121.45 48.24 121.37 48.38C121.297 48.52 121.153 48.6267 120.94 48.7C120.733 48.7667 120.477 48.8067 120.17 48.82C119.863 48.84 119.487 48.85 119.04 48.85C119.013 48.7167 118.96 48.56 118.88 48.38C118.807 48.2067 118.73 48.0567 118.65 47.93C118.883 47.9367 119.11 47.9433 119.33 47.95C119.557 47.9567 119.753 47.96 119.92 47.96C120.087 47.9533 120.203 47.95 120.27 47.95C120.37 47.9433 120.437 47.9267 120.47 47.9C120.503 47.8733 120.52 47.8233 120.52 47.75V44.52ZM122.81 42.95H123.04L123.25 42.9L123.85 43.36C123.623 43.6 123.363 43.8367 123.07 44.07C122.777 44.3033 122.467 44.52 122.14 44.72C121.82 44.92 121.5 45.0967 121.18 45.25C121.12 45.1633 121.037 45.0667 120.93 44.96C120.83 44.8467 120.74 44.7567 120.66 44.69C120.933 44.5633 121.207 44.41 121.48 44.23C121.76 44.05 122.017 43.8667 122.25 43.68C122.483 43.4867 122.67 43.3033 122.81 43.13V42.95ZM116.74 41.19H125.32V43.52H124.39V42.03H117.64V43.52H116.74V41.19ZM123.79 39.62L124.8 39.94C124.58 40.26 124.347 40.5767 124.1 40.89C123.853 41.2033 123.627 41.47 123.42 41.69L122.66 41.39C122.793 41.23 122.93 41.0467 123.07 40.84C123.21 40.6333 123.343 40.4233 123.47 40.21C123.603 39.9967 123.71 39.8 123.79 39.62ZM117.42 40.03L118.22 39.67C118.407 39.87 118.59 40.0967 118.77 40.35C118.95 40.6033 119.08 40.8267 119.16 41.02L118.32 41.43C118.24 41.2367 118.113 41.01 117.94 40.75C117.767 40.49 117.593 40.25 117.42 40.03ZM119.97 39.82L120.8 39.51C120.96 39.7367 121.117 39.9933 121.27 40.28C121.43 40.56 121.54 40.8033 121.6 41.01L120.72 41.36C120.667 41.1467 120.567 40.8967 120.42 40.61C120.28 40.3167 120.13 40.0533 119.97 39.82ZM49.81 53.07H55.36V53.95H49.81V53.07ZM50 55.32H54.36V56.18H50V55.32ZM52.08 51.56H53.02V55.79H52.08V51.56ZM51.12 55.98C51.4933 56.9733 52.0667 57.8267 52.84 58.54C53.62 59.2467 54.5833 59.7467 55.73 60.04C55.6633 60.1 55.59 60.1767 55.51 60.27C55.43 60.37 55.3567 60.47 55.29 60.57C55.2233 60.6767 55.1667 60.77 55.12 60.85C53.92 60.4967 52.9233 59.9267 52.13 59.14C51.3367 58.3533 50.7167 57.3833 50.27 56.23L51.12 55.98ZM54.27 55.32H54.44L54.61 55.28L55.22 55.54C55.0067 56.2667 54.72 56.9167 54.36 57.49C54.0067 58.0567 53.59 58.5567 53.11 58.99C52.6367 59.4233 52.1133 59.79 51.54 60.09C50.9733 60.3967 50.3733 60.6433 49.74 60.83C49.7133 60.7433 49.67 60.6467 49.61 60.54C49.5567 60.44 49.4967 60.3367 49.43 60.23C49.3633 60.1233 49.3 60.04 49.24 59.98C49.82 59.8333 50.3767 59.63 50.91 59.37C51.45 59.1033 51.94 58.7833 52.38 58.41C52.8267 58.03 53.21 57.5967 53.53 57.11C53.8567 56.6167 54.1033 56.07 54.27 55.47V55.32ZM46.33 56.76C46.61 56.6933 46.93 56.6167 47.29 56.53C47.6567 56.4367 48.04 56.3367 48.44 56.23C48.8467 56.1167 49.2467 56.01 49.64 55.91L49.76 56.77C49.2133 56.93 48.66 57.09 48.1 57.25C47.5467 57.4033 47.04 57.5433 46.58 57.67L46.33 56.76ZM46.45 53.53H49.67V54.41H46.45V53.53ZM47.69 51.56H48.62V59.75C48.62 59.9967 48.59 60.1867 48.53 60.32C48.47 60.4533 48.3667 60.5567 48.22 60.63C48.0733 60.7033 47.8833 60.75 47.65 60.77C47.4167 60.7967 47.1267 60.8067 46.78 60.8C46.76 60.68 46.7233 60.5367 46.67 60.37C46.6167 60.21 46.56 60.0667 46.5 59.94C46.72 59.9467 46.9233 59.95 47.11 59.95C47.3033 59.95 47.4333 59.9467 47.5 59.94C47.6267 59.94 47.69 59.8767 47.69 59.75V51.56ZM56.6 54.35H65.44V55.33H56.6V54.35ZM61.58 54.74C61.7933 55.5267 62.08 56.26 62.44 56.94C62.8067 57.62 63.2533 58.2167 63.78 58.73C64.3133 59.2367 64.93 59.6367 65.63 59.93C65.55 59.9967 65.4633 60.0833 65.37 60.19C65.2833 60.2967 65.2 60.4033 65.12 60.51C65.04 60.6233 64.9733 60.7233 64.92 60.81C64.18 60.4633 63.5333 60.0067 62.98 59.44C62.4333 58.8667 61.97 58.2033 61.59 57.45C61.21 56.6967 60.89 55.87 60.63 54.97L61.58 54.74ZM60.48 51.56H61.51C61.51 52.0333 61.4967 52.5433 61.47 53.09C61.45 53.63 61.4 54.1867 61.32 54.76C61.24 55.3333 61.11 55.9067 60.93 56.48C60.75 57.0533 60.5 57.6067 60.18 58.14C59.86 58.6733 59.45 59.17 58.95 59.63C58.45 60.0833 57.84 60.48 57.12 60.82C57.04 60.6933 56.9333 60.5533 56.8 60.4C56.6667 60.2533 56.5333 60.13 56.4 60.03C57.0933 59.7167 57.6767 59.3533 58.15 58.94C58.63 58.52 59.0167 58.0667 59.31 57.58C59.61 57.0867 59.84 56.5767 60 56.05C60.16 55.5233 60.2733 54.9967 60.34 54.47C60.4067 53.9433 60.4467 53.4333 60.46 52.94C60.4733 52.4467 60.48 51.9867 60.48 51.56ZM68.45 51.56L69.35 51.72C69.0833 52.2467 68.74 52.7733 68.32 53.3C67.9067 53.82 67.3933 54.2933 66.78 54.72C66.7333 54.6467 66.6733 54.5733 66.6 54.5C66.5333 54.42 66.46 54.3433 66.38 54.27C66.3067 54.1967 66.2367 54.14 66.17 54.1C66.5433 53.86 66.8767 53.5967 67.17 53.31C67.4633 53.0233 67.7167 52.73 67.93 52.43C68.15 52.13 68.3233 51.84 68.45 51.56ZM68.4 52.19H70.42V52.85H68L68.4 52.19ZM70.19 52.19H70.36L70.52 52.16L71.09 52.4C70.8633 53.2067 70.5333 53.9167 70.1 54.53C69.6733 55.1367 69.1733 55.6533 68.6 56.08C68.0333 56.5 67.4233 56.8333 66.77 57.08C66.7167 56.9733 66.64 56.8467 66.54 56.7C66.44 56.5467 66.3467 56.4267 66.26 56.34C66.7067 56.1933 67.1333 55.9967 67.54 55.75C67.9533 55.5033 68.3333 55.21 68.68 54.87C69.0333 54.53 69.3367 54.15 69.59 53.73C69.85 53.3033 70.05 52.8433 70.19 52.35V52.19ZM67.82 53.37L68.25 52.93C68.4233 53.0167 68.6067 53.1167 68.8 53.23C68.9933 53.3433 69.1767 53.4567 69.35 53.57C69.5233 53.6767 69.6667 53.7767 69.78 53.87L69.34 54.36C69.2267 54.2667 69.0833 54.16 68.91 54.04C68.7433 53.92 68.5633 53.8033 68.37 53.69C68.1767 53.57 67.9933 53.4633 67.82 53.37ZM72.57 58.74L73.35 58.28C73.59 58.4667 73.84 58.6733 74.1 58.9C74.3667 59.12 74.6133 59.3433 74.84 59.57C75.0667 59.7967 75.25 60.0033 75.39 60.19L74.57 60.72C74.4367 60.54 74.26 60.3333 74.04 60.1C73.82 59.8667 73.58 59.63 73.32 59.39C73.0667 59.15 72.8167 58.9333 72.57 58.74ZM66.96 54.3L67.47 53.88C67.63 53.9867 67.8 54.1067 67.98 54.24C68.1667 54.3667 68.3433 54.4933 68.51 54.62C68.6767 54.74 68.8133 54.8533 68.92 54.96L68.39 55.43C68.29 55.3233 68.16 55.2033 68 55.07C67.84 54.9367 67.6667 54.8033 67.48 54.67C67.3 54.53 67.1267 54.4067 66.96 54.3ZM72.34 52.18H74.68V52.97H72.34V52.18ZM69.18 55.23H73.03V56.08H69.18V55.23ZM67.21 57.06H74.89V57.92H67.21V57.06ZM74.45 52.18H74.66L74.84 52.13L75.46 52.55C75.2933 52.8633 75.1 53.1833 74.88 53.51C74.66 53.8367 74.4233 54.1467 74.17 54.44C73.9167 54.7267 73.6633 54.9767 73.41 55.19C73.3433 55.1033 73.25 55.0033 73.13 54.89C73.0167 54.77 72.9167 54.6767 72.83 54.61C73.0433 54.4167 73.2567 54.19 73.47 53.93C73.6833 53.67 73.8733 53.4033 74.04 53.13C74.2133 52.8567 74.35 52.6033 74.45 52.37V52.18ZM71.8 51.68C72 52.4 72.2767 53.0567 72.63 53.65C72.99 54.2433 73.4333 54.7533 73.96 55.18C74.4867 55.6 75.1033 55.92 75.81 56.14C75.7433 56.2067 75.67 56.2867 75.59 56.38C75.5167 56.4667 75.4467 56.56 75.38 56.66C75.3133 56.76 75.26 56.8533 75.22 56.94C74.4667 56.66 73.8167 56.2833 73.27 55.81C72.7233 55.3367 72.2633 54.7667 71.89 54.1C71.5167 53.4333 71.2133 52.6833 70.98 51.85L71.8 51.68ZM70.55 57.48H71.5V59.88C71.5 60.1133 71.4667 60.2933 71.4 60.42C71.34 60.5533 71.2167 60.6533 71.03 60.72C70.85 60.7867 70.6233 60.8267 70.35 60.84C70.0767 60.8533 69.7467 60.8567 69.36 60.85C69.34 60.7233 69.2967 60.58 69.23 60.42C69.17 60.2667 69.11 60.13 69.05 60.01C69.2367 60.0167 69.4167 60.02 69.59 60.02C69.77 60.0267 69.9267 60.0267 70.06 60.02C70.1933 60.02 70.2867 60.02 70.34 60.02C70.4267 60.02 70.4833 60.01 70.51 59.99C70.5367 59.9633 70.55 59.92 70.55 59.86V57.48ZM68.3 58.27L69.24 58.54C69 58.9533 68.6967 59.3467 68.33 59.72C67.9633 60.0933 67.5967 60.4067 67.23 60.66C67.1767 60.6 67.1033 60.53 67.01 60.45C66.9167 60.3767 66.82 60.3 66.72 60.22C66.62 60.1467 66.5333 60.0867 66.46 60.04C66.8267 59.8267 67.1767 59.5667 67.51 59.26C67.8433 58.9467 68.1067 58.6167 68.3 58.27ZM80.5 51.57H81.48V53.08H80.5V51.57ZM76.75 52.5H85.25V54.53H84.27V53.33H77.68V54.53H76.75V52.5ZM77.61 54.34H84.46V55.11H77.61V54.34ZM76.63 57.47H85.43V58.29H76.63V57.47ZM77.77 55.88H84.3V56.66H77.77V55.88ZM81.55 57.65C81.8567 58.33 82.3433 58.8667 83.01 59.26C83.6833 59.6533 84.53 59.9133 85.55 60.04C85.4567 60.1333 85.3533 60.2633 85.24 60.43C85.1333 60.5967 85.0467 60.7433 84.98 60.87C84.2533 60.7433 83.6133 60.55 83.06 60.29C82.5067 60.0367 82.0367 59.7067 81.65 59.3C81.2633 58.8933 80.9467 58.4067 80.7 57.84L81.55 57.65ZM80.48 53.62H81.44V56.24C81.44 56.58 81.4067 56.9233 81.34 57.27C81.28 57.6167 81.1633 57.9567 80.99 58.29C80.8167 58.6233 80.5667 58.9433 80.24 59.25C79.9133 59.5567 79.49 59.8433 78.97 60.11C78.4567 60.3767 77.8233 60.62 77.07 60.84C77.0367 60.7733 76.9867 60.6933 76.92 60.6C76.8533 60.5067 76.78 60.4133 76.7 60.32C76.6267 60.2267 76.5567 60.1467 76.49 60.08C77.2167 59.8933 77.82 59.6867 78.3 59.46C78.7867 59.2267 79.1733 58.9833 79.46 58.73C79.7533 58.47 79.9733 58.2 80.12 57.92C80.2667 57.64 80.3633 57.3567 80.41 57.07C80.4567 56.7833 80.48 56.5 80.48 56.22V53.62ZM90.4 52.15H95.3V53.05H90.4V52.15ZM93.16 55.19H94.12V59.69C94.12 59.9633 94.0833 60.1733 94.01 60.32C93.9433 60.4733 93.8133 60.5867 93.62 60.66C93.4333 60.7333 93.1833 60.7767 92.87 60.79C92.5633 60.8033 92.1733 60.81 91.7 60.81C91.68 60.6767 91.64 60.52 91.58 60.34C91.5267 60.16 91.4667 60.0033 91.4 59.87C91.62 59.8767 91.8333 59.8833 92.04 59.89C92.2467 59.89 92.4267 59.89 92.58 59.89C92.7333 59.89 92.84 59.8867 92.9 59.88C93 59.88 93.0667 59.8667 93.1 59.84C93.14 59.8067 93.16 59.7533 93.16 59.68V55.19ZM89.97 54.91H95.58V55.81H89.97V54.91ZM87.86 55.86L88.69 55.03L88.81 55.08V60.86H87.86V55.86ZM89.01 53.71L89.9 54.05C89.6467 54.4833 89.35 54.9133 89.01 55.34C88.67 55.7667 88.3167 56.17 87.95 56.55C87.5833 56.93 87.22 57.2633 86.86 57.55C86.82 57.4833 86.76 57.4 86.68 57.3C86.6 57.1933 86.5167 57.09 86.43 56.99C86.35 56.8833 86.2767 56.8 86.21 56.74C86.55 56.5 86.89 56.2167 87.23 55.89C87.5767 55.5633 87.9033 55.2133 88.21 54.84C88.5167 54.4667 88.7833 54.09 89.01 53.71ZM88.61 51.55L89.52 51.93C89.2933 52.23 89.03 52.5367 88.73 52.85C88.43 53.1567 88.12 53.4533 87.8 53.74C87.48 54.02 87.1633 54.27 86.85 54.49C86.81 54.4167 86.7567 54.3333 86.69 54.24C86.63 54.14 86.5667 54.0433 86.5 53.95C86.4333 53.8567 86.37 53.78 86.31 53.72C86.59 53.5333 86.8733 53.3167 87.16 53.07C87.4533 52.8233 87.7267 52.5667 87.98 52.3C88.2333 52.0333 88.4433 51.7833 88.61 51.55ZM96.45 56.98H105.56V57.77H96.45V56.98ZM99.83 55.97L100.76 56.22C100.547 56.5667 100.313 56.93 100.06 57.31C99.8067 57.69 99.5533 58.06 99.3 58.42C99.0533 58.78 98.8267 59.0967 98.62 59.37L97.71 59.07C97.9233 58.8033 98.1533 58.4933 98.4 58.14C98.6533 57.78 98.9033 57.41 99.15 57.03C99.4033 56.65 99.63 56.2967 99.83 55.97ZM102.67 57.29L103.59 57.53C103.363 58.0967 103.06 58.5767 102.68 58.97C102.3 59.3567 101.84 59.6767 101.3 59.93C100.767 60.1767 100.14 60.37 99.42 60.51C98.7 60.6567 97.88 60.77 96.96 60.85C96.9333 60.71 96.8833 60.5633 96.81 60.41C96.7433 60.2567 96.67 60.1267 96.59 60.02C97.73 59.96 98.7033 59.8367 99.51 59.65C100.317 59.4633 100.98 59.1833 101.5 58.81C102.02 58.43 102.41 57.9233 102.67 57.29ZM98.35 59.05L98.83 58.35C99.63 58.4967 100.423 58.6667 101.21 58.86C102.003 59.0533 102.75 59.2533 103.45 59.46C104.15 59.6667 104.75 59.8667 105.25 60.06L104.68 60.84C104.187 60.6333 103.603 60.4233 102.93 60.21C102.257 59.9967 101.53 59.79 100.75 59.59C99.97 59.39 99.17 59.21 98.35 59.05ZM96.56 53.59H105.42V54.37H96.56V53.59ZM100.51 52.34H101.45V56.26H100.51V52.34ZM100.1 53.79L100.87 54.11C100.643 54.3833 100.377 54.65 100.07 54.91C99.77 55.1633 99.4467 55.4 99.1 55.62C98.7533 55.84 98.39 56.0367 98.01 56.21C97.6367 56.3833 97.2633 56.5267 96.89 56.64C96.8233 56.5267 96.7333 56.3967 96.62 56.25C96.5133 56.1033 96.41 55.9867 96.31 55.9C96.6767 55.8067 97.04 55.69 97.4 55.55C97.7667 55.4033 98.12 55.2367 98.46 55.05C98.8 54.8633 99.11 54.6633 99.39 54.45C99.67 54.2367 99.9067 54.0167 100.1 53.79ZM101.85 53.79C102.11 54.0833 102.443 54.3633 102.85 54.63C103.263 54.89 103.713 55.1233 104.2 55.33C104.693 55.53 105.18 55.69 105.66 55.81C105.593 55.87 105.52 55.9467 105.44 56.04C105.367 56.1333 105.293 56.23 105.22 56.33C105.153 56.4233 105.097 56.51 105.05 56.59C104.683 56.4767 104.31 56.3367 103.93 56.17C103.557 56.0033 103.193 55.8133 102.84 55.6C102.493 55.38 102.17 55.1467 101.87 54.9C101.577 54.6467 101.313 54.3833 101.08 54.11L101.85 53.79ZM103.79 51.57L104.48 52.23C104.02 52.3367 103.507 52.4267 102.94 52.5C102.373 52.5733 101.777 52.6367 101.15 52.69C100.53 52.7367 99.9067 52.7767 99.28 52.81C98.6533 52.8367 98.0467 52.8533 97.46 52.86C97.4533 52.76 97.43 52.6367 97.39 52.49C97.35 52.3433 97.3067 52.2233 97.26 52.13C97.8333 52.1233 98.4233 52.1067 99.03 52.08C99.6367 52.0467 100.233 52.0067 100.82 51.96C101.407 51.9133 101.953 51.8567 102.46 51.79C102.973 51.7233 103.417 51.65 103.79 51.57ZM108.8 52.66V53.53H113.25V52.66H108.8ZM107.85 51.91H114.25V54.28H107.85V51.91ZM108.35 56.66V57.24H113.65V56.66H108.35ZM108.35 57.87V58.47H113.65V57.87H108.35ZM108.35 55.45V56.02H113.65V55.45H108.35ZM107.41 54.77H114.63V59.14H107.41V54.77ZM109.33 59.04L110.19 59.62C109.923 59.78 109.61 59.9367 109.25 60.09C108.897 60.25 108.53 60.3933 108.15 60.52C107.77 60.6533 107.407 60.7633 107.06 60.85C106.98 60.75 106.87 60.6333 106.73 60.5C106.59 60.3667 106.463 60.2533 106.35 60.16C106.703 60.08 107.07 59.98 107.45 59.86C107.83 59.7333 108.187 59.6 108.52 59.46C108.853 59.3133 109.123 59.1733 109.33 59.04ZM111.66 59.69L112.49 59.08C112.843 59.1733 113.213 59.2867 113.6 59.42C113.993 59.5533 114.37 59.6867 114.73 59.82C115.097 59.9533 115.413 60.0767 115.68 60.19L114.85 60.86C114.597 60.74 114.287 60.61 113.92 60.47C113.56 60.33 113.18 60.19 112.78 60.05C112.387 59.91 112.013 59.79 111.66 59.69ZM122.676 57.3H126.426V57.99H122.676V57.3ZM121.606 52.3H127.566V52.99H121.606V52.3ZM121.866 53.53H127.306V54.19H121.866V53.53ZM121.306 54.77H127.866V55.47H121.306V54.77ZM122.686 58.62H126.456V59.3H122.686V58.62ZM122.006 55.97H126.406V56.68H122.886V60.84H122.006V55.97ZM126.226 55.97H127.126V59.87C127.126 60.0833 127.099 60.2533 127.046 60.38C126.993 60.5133 126.886 60.6133 126.726 60.68C126.566 60.7467 126.366 60.7867 126.126 60.8C125.886 60.8133 125.589 60.82 125.236 60.82C125.216 60.7 125.179 60.56 125.126 60.4C125.079 60.2467 125.026 60.1133 124.966 60C125.199 60.0133 125.419 60.02 125.626 60.02C125.839 60.02 125.979 60.02 126.046 60.02C126.166 60.02 126.226 59.9633 126.226 59.85V55.97ZM124.086 51.56H125.016V54.99H124.086V51.56ZM119.726 51.56H120.586V60.83H119.726V51.56ZM118.906 53.51L119.596 53.6C119.589 53.8667 119.566 54.1667 119.526 54.5C119.486 54.8267 119.436 55.1533 119.376 55.48C119.323 55.8 119.259 56.09 119.186 56.35L118.476 56.11C118.549 55.8767 118.616 55.61 118.676 55.31C118.736 55.0033 118.786 54.6933 118.826 54.38C118.866 54.0667 118.893 53.7767 118.906 53.51ZM120.566 53.23L121.176 52.98C121.283 53.2067 121.389 53.4567 121.496 53.73C121.609 53.9967 121.693 54.22 121.746 54.4L121.106 54.71C121.059 54.5167 120.983 54.28 120.876 54C120.776 53.72 120.673 53.4633 120.566 53.23ZM133.846 55.42H137.026V56.19H133.846V55.42ZM133.376 52H136.996V52.84H134.246V60.84H133.376V52ZM136.536 52H137.416V53.92C137.416 54.1333 137.386 54.3067 137.326 54.44C137.266 54.5667 137.149 54.6633 136.976 54.73C136.809 54.79 136.593 54.83 136.326 54.85C136.059 54.8633 135.736 54.87 135.356 54.87C135.343 54.7367 135.309 54.5933 135.256 54.44C135.203 54.2867 135.146 54.1533 135.086 54.04C135.273 54.0467 135.449 54.0533 135.616 54.06C135.789 54.06 135.939 54.06 136.066 54.06C136.193 54.06 136.283 54.0567 136.336 54.05C136.416 54.0433 136.469 54.0333 136.496 54.02C136.523 54 136.536 53.9633 136.536 53.91V52ZM134.956 55.96C135.129 56.5533 135.359 57.12 135.646 57.66C135.939 58.1933 136.286 58.6733 136.686 59.1C137.086 59.52 137.529 59.85 138.016 60.09C137.909 60.1767 137.793 60.2933 137.666 60.44C137.546 60.5933 137.449 60.73 137.376 60.85C136.876 60.5567 136.423 60.1733 136.016 59.7C135.616 59.22 135.266 58.68 134.966 58.08C134.666 57.4733 134.419 56.83 134.226 56.15L134.956 55.96ZM136.746 55.42H136.916L137.076 55.38L137.646 55.59C137.526 56.33 137.336 57.0333 137.076 57.7C136.823 58.36 136.503 58.96 136.116 59.5C135.729 60.04 135.276 60.4933 134.756 60.86C134.683 60.7533 134.583 60.64 134.456 60.52C134.336 60.4 134.226 60.3 134.126 60.22C134.606 59.8933 135.026 59.4867 135.386 59C135.746 58.5133 136.039 57.98 136.266 57.4C136.493 56.82 136.653 56.2267 136.746 55.62V55.42ZM128.966 52.52H132.736V53.32H128.966V52.52ZM128.876 58.07H132.866V58.87H128.876V58.07ZM128.616 54.19H133.116V54.99H128.616V54.19ZM128.786 56.31H132.986V57.11H128.786V56.31ZM130.466 51.58H131.336V54.48H130.466V51.58ZM130.466 56.65H131.336V60.82H130.466V56.65ZM131.816 54.91L132.606 55.11C132.506 55.3433 132.409 55.5767 132.316 55.81C132.229 56.0367 132.139 56.2333 132.046 56.4L131.366 56.2C131.419 56.08 131.473 55.9433 131.526 55.79C131.586 55.6367 131.639 55.4833 131.686 55.33C131.739 55.17 131.783 55.03 131.816 54.91ZM129.286 55.1L129.996 54.92C130.103 55.12 130.196 55.3433 130.276 55.59C130.356 55.83 130.409 56.0367 130.436 56.21L129.686 56.42C129.666 56.2467 129.616 56.0367 129.536 55.79C129.463 55.5433 129.379 55.3133 129.286 55.1ZM140.286 52.06H146.726V54.76H140.286V53.96H145.786V52.86H140.286V52.06ZM139.716 52.06H140.656V54.48C140.656 54.9133 140.639 55.3933 140.606 55.92C140.573 56.4467 140.506 56.9867 140.406 57.54C140.313 58.0933 140.173 58.6333 139.986 59.16C139.799 59.68 139.556 60.1533 139.256 60.58C139.203 60.52 139.129 60.45 139.036 60.37C138.943 60.29 138.846 60.2133 138.746 60.14C138.646 60.0667 138.559 60.0133 138.486 59.98C138.773 59.58 138.996 59.1467 139.156 58.68C139.323 58.2067 139.446 57.7233 139.526 57.23C139.606 56.7367 139.656 56.2533 139.676 55.78C139.703 55.3067 139.716 54.87 139.716 54.47V52.06ZM140.306 55.53H146.796V56.36H140.306V55.53ZM141.806 57.06H145.186V59.74H141.806V58.98H144.296V57.82H141.806V57.06ZM141.306 57.06H142.176V60.33H141.306V57.06ZM146.496 55.53H147.446C147.446 55.53 147.443 55.5567 147.436 55.61C147.436 55.6567 147.436 55.7133 147.436 55.78C147.436 55.84 147.436 55.8933 147.436 55.94C147.409 56.6867 147.379 57.3267 147.346 57.86C147.313 58.3867 147.276 58.8233 147.236 59.17C147.196 59.5167 147.149 59.79 147.096 59.99C147.043 60.19 146.979 60.3367 146.906 60.43C146.806 60.5567 146.699 60.6433 146.586 60.69C146.473 60.7433 146.336 60.78 146.176 60.8C146.036 60.82 145.849 60.83 145.616 60.83C145.383 60.8367 145.136 60.83 144.876 60.81C144.869 60.6767 144.843 60.5267 144.796 60.36C144.749 60.1933 144.689 60.0467 144.616 59.92C144.856 59.94 145.076 59.9567 145.276 59.97C145.476 59.9767 145.619 59.9767 145.706 59.97C145.799 59.9767 145.869 59.97 145.916 59.95C145.969 59.93 146.019 59.89 146.066 59.83C146.139 59.75 146.203 59.5667 146.256 59.28C146.309 58.9933 146.353 58.5633 146.386 57.99C146.426 57.41 146.463 56.6467 146.496 55.7V55.53Z" fill="#FB692C"/>
<defs>
<radialGradient id="paint0_radial_457_4471" cx="0" cy="0" r="1" gradientUnits="userSpaceOnUse" gradientTransform="translate(30.6299 6) rotate(108.906) scale(35.939 35.9388)">
<stop offset="0.268395" stop-color="#FFCB00"/>
<stop offset="0.599993" stop-color="#F0932E"/>
<stop offset="0.902126" stop-color="#FF592B"/>
</radialGradient>
</defs>
</svg>
