<svg width="147" height="47" viewBox="0 0 147 47" fill="none" xmlns="http://www.w3.org/2000/svg">
<mask id="mask0_1168_1670" style="mask-type:luminance" maskUnits="userSpaceOnUse" x="48" y="15" width="87" height="17">
<path d="M134.208 15.4126H48.0723V31.2611H134.208V15.4126Z" fill="white"/>
</mask>
<g mask="url(#mask0_1168_1670)">
<path d="M58.2011 17.061H59.8372V31.3447L49.6361 20.5396V30.6646H48V16.3809L58.2011 27.1859V17.061Z" fill="#161616"/>
<path d="M61.7188 17.001H63.3548V26.1348C63.3548 27.0676 63.605 27.819 64.1053 28.3891C64.606 28.9591 65.3374 29.2441 66.2996 29.2441C67.2621 29.2441 67.9935 28.9591 68.4939 28.3891C68.9942 27.819 69.2447 27.0676 69.2447 26.1348V17.001H70.8808V26.1348C70.8808 26.8085 70.7716 27.4303 70.5533 28.0004C70.3482 28.5704 70.0402 29.0628 69.6296 29.4774C69.2319 29.8919 68.7506 30.2158 68.1858 30.449C67.6214 30.6822 66.9925 30.7988 66.2996 30.7988C65.6066 30.7988 64.9781 30.6822 64.4133 30.449C63.8489 30.2158 63.3611 29.8919 62.9505 29.4774C62.5527 29.0628 62.2447 28.5704 62.0268 28.0004C61.8213 27.4303 61.7188 26.8085 61.7188 26.1348V17.001Z" fill="#161616"/>
<path d="M72.1621 18.5557V17.001H80.7275V18.5557H77.2627V30.6045H75.6266V18.5557H72.1621Z" fill="#161616"/>
<path d="M87.4925 21.6795L86.4916 30.8716H84.8555L86.4916 16.5879L91.8807 26.4407L97.2702 16.5879L98.9063 30.8716H97.2702L96.2693 21.6795L91.8807 29.6084L87.4925 21.6795Z" fill="#161616"/>
<path d="M101.731 30.6045V29.0498H108.525V30.6045H101.731ZM101.731 18.5557V17.001H108.525V18.5557H101.731ZM101.731 23.9971V22.4424H108.14V23.9971H101.731ZM100.826 17.001H102.462V30.6045H100.826V17.001Z" fill="#161616"/>
<path d="M117.708 25.3313V23.7233H124.17C124.17 24.7015 124.024 25.6328 123.733 26.5172C123.441 27.3882 123.01 28.1653 122.44 28.8487C121.87 29.5321 121.168 30.0748 120.333 30.4768C119.511 30.8654 118.57 31.0597 117.509 31.0597C116.502 31.0597 115.568 30.8855 114.706 30.5371C113.844 30.1753 113.095 29.6728 112.459 29.0296C111.823 28.373 111.326 27.6025 110.968 26.7181C110.623 25.8338 110.451 24.869 110.451 23.8238C110.451 22.7786 110.623 21.8138 110.968 20.9294C111.326 20.045 111.823 19.2812 112.459 18.6381C113.095 17.9815 113.844 17.479 114.706 17.1306C115.568 16.7688 116.502 16.5879 117.509 16.5879C118.371 16.5879 119.16 16.7018 119.876 16.9296C120.605 17.1574 121.254 17.4924 121.824 17.9346C122.407 18.3768 122.898 18.9262 123.295 19.5828L122.102 20.6882C121.665 19.9379 121.055 19.355 120.273 18.9395C119.491 18.5108 118.57 18.2964 117.509 18.2964C116.529 18.2964 115.64 18.5309 114.845 18.9999C114.05 19.4688 113.414 20.1187 112.936 20.9495C112.473 21.7669 112.24 22.725 112.24 23.8238C112.24 24.9092 112.473 25.8673 112.936 26.6981C113.414 27.5289 114.05 28.1787 114.845 28.6477C115.64 29.1167 116.529 29.3512 117.509 29.3512C118.199 29.3512 118.815 29.2507 119.358 29.0497C119.915 28.8353 120.392 28.5405 120.79 28.1653C121.188 27.7901 121.513 27.3614 121.764 26.879C122.029 26.3966 122.222 25.8807 122.341 25.3313H117.708Z" fill="#161616"/>
</g>
<path fill-rule="evenodd" clip-rule="evenodd" d="M11.0426 34.0008C8.51978 31.0326 7 27.194 7 23.0001C7 13.6178 14.6176 6 23.9999 6C27.7926 6 31.298 7.24439 34.1251 9.34904C33.0558 9.39662 31.9797 9.7587 31.0481 10.4438C28.9656 11.9687 26.8678 14.1736 26.3408 18.524C26.0773 20.6932 26.7862 22.6924 27.4628 24.0388C27.0446 23.9606 26.623 23.9742 26.2235 24.066C26.0926 24.0966 25.9617 24.1357 25.8342 24.185C23.6259 24.8514 22.8779 23.7022 22.6246 22.8267C22.6501 22.5105 22.6705 22.1467 22.6705 21.9036C22.6705 19.1207 20.4112 16.8597 17.6301 16.8597C14.8489 16.8597 12.5896 19.1207 12.5896 21.9036C12.5896 22.9253 12.8973 23.879 13.4192 24.6729C13.5433 24.8582 13.6776 25.0384 13.8237 25.2067C14.2794 25.868 14.9458 27.0529 14.8727 28.2412C14.7639 30.0228 13.7081 31.8265 13.1251 32.311C12.5624 32.7785 11.1429 33.9243 11.0443 34.0043L11.0426 34.0008ZM39.4852 15.979C40.456 18.1194 41 20.4977 41 23.0001C41 32.3824 33.3805 40 23.9999 40C19.2791 40 15.0036 38.0706 11.9232 34.9614C13.1404 34.521 16.1748 33.059 18.6449 30.5923C20.5081 28.7325 21.3207 27.6666 21.8375 26.3134V26.3185C23.1839 30.0772 25.5826 30.1622 25.7543 30.1979C27.4203 30.5294 29.2002 29.7253 29.7918 28.1358C30.108 27.2875 30.0264 26.3899 29.6405 25.6453C29.683 25.5518 29.7051 25.4515 29.7051 25.3512C29.7051 25.3512 27.949 20.0438 34.0588 19.9571C34.2951 19.969 34.5314 19.9639 34.766 19.9469C35.769 19.8636 36.7601 19.4998 37.6134 18.8317C38.5689 18.0854 39.201 17.0739 39.4852 15.979Z" fill="url(#paint0_radial_1168_1670)"/>
<defs>
<radialGradient id="paint0_radial_1168_1670" cx="0" cy="0" r="1" gradientTransform="matrix(-11.6448 34.0002 -33.9999 -11.6449 30.6299 6)" gradientUnits="userSpaceOnUse">
<stop offset="0.268395" stop-color="#FFCB00"/>
<stop offset="0.599993" stop-color="#F0932E"/>
<stop offset="0.902126" stop-color="#FF592B"/>
</radialGradient>
</defs>
</svg>
